<svg xmlns="http://www.w3.org/2000/svg" viewBox="0 0 391.26 390.67"><g id="Layer_2" data-name="Layer 2"><g id="Layer_1-2" data-name="Layer 1"><path d="M273,296.35c-76.82,61.22-179.54,43.79-234.8-22.9C-16.51,207.43-12,110,48.79,49,109.35-11.78,205.44-16.67,272.91,38,339.83,92.29,358,196.21,296.2,273.13c.94,1,1.89,2.05,2.9,3.06Q342,319.09,384.94,362c4.62,4.61,7.37,9.81,5.94,16.45-1.2,5.57-4.29,9.91-10,11.39-6.61,1.72-13.06,1.06-18.23-4-8.74-8.57-17.33-17.29-26-25.95l-60.41-60.4C275.25,298.45,274.18,297.49,273,296.35ZM32.69,166.93C33.12,241.37,92.18,301,167,301.23c74,.21,134-60,134.14-134S240.84,32.69,166.9,32.87A134.46,134.46,0,0,0,32.69,166.93Z"/><path d="M183.23,150.69c13,0,25.35,0,37.71,0,8.22,0,14.28,3.86,16.83,10.46a16.22,16.22,0,0,1-15.15,22.11c-11.58.22-23.16.06-34.73.06h-4.66c0,5.89,0,11.32,0,16.75-.06,8.24.17,16.51-.36,24.73S175,239.09,166.78,239c-8.36-.11-15.62-6.54-15.88-14.87-.36-11.83-.16-23.68-.2-35.52,0-1.57,0-3.15,0-5.26h-4.55c-11.05,0-22.09,0-33.14,0-10.56,0-17.92-6.65-18-16.13s7.36-16.44,18.12-16.5c10.92,0,21.83,0,32.74,0h4.84c0-1.77,0-3.19,0-4.61,0-12-.11-24,.18-35.92a15.61,15.61,0,0,1,12.94-14.69c7.6-1.28,15,2.24,17.74,9.09a26.37,26.37,0,0,1,1.6,9.32c.18,10.64.07,21.29.07,31.93Z"/></g></g></svg>