<svg width="29" height="23" viewBox="0 0 29 23" fill="none" xmlns="http://www.w3.org/2000/svg">
<circle cx="14.5728" cy="11.1541" r="3.75" stroke="black" stroke-width="2.5"/>
<path d="M27.5922 10.8798C27.6619 11.0375 27.7069 11.1579 27.733 11.2415C27.7069 11.325 27.6619 11.4455 27.5922 11.6031C27.4457 11.9342 27.2154 12.3719 26.8994 12.8833C26.2684 13.9049 25.3316 15.1625 24.1344 16.381C21.7192 18.8392 18.396 20.9915 14.5 20.9915C10.604 20.9915 7.28077 18.8392 4.8656 16.381C3.6684 15.1625 2.73162 13.9049 2.10056 12.8833C1.7846 12.3719 1.55431 11.9342 1.40784 11.6031C1.33808 11.4455 1.29314 11.325 1.26697 11.2415C1.29314 11.1579 1.33808 11.0375 1.40784 10.8798C1.55431 10.5488 1.7846 10.111 2.10056 9.59957C2.73162 8.578 3.6684 7.32041 4.8656 6.10187C7.28077 3.64367 10.604 1.49146 14.5 1.49146C18.396 1.49146 21.7192 3.64367 24.1344 6.10187C25.3316 7.32041 26.2684 8.578 26.8994 9.59957C27.2154 10.111 27.4457 10.5488 27.5922 10.8798Z" stroke="black" stroke-width="2.5"/>
</svg>
