<svg width="31" height="24" viewBox="0 0 31 24" fill="none" xmlns="http://www.w3.org/2000/svg">
<path d="M31 12.2415C31 13.7114 24.8386 24.0002 15.5 24.0002C6.16137 24.0002 0 13.7114 0 12.2415C0 10.7717 6.16137 0.48291 15.5 0.48291C24.8386 0.48291 31 10.7717 31 12.2415Z" fill="#2741CC"/>
<path d="M15.4226 5.78223C14.2355 5.78223 13.0717 6.11167 12.0608 6.73389C11.0498 7.35611 10.2314 8.24668 9.69657 9.30646C9.16176 10.3663 8.93157 11.5537 9.0316 12.7365C9.13164 13.9194 9.55799 15.0513 10.2632 16.0062L15.4226 12.196V5.78223Z" fill="#FF0095"/>
<path d="M19.2841 17.3171C20.3602 16.5057 21.1534 15.3758 21.551 14.0879C21.9486 12.8001 21.9303 11.4197 21.4989 10.1429C21.0674 8.86597 20.2447 7.75745 19.1474 6.9747C18.0502 6.19195 16.7343 5.77474 15.3865 5.78233L15.4226 12.196L19.2841 17.3171Z" fill="#FFE800"/>
<path d="M9.37915 14.344C9.76475 15.4289 10.4353 16.39 11.3204 17.1264C12.2055 17.8628 13.2725 18.3474 14.4095 18.5293C15.5464 18.7112 16.7114 18.5836 17.782 18.1601C18.8527 17.7365 19.7896 17.0325 20.4944 16.122L15.4226 12.196L9.37915 14.344Z" fill="#00B8FF"/>
</svg>
