<svg width="229" height="58" viewBox="0 0 229 58" fill="none" xmlns="http://www.w3.org/2000/svg">
<rect x="0.970703" y="0.477539" width="227.925" height="56.747" rx="28.3735" fill="#134CFE"/>
<path d="M33.4971 19.7759V37.9263" stroke="white" stroke-width="2"/>
<path d="M42.5723 28.8511L24.4219 28.8511" stroke="white" stroke-width="2"/>
<path d="M72.2837 32.2161H67.1157L66.1637 34.8511H64.5317L68.8157 23.0701H70.6007L74.8677 34.8511H73.2357L72.2837 32.2161ZM71.8417 30.9581L69.6997 24.9741L67.5577 30.9581H71.8417ZM76.1568 30.1591C76.1568 29.2071 76.3494 28.3741 76.7348 27.6601C77.1201 26.9347 77.6471 26.3737 78.3158 25.9771C78.9958 25.5804 79.7551 25.3821 80.5938 25.3821C81.3191 25.3821 81.9934 25.5521 82.6168 25.8921C83.2401 26.2207 83.7161 26.6571 84.0448 27.2011V22.2711H85.6088V34.8511H84.0448V33.1001C83.7388 33.6554 83.2854 34.1144 82.6848 34.4771C82.0841 34.8284 81.3814 35.0041 80.5768 35.0041C79.7494 35.0041 78.9958 34.8001 78.3158 34.3921C77.6471 33.9841 77.1201 33.4117 76.7348 32.6751C76.3494 31.9384 76.1568 31.0997 76.1568 30.1591ZM84.0448 30.1761C84.0448 29.4734 83.9031 28.8614 83.6198 28.3401C83.3364 27.8187 82.9511 27.4221 82.4638 27.1501C81.9878 26.8667 81.4608 26.7251 80.8828 26.7251C80.3048 26.7251 79.7778 26.8611 79.3018 27.1331C78.8258 27.4051 78.4461 27.8017 78.1628 28.3231C77.8794 28.8444 77.7378 29.4564 77.7378 30.1591C77.7378 30.8731 77.8794 31.4964 78.1628 32.0291C78.4461 32.5504 78.8258 32.9527 79.3018 33.2361C79.7778 33.5081 80.3048 33.6441 80.8828 33.6441C81.4608 33.6441 81.9878 33.5081 82.4638 33.2361C82.9511 32.9527 83.3364 32.5504 83.6198 32.0291C83.9031 31.4964 84.0448 30.8787 84.0448 30.1761ZM87.6451 30.1591C87.6451 29.2071 87.8377 28.3741 88.2231 27.6601C88.6084 26.9347 89.1354 26.3737 89.8041 25.9771C90.4841 25.5804 91.2434 25.3821 92.0821 25.3821C92.8074 25.3821 93.4817 25.5521 94.1051 25.8921C94.7284 26.2207 95.2044 26.6571 95.5331 27.2011V22.2711H97.0971V34.8511H95.5331V33.1001C95.2271 33.6554 94.7737 34.1144 94.1731 34.4771C93.5724 34.8284 92.8697 35.0041 92.0651 35.0041C91.2377 35.0041 90.4841 34.8001 89.8041 34.3921C89.1354 33.9841 88.6084 33.4117 88.2231 32.6751C87.8377 31.9384 87.6451 31.0997 87.6451 30.1591ZM95.5331 30.1761C95.5331 29.4734 95.3914 28.8614 95.1081 28.3401C94.8247 27.8187 94.4394 27.4221 93.9521 27.1501C93.4761 26.8667 92.9491 26.7251 92.3711 26.7251C91.7931 26.7251 91.2661 26.8611 90.7901 27.1331C90.3141 27.4051 89.9344 27.8017 89.6511 28.3231C89.3677 28.8444 89.2261 29.4564 89.2261 30.1591C89.2261 30.8731 89.3677 31.4964 89.6511 32.0291C89.9344 32.5504 90.3141 32.9527 90.7901 33.2361C91.2661 33.5081 91.7931 33.6441 92.3711 33.6441C92.9491 33.6441 93.4761 33.5081 93.9521 33.2361C94.4394 32.9527 94.8247 32.5504 95.1081 32.0291C95.3914 31.4964 95.5331 30.8787 95.5331 30.1761ZM106.131 26.8101V32.3011C106.131 32.7544 106.227 33.0774 106.42 33.2701C106.612 33.4514 106.947 33.5421 107.423 33.5421H108.562V34.8511H107.168C106.306 34.8511 105.66 34.6527 105.23 34.2561C104.799 33.8594 104.584 33.2077 104.584 32.3011V26.8101H103.377V25.5351H104.584V23.1891H106.131V25.5351H108.562V26.8101H106.131ZM114.499 35.0041C113.626 35.0041 112.833 34.8057 112.119 34.4091C111.416 34.0124 110.861 33.4514 110.453 32.7261C110.056 31.9894 109.858 31.1394 109.858 30.1761C109.858 29.2241 110.062 28.3854 110.47 27.6601C110.889 26.9234 111.456 26.3624 112.17 25.9771C112.884 25.5804 113.683 25.3821 114.567 25.3821C115.451 25.3821 116.25 25.5804 116.964 25.9771C117.678 26.3624 118.239 26.9177 118.647 27.6431C119.066 28.3684 119.276 29.2127 119.276 30.1761C119.276 31.1394 119.061 31.9894 118.63 32.7261C118.211 33.4514 117.638 34.0124 116.913 34.4091C116.188 34.8057 115.383 35.0041 114.499 35.0041ZM114.499 33.6441C115.054 33.6441 115.576 33.5137 116.063 33.2531C116.55 32.9924 116.941 32.6014 117.236 32.0801C117.542 31.5587 117.695 30.9241 117.695 30.1761C117.695 29.4281 117.548 28.7934 117.253 28.2721C116.958 27.7507 116.573 27.3654 116.097 27.1161C115.621 26.8554 115.105 26.7251 114.55 26.7251C113.983 26.7251 113.462 26.8554 112.986 27.1161C112.521 27.3654 112.147 27.7507 111.864 28.2721C111.581 28.7934 111.439 29.4281 111.439 30.1761C111.439 30.9354 111.575 31.5757 111.847 32.0971C112.13 32.6184 112.504 33.0094 112.969 33.2701C113.434 33.5194 113.944 33.6441 114.499 33.6441ZM125.264 30.1761C125.264 29.2127 125.457 28.3741 125.842 27.6601C126.228 26.9347 126.76 26.3737 127.44 25.9771C128.132 25.5804 128.919 25.3821 129.803 25.3821C130.948 25.3821 131.889 25.6597 132.625 26.2151C133.373 26.7704 133.866 27.5411 134.104 28.5271H132.438C132.28 27.9604 131.968 27.5127 131.503 27.1841C131.05 26.8554 130.483 26.6911 129.803 26.6911C128.919 26.6911 128.205 26.9971 127.661 27.6091C127.117 28.2097 126.845 29.0654 126.845 30.1761C126.845 31.2981 127.117 32.1651 127.661 32.7771C128.205 33.3891 128.919 33.6951 129.803 33.6951C130.483 33.6951 131.05 33.5364 131.503 33.2191C131.957 32.9017 132.268 32.4484 132.438 31.8591H134.104C133.855 32.8111 133.356 33.5761 132.608 34.1541C131.86 34.7207 130.925 35.0041 129.803 35.0041C128.919 35.0041 128.132 34.8057 127.44 34.4091C126.76 34.0124 126.228 33.4514 125.842 32.7261C125.457 32.0007 125.264 31.1507 125.264 30.1761ZM140.231 35.0041C139.359 35.0041 138.565 34.8057 137.851 34.4091C137.149 34.0124 136.593 33.4514 136.185 32.7261C135.789 31.9894 135.59 31.1394 135.59 30.1761C135.59 29.2241 135.794 28.3854 136.202 27.6601C136.622 26.9234 137.188 26.3624 137.902 25.9771C138.616 25.5804 139.415 25.3821 140.299 25.3821C141.183 25.3821 141.982 25.5804 142.696 25.9771C143.41 26.3624 143.971 26.9177 144.379 27.6431C144.799 28.3684 145.008 29.2127 145.008 30.1761C145.008 31.1394 144.793 31.9894 144.362 32.7261C143.943 33.4514 143.371 34.0124 142.645 34.4091C141.92 34.8057 141.115 35.0041 140.231 35.0041ZM140.231 33.6441C140.787 33.6441 141.308 33.5137 141.795 33.2531C142.283 32.9924 142.674 32.6014 142.968 32.0801C143.274 31.5587 143.427 30.9241 143.427 30.1761C143.427 29.4281 143.28 28.7934 142.985 28.2721C142.691 27.7507 142.305 27.3654 141.829 27.1161C141.353 26.8554 140.838 26.7251 140.282 26.7251C139.716 26.7251 139.194 26.8554 138.718 27.1161C138.254 27.3654 137.88 27.7507 137.596 28.2721C137.313 28.7934 137.171 29.4281 137.171 30.1761C137.171 30.9354 137.307 31.5757 137.579 32.0971C137.863 32.6184 138.237 33.0094 138.701 33.2701C139.166 33.5194 139.676 33.6441 140.231 33.6441ZM158.245 25.3651C158.971 25.3651 159.617 25.5181 160.183 25.8241C160.75 26.1187 161.198 26.5664 161.526 27.1671C161.855 27.7677 162.019 28.4987 162.019 29.3601V34.8511H160.489V29.5811C160.489 28.6517 160.257 27.9434 159.792 27.4561C159.339 26.9574 158.721 26.7081 157.939 26.7081C157.135 26.7081 156.494 26.9687 156.018 27.4901C155.542 28.0001 155.304 28.7424 155.304 29.7171V34.8511H153.774V29.5811C153.774 28.6517 153.542 27.9434 153.077 27.4561C152.624 26.9574 152.006 26.7081 151.224 26.7081C150.42 26.7081 149.779 26.9687 149.303 27.4901C148.827 28.0001 148.589 28.7424 148.589 29.7171V34.8511H147.042V25.5351H148.589V26.8781C148.895 26.3907 149.303 26.0167 149.813 25.7561C150.335 25.4954 150.907 25.3651 151.53 25.3651C152.312 25.3651 153.004 25.5407 153.604 25.8921C154.205 26.2434 154.653 26.7591 154.947 27.4391C155.208 26.7817 155.639 26.2717 156.239 25.9091C156.84 25.5464 157.509 25.3651 158.245 25.3651ZM166.104 27.2521C166.41 26.7194 166.863 26.2774 167.464 25.9261C168.076 25.5634 168.784 25.3821 169.589 25.3821C170.416 25.3821 171.164 25.5804 171.833 25.9771C172.513 26.3737 173.046 26.9347 173.431 27.6601C173.816 28.3741 174.009 29.2071 174.009 30.1591C174.009 31.0997 173.816 31.9384 173.431 32.6751C173.046 33.4117 172.513 33.9841 171.833 34.3921C171.164 34.8001 170.416 35.0041 169.589 35.0041C168.796 35.0041 168.093 34.8284 167.481 34.4771C166.88 34.1144 166.421 33.6667 166.104 33.1341V39.2711H164.557V25.5351H166.104V27.2521ZM172.428 30.1591C172.428 29.4564 172.286 28.8444 172.003 28.3231C171.72 27.8017 171.334 27.4051 170.847 27.1331C170.371 26.8611 169.844 26.7251 169.266 26.7251C168.699 26.7251 168.172 26.8667 167.685 27.1501C167.209 27.4221 166.824 27.8244 166.529 28.3571C166.246 28.8784 166.104 29.4847 166.104 30.1761C166.104 30.8787 166.246 31.4964 166.529 32.0291C166.824 32.5504 167.209 32.9527 167.685 33.2361C168.172 33.5081 168.699 33.6441 169.266 33.6441C169.844 33.6441 170.371 33.5081 170.847 33.2361C171.334 32.9527 171.72 32.5504 172.003 32.0291C172.286 31.4964 172.428 30.8731 172.428 30.1591ZM175.467 30.1591C175.467 29.2071 175.66 28.3741 176.045 27.6601C176.431 26.9347 176.958 26.3737 177.626 25.9771C178.306 25.5804 179.06 25.3821 179.887 25.3821C180.703 25.3821 181.412 25.5577 182.012 25.9091C182.613 26.2604 183.061 26.7024 183.355 27.2351V25.5351H184.919V34.8511H183.355V33.1171C183.049 33.6611 182.59 34.1144 181.978 34.4771C181.378 34.8284 180.675 35.0041 179.87 35.0041C179.043 35.0041 178.295 34.8001 177.626 34.3921C176.958 33.9841 176.431 33.4117 176.045 32.6751C175.66 31.9384 175.467 31.0997 175.467 30.1591ZM183.355 30.1761C183.355 29.4734 183.214 28.8614 182.93 28.3401C182.647 27.8187 182.262 27.4221 181.774 27.1501C181.298 26.8667 180.771 26.7251 180.193 26.7251C179.615 26.7251 179.088 26.8611 178.612 27.1331C178.136 27.4051 177.757 27.8017 177.473 28.3231C177.19 28.8444 177.048 29.4564 177.048 30.1591C177.048 30.8731 177.19 31.4964 177.473 32.0291C177.757 32.5504 178.136 32.9527 178.612 33.2361C179.088 33.5081 179.615 33.6441 180.193 33.6441C180.771 33.6441 181.298 33.5081 181.774 33.2361C182.262 32.9527 182.647 32.5504 182.93 32.0291C183.214 31.4964 183.355 30.8787 183.355 30.1761ZM189.081 27.0481C189.353 26.5154 189.738 26.1017 190.237 25.8071C190.747 25.5124 191.364 25.3651 192.09 25.3651V26.9631H191.682C189.948 26.9631 189.081 27.9037 189.081 29.7851V34.8511H187.534V25.5351H189.081V27.0481ZM202.375 29.8361C202.375 30.1307 202.358 30.4424 202.324 30.7711H194.878C194.935 31.6891 195.247 32.4087 195.813 32.9301C196.391 33.4401 197.088 33.6951 197.904 33.6951C198.573 33.6951 199.128 33.5421 199.57 33.2361C200.024 32.9187 200.341 32.4994 200.522 31.9781H202.188C201.939 32.8734 201.44 33.6044 200.692 34.1711C199.944 34.7264 199.015 35.0041 197.904 35.0041C197.02 35.0041 196.227 34.8057 195.524 34.4091C194.833 34.0124 194.289 33.4514 193.892 32.7261C193.496 31.9894 193.297 31.1394 193.297 30.1761C193.297 29.2127 193.49 28.3684 193.875 27.6431C194.261 26.9177 194.799 26.3624 195.49 25.9771C196.193 25.5804 196.998 25.3821 197.904 25.3821C198.788 25.3821 199.57 25.5747 200.25 25.9601C200.93 26.3454 201.452 26.8781 201.814 27.5581C202.188 28.2267 202.375 28.9861 202.375 29.8361ZM200.777 29.5131C200.777 28.9237 200.647 28.4194 200.386 28.0001C200.126 27.5694 199.769 27.2464 199.315 27.0311C198.873 26.8044 198.38 26.6911 197.836 26.6911C197.054 26.6911 196.386 26.9404 195.83 27.4391C195.286 27.9377 194.975 28.6291 194.895 29.5131H200.777Z" fill="white"/>
</svg>
