<svg width="1920" height="977" viewBox="0 0 1920 977" fill="none" xmlns="http://www.w3.org/2000/svg">
<rect width="1920" height="1090" fill="#444349"/>
<g opacity="0.11" clip-path="url(#clip0)">
<g opacity="0.21">
<rect width="2.41667" height="2072.29" transform="matrix(-1 0 0 1 2.41699 0)" fill="#C4C4C4"/>
<rect width="2.41667" height="2317.58" transform="matrix(0 -1 -1 0 2317.58 33.8335)" fill="#C4C4C4"/>
<rect width="2.41667" height="2317.58" transform="matrix(0 -1 -1 0 2317.58 101.5)" fill="#C4C4C4"/>
<rect width="1.20833" height="2317.58" transform="matrix(0 -1 -1 0 2320 169.167)" fill="#C4C4C4"/>
<rect width="2.41667" height="2317.58" transform="matrix(0 -1 -1 0 2320 238.042)" fill="#C4C4C4"/>
<rect width="2.41667" height="2317.58" transform="matrix(0 -1 -1 0 2320 305.708)" fill="#C4C4C4"/>
<rect width="2.41667" height="2317.58" transform="matrix(0 -1 -1 0 2320 373.375)" fill="#C4C4C4"/>
<rect width="2.41667" height="2317.58" transform="matrix(0 -1 -1 0 2320 441.042)" fill="#C4C4C4"/>
<rect width="2.41667" height="2317.58" transform="matrix(0 -1 -1 0 2320 508.708)" fill="#C4C4C4"/>
<rect width="1.20833" height="2317.58" transform="matrix(0 -1 -1 0 2320 576.375)" fill="#C4C4C4"/>
<rect width="2.41667" height="2317.58" transform="matrix(0 -1 -1 0 2320 645.25)" fill="#C4C4C4"/>
<rect width="2.41667" height="2317.58" transform="matrix(0 -1 -1 0 2320 712.917)" fill="#C4C4C4"/>
<rect width="2.41667" height="2317.58" transform="matrix(0 -1 -1 0 2320 780.583)" fill="#C4C4C4"/>
<rect width="2.41667" height="2317.58" transform="matrix(0 -1 -1 0 2320 848.25)" fill="#C4C4C4"/>
<rect width="2.41667" height="2317.58" transform="matrix(0 -1 -1 0 2320 915.917)" fill="#C4C4C4"/>
<rect width="1.20833" height="2072.29" transform="matrix(-1 0 0 1 56.792 0)" fill="#C4C4C4"/>
<rect width="2.41667" height="2072.29" transform="matrix(-1 0 0 1 112.375 0)" fill="#C4C4C4"/>
<rect width="2.41667" height="2072.29" transform="matrix(-1 0 0 1 167.96 0)" fill="#C4C4C4"/>
<rect width="1.20833" height="2072.29" transform="matrix(-1 0 0 1 222.335 0)" fill="#C4C4C4"/>
<rect width="2.41667" height="2072.29" transform="matrix(-1 0 0 1 277.918 0)" fill="#C4C4C4"/>
<rect width="2.41667" height="2072.29" transform="matrix(-1 0 0 1 333.501 0)" fill="#C4C4C4"/>
<rect width="2.41667" height="2072.29" transform="matrix(-1 0 0 1 387.876 0)" fill="#C4C4C4"/>
<rect width="2.41667" height="2072.29" transform="matrix(-1 0 0 1 443.459 0)" fill="#C4C4C4"/>
<rect width="1.20833" height="2072.29" transform="matrix(-1 0 0 1 497.834 0)" fill="#C4C4C4"/>
<rect width="2.41667" height="2072.29" transform="matrix(-1 0 0 1 553.417 0)" fill="#C4C4C4"/>
<rect width="2.41667" height="2072.29" transform="matrix(-1 0 0 1 609 0)" fill="#C4C4C4"/>
<rect width="1.20833" height="2072.29" transform="matrix(-1 0 0 1 663.375 0)" fill="#C4C4C4"/>
<rect width="2.41667" height="2072.29" transform="matrix(-1 0 0 1 718.958 0)" fill="#C4C4C4"/>
<rect width="2.41667" height="2072.29" transform="matrix(-1 0 0 1 774.541 0)" fill="#C4C4C4"/>
<rect width="2.41667" height="2072.29" transform="matrix(-1 0 0 1 828.916 0)" fill="#C4C4C4"/>
<rect width="2.41667" height="2072.29" transform="matrix(-1 0 0 1 884.501 0)" fill="#C4C4C4"/>
<rect width="1.20833" height="2072.29" transform="matrix(-1 0 0 1 938.876 0)" fill="#C4C4C4"/>
<rect width="2.41667" height="2072.29" transform="matrix(-1 0 0 1 994.459 0)" fill="#C4C4C4"/>
<rect width="2.41667" height="2072.29" transform="matrix(-1 0 0 1 1050.04 0)" fill="#C4C4C4"/>
<rect width="1.20833" height="2072.29" transform="matrix(-1 0 0 1 1104.42 0)" fill="#C4C4C4"/>
<rect width="2.41667" height="2072.29" transform="matrix(-1 0 0 1 1160 0)" fill="#C4C4C4"/>
<rect width="2.41667" height="2072.29" transform="matrix(-1 0 0 1 1215.58 0)" fill="#C4C4C4"/>
<rect width="1.20833" height="2072.29" transform="matrix(-1 0 0 1 1269.96 0)" fill="#C4C4C4"/>
<rect width="2.41667" height="2072.29" transform="matrix(-1 0 0 1 1325.54 0)" fill="#C4C4C4"/>
<rect width="2.41667" height="2072.29" transform="matrix(-1 0 0 1 1381.12 0)" fill="#C4C4C4"/>
<rect width="2.41667" height="2072.29" transform="matrix(-1 0 0 1 1435.5 0)" fill="#C4C4C4"/>
<rect width="2.41667" height="2072.29" transform="matrix(-1 0 0 1 1491.08 0)" fill="#C4C4C4"/>
<rect width="1.20833" height="2072.29" transform="matrix(-1 0 0 1 1545.46 0)" fill="#C4C4C4"/>
<rect width="2.41667" height="2072.29" transform="matrix(-1 0 0 1 1601.04 0)" fill="#C4C4C4"/>
<rect width="2.41667" height="2072.29" transform="matrix(-1 0 0 1 1656.63 0)" fill="#C4C4C4"/>
<rect width="1.20833" height="2072.29" transform="matrix(-1 0 0 1 1711 0)" fill="#C4C4C4"/>
<rect width="2.41667" height="2072.29" transform="matrix(-1 0 0 1 1766.58 0)" fill="#C4C4C4"/>
<rect width="2.41667" height="2072.29" transform="matrix(-1 0 0 1 1822.17 0)" fill="#C4C4C4"/>
<rect width="2.41667" height="2072.29" transform="matrix(-1 0 0 1 1876.54 0)" fill="#C4C4C4"/>
</g>
</g>
<defs>
<clipPath id="clip0">
<rect width="1920" height="1090" fill="white"/>
</clipPath>
</defs>
</svg>
