<svg width="200" height="43" viewBox="0 0 200 43" fill="none" xmlns="http://www.w3.org/2000/svg">
<path d="M12.1469 39.446H0.692867V42.9996H12.0254C13.1893 42.9996 14.1811 42.8505 14.9933 42.5472C15.808 42.2465 16.4734 41.8294 16.9972 41.2986C17.5184 40.7679 17.9004 40.1385 18.1433 39.4182C18.3837 38.6954 18.5051 37.9017 18.5051 37.0399C18.5051 36.317 18.409 35.5942 18.2192 34.8713C18.0269 34.1484 17.6778 33.5065 17.1642 32.9454C16.6505 32.3843 15.9522 31.9268 15.0692 31.5755C14.1862 31.2242 13.0501 31.0472 11.6636 31.0472H6.90186C6.29969 31.0472 5.80631 30.9815 5.42425 30.8526C5.0422 30.7212 4.73605 30.5417 4.50581 30.3117C4.27556 30.0817 4.11363 29.8189 4.02255 29.5282C3.93146 29.2376 3.88592 28.9393 3.88592 28.6411C3.88592 27.9385 4.09592 27.3622 4.51846 26.9098C4.94099 26.4574 5.61401 26.2324 6.53752 26.2324H16.9643V22.6763H6.6615C5.53558 22.6763 4.57159 22.8229 3.76953 23.111C2.96494 23.4017 2.3071 23.8086 1.79601 24.3318C1.28239 24.8549 0.91046 25.4716 0.680216 26.1844C0.447442 26.8971 0.331055 27.6731 0.331055 28.5172C0.331055 29.2199 0.427201 29.9225 0.616962 30.6252C0.806723 31.3278 1.14829 31.9597 1.64167 32.5233C2.13252 33.0844 2.81313 33.5368 3.67592 33.878C4.5387 34.2192 5.6545 34.3886 7.02078 34.3886H11.7522C12.3746 34.3886 12.8933 34.4593 13.3032 34.6009C13.7156 34.7399 14.042 34.9269 14.2823 35.1569C14.5227 35.3869 14.6947 35.6573 14.7934 35.9707C14.8946 36.2816 14.9452 36.5976 14.9452 36.9185C14.9452 37.6616 14.72 38.2682 14.2671 38.7409C13.8193 39.211 13.1109 39.446 12.1469 39.446Z" fill="#F8F6F3"/>
<path d="M39.0929 42.997V34.0624C39.0929 31.8711 38.43 30.1651 37.1017 28.9367C35.7734 27.7159 33.7669 27.1068 31.0774 27.1068H25.468V22.6787H22.2725V42.997H25.4655V30.1726H31.0749C32.7372 30.1726 33.9491 30.5164 34.7208 31.1988C35.4824 31.8787 35.8619 32.8341 35.8619 34.0624V42.997H39.0929Z" fill="#F8F6F3"/>
<path d="M43.5488 31.7399V42.9997H46.7444V32.2226C46.7444 30.8578 47.4275 30.1754 48.7938 30.1754H54.4006V27.1045H47.8602C46.294 27.1045 45.1833 27.476 44.5305 28.2191C43.8752 28.9597 43.5488 30.1324 43.5488 31.7399Z" fill="#F8F6F3"/>
<path d="M67.8689 36.5551C69.8222 36.5551 71.2087 36.1583 72.0284 35.3647C72.8507 34.5786 73.2657 33.4488 73.2657 31.9854C73.2657 30.4336 72.8406 29.2406 72.0031 28.3863C71.1555 27.5295 69.7867 27.1074 67.9043 27.1074H62.7453C61.7459 27.1074 60.8907 27.2389 60.2025 27.4967C59.5143 27.762 58.94 28.1235 58.4896 28.5986C58.0291 29.0662 57.7027 29.6223 57.5079 30.2668C57.3055 30.9113 57.1992 31.5987 57.1992 32.3393V37.7657C57.1992 38.524 57.3055 39.2216 57.5079 39.856C57.7027 40.4828 58.0291 41.0388 58.4896 41.5064C58.94 41.9841 59.5143 42.3455 60.2025 42.6084C60.8907 42.8738 61.7484 42.9976 62.7453 42.9976H72.4788V39.9015H62.7453C61.8623 39.9015 61.2348 39.6993 60.8629 39.2848C60.491 38.8703 60.3062 38.3496 60.3062 37.7051V36.5576H67.8689V36.5551ZM60.3088 32.3721C60.3088 31.7453 60.4935 31.2247 60.8654 30.8026C61.2373 30.3881 61.8648 30.1758 62.7478 30.1758H67.8714C68.6583 30.1758 69.2326 30.3527 69.5944 30.7141C69.9563 31.0755 70.1334 31.5608 70.1334 32.1624C70.1334 32.7437 69.9563 33.2037 69.6122 33.5474C69.2579 33.8911 68.6482 34.058 67.7828 34.058H60.3088V32.3721Z" fill="#F8F6F3"/>
<path d="M78.2823 41.046C79.5196 42.3527 81.2072 42.9972 83.335 42.9972H87.735C89.6427 42.9972 91.0925 42.4411 92.0894 41.3291C93.0863 40.217 93.5822 38.5059 93.5822 36.1933V22.6738H90.3486V27.1045H83.335C81.2072 27.1045 79.5196 27.749 78.2823 29.0633C77.0451 30.37 76.4277 32.3641 76.4277 35.0559C76.4277 37.7375 77.0476 39.7393 78.2823 41.046ZM80.6075 31.3127C81.2426 30.5545 82.2496 30.1754 83.6387 30.1754H90.3512V36.0441C90.3512 37.4115 90.0855 38.3921 89.539 38.9912C89.0001 39.5902 88.0892 39.901 86.8014 39.901H83.6387C82.2521 39.901 81.2451 39.5219 80.6075 38.7713C79.9801 38.013 79.6537 36.7771 79.6537 35.0559C79.6537 33.3246 79.9801 32.0811 80.6075 31.3127Z" fill="#F8F6F3"/>
<path d="M124.035 42.9972V26.7431C124.035 25.4161 123.663 24.347 122.902 23.5357C122.15 22.7219 121.017 22.3149 119.514 22.3149C118.153 22.3149 117.108 22.6511 116.399 23.3234C115.683 23.9957 115.124 24.9132 114.727 26.0809L110.684 36.6786L106.64 26.0809C106.243 24.9132 105.684 23.9957 104.968 23.3234C104.26 22.6511 103.217 22.3149 101.853 22.3149C100.351 22.3149 99.217 22.7219 98.4655 23.5357C97.704 24.3496 97.332 25.4187 97.332 26.7431V42.9972H100.915V26.92C100.915 26.5586 101.011 26.2755 101.206 26.0632C101.39 25.8509 101.638 25.7447 101.939 25.7447C102.205 25.7447 102.425 25.8231 102.62 25.9924C102.805 26.1516 102.957 26.3639 103.053 26.6192C103.273 27.193 103.495 27.7768 103.716 28.3505C104.212 29.6673 104.715 30.9842 105.219 32.301C105.757 33.7315 106.306 35.1545 106.856 36.5876C107.2 37.5076 107.554 38.425 107.9 39.3349C108.351 40.5102 108.935 42.0393 110.122 42.6661C110.307 42.7622 110.494 42.8152 110.679 42.8254C110.863 42.8178 111.051 42.7647 111.235 42.6661C112.422 42.0393 113.004 40.5102 113.457 39.3349C113.801 38.425 114.155 37.505 114.502 36.5876C115.051 35.157 115.6 33.734 116.139 32.301C116.642 30.9842 117.148 29.6673 117.642 28.3505C117.862 27.7768 118.084 27.193 118.304 26.6192C118.401 26.3639 118.552 26.1516 118.737 25.9924C118.932 25.8256 119.152 25.7447 119.418 25.7447C119.719 25.7447 119.967 25.8509 120.151 26.0632C120.346 26.2755 120.442 26.5586 120.442 26.92V42.9972H124.035Z" fill="#F8F6F3"/>
<path d="M139.092 36.5551C141.045 36.5551 142.432 36.1583 143.251 35.3647C144.074 34.5786 144.489 33.4488 144.489 31.9854C144.489 30.4336 144.064 29.2406 143.226 28.3863C142.378 27.5295 141.017 27.1074 139.127 27.1074H133.968C132.969 27.1074 132.121 27.2389 131.425 27.4967C130.737 27.762 130.163 28.1235 129.712 28.5986C129.252 29.0662 128.926 29.6223 128.731 30.2668C128.528 30.9113 128.43 31.5987 128.43 32.3393V37.7657C128.43 38.524 128.526 39.2216 128.731 39.856C128.926 40.4828 129.252 41.0388 129.712 41.5064C130.163 41.9841 130.737 42.3455 131.425 42.6084C132.124 42.8738 132.971 42.9976 133.968 42.9976H143.702V39.9015H133.968C133.085 39.9015 132.458 39.6993 132.086 39.2848C131.714 38.8703 131.529 38.3496 131.529 37.7051V36.5576H139.092V36.5551ZM131.532 32.3721C131.532 31.7453 131.716 31.2247 132.088 30.8026C132.46 30.3881 133.088 30.1758 133.971 30.1758H139.094C139.881 30.1758 140.456 30.3527 140.817 30.7141C141.179 31.0755 141.356 31.5608 141.356 32.1624C141.356 32.7437 141.179 33.2037 140.835 33.5474C140.481 33.8911 139.871 34.058 139.006 34.058H131.532V32.3721Z" fill="#F8F6F3"/>
<path d="M156.608 30.1727V27.1018H152.208V22.6787H148.982V27.1018H146.812V30.1727H148.982V37.5175C148.982 38.5613 149.073 39.4333 149.253 40.1359C149.433 40.8386 149.716 41.3997 150.096 41.8217C150.478 42.2438 150.964 42.5446 151.558 42.7241C152.15 42.9035 152.859 42.9945 153.683 42.9945H156.545V40.0727H154.344C153.58 40.0727 153.033 39.9034 152.702 39.5597C152.37 39.2185 152.203 38.5967 152.203 37.6944V30.1676H156.608V30.1727Z" fill="#F8F6F3"/>
<path d="M160.662 28.2166C160.009 28.9597 159.683 30.1324 159.683 31.7399V42.9998H162.878V32.2226C162.878 30.8578 163.561 30.1754 164.928 30.1754H170.534V27.1045H163.994C162.425 27.102 161.315 27.4735 160.662 28.2166Z" fill="#F8F6F3"/>
<path d="M176.89 22.6787H173.669V25.6333H176.89V22.6787Z" fill="#F8F6F3"/>
<path d="M176.863 27.1021H173.667V42.9973H176.863V27.1021Z" fill="#F8F6F3"/>
<path d="M183.701 42.9998L189.429 36.8884L195.034 42.9998H199.102L191.537 35.0206L199.011 27.1021H195.034L189.548 32.852L184.275 27.1021H180.235L187.468 34.7198L179.724 42.9998H183.701Z" fill="#F8F6F3"/>
<path d="M198.614 0.543457H197.711V14.6493H198.614V0.543457Z" fill="#F8F6F3"/>
<path d="M198.604 14.6489H197.719V15.0584H1.64723V14.6489H0.749023V15.8621H198.612V15.0584H198.604V14.6489Z" fill="#F8F6F3"/>
<path d="M184.541 1.92139H183.641V9.83488H184.541V1.92139Z" fill="#F8F6F3"/>
<path d="M184.542 9.83984H183.636V10.6512H184.542V9.83984Z" fill="#F8F6F3"/>
<path d="M191.576 6.02783H190.675V9.83672H191.576V6.02783Z" fill="#F8F6F3"/>
<path d="M191.581 9.83984H190.675V10.6512H191.581V9.83984Z" fill="#F8F6F3"/>
<path d="M170.474 9.83984H169.568V10.6512H170.474V9.83984Z" fill="#F8F6F3"/>
<path d="M170.476 0.543457H169.573V9.83443H170.476V0.543457Z" fill="#F8F6F3"/>
<path d="M177.515 9.83984H176.609V10.6512H177.515V9.83984Z" fill="#F8F6F3"/>
<path d="M177.51 6.02783H176.606V9.83672H177.51V6.02783Z" fill="#F8F6F3"/>
<path d="M156.409 9.83984H155.503V10.6512H156.409V9.83984Z" fill="#F8F6F3"/>
<path d="M156.406 1.92139H155.503V9.83488H156.406V1.92139Z" fill="#F8F6F3"/>
<path d="M163.435 9.83984H162.544V10.6512H163.435V9.83984Z" fill="#F8F6F3"/>
<path d="M163.442 6.02783H162.539V9.83672H163.442V6.02783Z" fill="#F8F6F3"/>
<path d="M142.339 0.543457H141.436V9.83443H142.339V0.543457Z" fill="#F8F6F3"/>
<path d="M142.343 9.83984H141.438V10.6512H142.343V9.83984Z" fill="#F8F6F3"/>
<path d="M149.367 9.83984H148.477V10.6512H149.367V9.83984Z" fill="#F8F6F3"/>
<path d="M149.372 6.02783H148.472V9.83672H149.372V6.02783Z" fill="#F8F6F3"/>
<path d="M128.276 9.83984H127.37V10.6512H128.276V9.83984Z" fill="#F8F6F3"/>
<path d="M128.268 1.92139H127.367V9.83488H128.268V1.92139Z" fill="#F8F6F3"/>
<path d="M135.302 6.02783H134.401V9.83672H135.302V6.02783Z" fill="#F8F6F3"/>
<path d="M135.302 9.83984H134.396V10.6512H135.302V9.83984Z" fill="#F8F6F3"/>
<path d="M114.195 9.83984H113.305V10.6512H114.195V9.83984Z" fill="#F8F6F3"/>
<path d="M114.198 0.543457H113.297V9.83443H114.198V0.543457Z" fill="#F8F6F3"/>
<path d="M121.237 9.83984H120.331V10.6512H121.237V9.83984Z" fill="#F8F6F3"/>
<path d="M121.237 6.02783H120.334V9.83672H121.237V6.02783Z" fill="#F8F6F3"/>
<path d="M100.127 9.83984H99.2217V10.6512H100.127V9.83984Z" fill="#F8F6F3"/>
<path d="M100.133 1.92139H99.2295V9.83488H100.133V1.92139Z" fill="#F8F6F3"/>
<path d="M107.166 6.02783H106.266V9.83672H107.166V6.02783Z" fill="#F8F6F3"/>
<path d="M107.169 9.83984H106.264V10.6512H107.169V9.83984Z" fill="#F8F6F3"/>
<path d="M86.063 9.83984H85.1572V10.6512H86.063V9.83984Z" fill="#F8F6F3"/>
<path d="M86.0654 0.543457H85.1621V9.83696H86.0654V0.543457Z" fill="#F8F6F3"/>
<path d="M93.104 9.83984H92.1982V10.6512H93.104V9.83984Z" fill="#F8F6F3"/>
<path d="M93.0986 6.02783H92.1953V9.83672H93.0986V6.02783Z" fill="#F8F6F3"/>
<path d="M71.9976 9.83984H71.0918V10.6512H71.9976V9.83984Z" fill="#F8F6F3"/>
<path d="M71.9951 1.92139H71.0918V9.83488H71.9951V1.92139Z" fill="#F8F6F3"/>
<path d="M79.0234 9.83984H78.1328V10.6512H79.0234V9.83984Z" fill="#F8F6F3"/>
<path d="M79.0287 6.02783H78.1279V9.83672H79.0287V6.02783Z" fill="#F8F6F3"/>
<path d="M57.9277 0.543457H57.0244V9.83443H57.9277V0.543457Z" fill="#F8F6F3"/>
<path d="M57.9302 9.83984H57.0244V10.6512H57.9302V9.83984Z" fill="#F8F6F3"/>
<path d="M64.9609 6.02783H64.0576V9.83672H64.9609V6.02783Z" fill="#F8F6F3"/>
<path d="M64.956 9.83984H64.0654V10.6512H64.956V9.83984Z" fill="#F8F6F3"/>
<path d="M43.8648 9.83984H42.959V10.6512H43.8648V9.83984Z" fill="#F8F6F3"/>
<path d="M43.8593 1.92139H42.9561V9.83488H43.8593V1.92139Z" fill="#F8F6F3"/>
<path d="M50.891 6.02783H49.9902V9.83672H50.891V6.02783Z" fill="#F8F6F3"/>
<path d="M50.8911 9.83984H49.9854V10.6512H50.8911V9.83984Z" fill="#F8F6F3"/>
<path d="M29.79 0.543457H28.8867V9.83443H29.79V0.543457Z" fill="#F8F6F3"/>
<path d="M29.7842 9.83984H28.8936V10.6512H29.7842V9.83984Z" fill="#F8F6F3"/>
<path d="M36.8238 9.83984H35.918V10.6512H36.8238V9.83984Z" fill="#F8F6F3"/>
<path d="M36.8232 6.02783H35.9199V9.83672H36.8232V6.02783Z" fill="#F8F6F3"/>
<path d="M15.7216 1.92139H14.8184V9.83488H15.7216V1.92139Z" fill="#F8F6F3"/>
<path d="M15.7173 9.83984H14.8115V10.6512H15.7173V9.83984Z" fill="#F8F6F3"/>
<path d="M22.7533 6.02783H21.8525V9.83672H22.7533V6.02783Z" fill="#F8F6F3"/>
<path d="M22.7583 9.83984H21.8525V10.6512H22.7583V9.83984Z" fill="#F8F6F3"/>
<path d="M1.65229 0.543457H0.749023V14.6493H1.65229V0.543457Z" fill="#F8F6F3"/>
<path d="M8.68842 6.02783H7.78516V9.83672H8.68842V6.02783Z" fill="#F8F6F3"/>
<path d="M8.69291 9.83984H7.78711V10.6512H8.69291V9.83984Z" fill="#F8F6F3"/>
</svg>
