<svg width="52" height="52" viewBox="0 0 52 52" fill="none" xmlns="http://www.w3.org/2000/svg">
<path fill-rule="evenodd" clip-rule="evenodd" d="M25.9565 6.88296C15.383 6.88296 6.81151 15.4545 6.81151 26.0279C6.81151 36.6014 15.383 45.1729 25.9565 45.1729C36.5299 45.1729 45.1014 36.6014 45.1014 26.0279C45.1014 15.4545 36.53 6.88296 25.9565 6.88296ZM25.9565 0.394533C11.7995 0.394532 0.323082 11.871 0.32308 26.0279C0.323079 40.1849 11.7995 51.6613 25.9565 51.6613C40.1134 51.6613 51.5899 40.1849 51.5899 26.0279C51.5899 11.871 40.1134 0.394534 25.9565 0.394533ZM26.35 26.0279L34.739 34.417L30.151 39.005L21.7619 30.6159L17.1739 26.0279L21.7619 21.4399L30.151 13.0509L34.739 17.6389L26.35 26.0279Z" fill="white"/>
</svg>
