<svg width="101" height="100" viewBox="0 0 101 100" fill="none" xmlns="http://www.w3.org/2000/svg">
<path d="M51 19H50C32.8792 19 19 32.8792 19 50C19 67.1208 32.8792 81 50 81H51C68.1208 81 82 67.1208 82 50C82 32.8792 68.1208 19 51 19Z" fill="white"/>
<path fill-rule="evenodd" clip-rule="evenodd" d="M45.558 35.3742C45.4376 35.4234 45.2598 35.5553 45.1626 35.6673C45.0155 35.837 42.3547 40.0393 36.0544 50.0517C35.5259 50.8916 34.0144 53.2928 32.6956 55.3877C31.2999 57.6048 30.2978 59.3058 30.2978 59.4581C30.2978 59.7667 30.4828 60.143 30.7259 60.3291C30.8529 60.4263 31.737 60.4625 34.0172 60.464L37.1348 60.466L37.8732 59.2787C38.2794 58.6257 38.6116 58.0618 38.6116 58.0257C38.6116 57.9896 37.6025 57.9601 36.3691 57.9601C35.1357 57.9601 34.1265 57.9363 34.1265 57.9072C34.1265 57.8604 38.7359 50.5167 41.1796 46.6701C41.675 45.8902 42.882 43.9758 43.8619 42.416C44.8417 40.8561 45.7038 39.4923 45.7776 39.3854C45.8958 39.214 46.0476 39.4062 47.0477 40.9938C47.6723 41.9854 48.208 42.7952 48.2381 42.7934C48.3021 42.7894 49.5138 40.8391 49.6138 40.5794C49.6581 40.4643 49.142 39.5523 48.1271 37.9526C46.849 35.9377 46.5135 35.4815 46.2404 35.3866C45.86 35.2544 45.852 35.2542 45.558 35.3742ZM54.0905 35.3719C53.9702 35.4223 53.7907 35.5553 53.6916 35.6673C53.4919 35.893 50.6447 40.3919 50.6447 40.4816C50.6447 40.5589 51.8526 42.4913 52.0088 42.664C52.1068 42.7723 52.3435 42.4719 53.0831 41.3005C53.6049 40.4741 54.1257 39.6577 54.2407 39.4863L54.4495 39.1744L54.9046 39.9226C55.1549 40.334 55.549 40.9652 55.7806 41.3252C56.0121 41.6851 58.4668 45.5753 61.2355 49.9699L66.2694 57.9601H63.9814C62.7229 57.9601 61.6932 57.9824 61.6932 58.0098C61.6932 58.0371 62.0285 58.5894 62.4384 59.237L63.1836 60.4144L66.3251 60.4433L69.4666 60.4723L69.7368 60.2029C70.3646 59.5769 70.6151 60.0192 61.4225 45.5248C60.8707 44.6549 59.2958 42.1514 57.9226 39.9616C56.5494 37.7718 55.2978 35.8482 55.1411 35.6867C54.8207 35.3567 54.4163 35.2355 54.0905 35.3719ZM49.8203 41.7325C49.6517 41.9865 48.5703 43.6922 47.4172 45.523C46.2641 47.3539 44.5928 50.0053 43.7031 51.4152C42.8134 52.8251 42.0617 54.04 42.0325 54.115C41.9903 54.2232 43.3676 54.2513 48.6979 54.2513H55.4166L56.567 56.0784L57.7176 57.9055L48.6364 57.9601L39.5551 58.0146L38.8098 59.192C38.4 59.8397 38.0646 60.3919 38.0646 60.4192C38.0646 60.4466 43.5253 60.4689 50.1993 60.4689H62.3341L60.1199 56.9511C58.902 55.0162 57.6626 53.0533 57.3655 52.5889L56.8254 51.7445L51.6737 51.7163L46.5221 51.6879L48.2906 48.8801C49.2633 47.3359 50.0862 46.0452 50.1195 46.0121C50.1529 45.9789 50.634 46.6657 51.1887 47.5381L52.1973 49.1245H53.6726C54.4841 49.1245 55.1316 49.0841 55.1115 49.0348C55.011 48.7876 50.2523 41.2772 50.1943 41.2741C50.1571 41.2721 49.9889 41.4784 49.8203 41.7325Z" fill="black"/>
</svg>
