<svg width="40" height="26" viewBox="0 0 40 26" fill="none" xmlns="http://www.w3.org/2000/svg">
<path fill-rule="evenodd" clip-rule="evenodd" d="M15.5581 0.3742C15.4377 0.4234 15.2599 0.555302 15.1627 0.667302C15.0156 0.837002 12.3548 5.0393 6.05445 15.0517C5.52595 15.8916 4.01445 18.2928 2.69565 20.3877C1.29995 22.6048 0.297852 24.3058 0.297852 24.4581C0.297852 24.7667 0.482852 25.143 0.725952 25.3291C0.852952 25.4263 1.73705 25.4625 4.01725 25.464L7.13485 25.466L7.87325 24.2787C8.27945 23.6257 8.61165 23.0618 8.61165 23.0257C8.61165 22.9896 7.60255 22.9601 6.36915 22.9601C5.13575 22.9601 4.12655 22.9363 4.12655 22.9072C4.12655 22.8604 8.73595 15.5167 11.1797 11.6701C11.6751 10.8902 12.8821 8.9758 13.862 7.416C14.8418 5.8561 15.7039 4.4923 15.7777 4.3854C15.8959 4.214 16.0477 4.4062 17.0478 5.9938C17.6724 6.9854 18.208 7.7952 18.2381 7.7934C18.3021 7.7894 19.5139 5.8391 19.6139 5.5794C19.6582 5.4643 19.1421 4.5523 18.1272 2.9526C16.8491 0.9377 16.5135 0.481501 16.2404 0.386601C15.86 0.254401 15.8521 0.2542 15.5581 0.3742ZM24.0906 0.3719C23.9703 0.4223 23.7908 0.555302 23.6917 0.667302C23.492 0.893002 20.6448 5.3919 20.6448 5.4816C20.6448 5.5589 21.8527 7.4913 22.0089 7.664C22.1069 7.7723 22.3436 7.4719 23.0832 6.3005C23.605 5.4741 24.1258 4.6577 24.2408 4.4863L24.4496 4.1744L24.9046 4.9226C25.1549 5.334 25.5491 5.9652 25.7807 6.3252C26.0122 6.6851 28.4669 10.5753 31.2356 14.9699L36.2695 22.9601H33.9815C32.723 22.9601 31.6933 22.9824 31.6933 23.0098C31.6933 23.0371 32.0286 23.5894 32.4385 24.237L33.1837 25.4144L36.3252 25.4433L39.4667 25.4723L39.7369 25.2029C40.3647 24.5769 40.6152 25.0192 31.4226 10.5248C30.8708 9.6549 29.2959 7.1514 27.9227 4.9616C26.5495 2.7718 25.2979 0.8482 25.1412 0.6867C24.8208 0.3567 24.4164 0.2355 24.0906 0.3719ZM19.8204 6.7325C19.6518 6.9865 18.5703 8.6922 17.4172 10.523C16.2641 12.3539 14.5928 15.0053 13.7031 16.4152C12.8134 17.8251 12.0618 19.04 12.0326 19.115C11.9904 19.2232 13.3677 19.2513 18.698 19.2513H25.4167L26.5671 21.0784L27.7177 22.9055L18.6364 22.9601L9.55515 23.0146L8.80985 24.192C8.40005 24.8397 8.06465 25.3919 8.06465 25.4192C8.06465 25.4466 13.5254 25.4689 20.1994 25.4689H32.3342L30.12 21.9511C28.9021 20.0162 27.6627 18.0533 27.3656 17.5889L26.8255 16.7445L21.6737 16.7163L16.5222 16.6879L18.2907 13.8801C19.2634 12.3359 20.0863 11.0452 20.1196 11.0121C20.153 10.9789 20.6341 11.6657 21.1888 12.5381L22.1974 14.1245H23.6727C24.4842 14.1245 25.1317 14.0841 25.1116 14.0348C25.0111 13.7876 20.2524 6.2772 20.1944 6.2741C20.1572 6.2721 19.989 6.4784 19.8204 6.7325Z" fill="black"/>
</svg>
