<svg width="36" height="36" viewBox="0 0 36 36" fill="none" xmlns="http://www.w3.org/2000/svg">
<circle cx="18" cy="18" r="18" fill="#2741CC"/>
<path fill-rule="evenodd" clip-rule="evenodd" d="M9.81818 13.0909C9.81818 12.639 10.1845 12.2727 10.6364 12.2727H25.3636C25.8155 12.2727 26.1818 12.639 26.1818 13.0909C26.1818 13.5428 25.8155 13.9091 25.3636 13.9091H10.6364C10.1845 13.9091 9.81818 13.5428 9.81818 13.0909Z" fill="white"/>
<path fill-rule="evenodd" clip-rule="evenodd" d="M16.3636 10.6364C16.1466 10.6364 15.9385 10.7226 15.7851 10.876C15.6317 11.0294 15.5455 11.2376 15.5455 11.4545V12.2727H20.4545V11.4545C20.4545 11.2376 20.3683 11.0294 20.2149 10.876C20.0615 10.7226 19.8534 10.6364 19.6364 10.6364H16.3636ZM22.0909 12.2727V11.4545C22.0909 10.8036 21.8323 10.1792 21.372 9.71892C20.9117 9.2586 20.2873 9 19.6364 9H16.3636C15.7126 9 15.0883 9.2586 14.628 9.71892C14.1677 10.1792 13.9091 10.8036 13.9091 11.4545V12.2727H12.2727C11.8209 12.2727 11.4545 12.639 11.4545 13.0909V24.5455C11.4545 25.1964 11.7131 25.8208 12.1735 26.2811C12.6338 26.7414 13.2581 27 13.9091 27H22.0909C22.7419 27 23.3662 26.7414 23.8265 26.2811C24.2868 25.8208 24.5455 25.1964 24.5455 24.5455V13.0909C24.5455 12.639 24.1791 12.2727 23.7273 12.2727H22.0909ZM13.0909 13.9091V24.5455C13.0909 24.7625 13.1771 24.9706 13.3305 25.124C13.484 25.2774 13.6921 25.3636 13.9091 25.3636H22.0909C22.3079 25.3636 22.516 25.2774 22.6694 25.124C22.8229 24.9706 22.9091 24.7624 22.9091 24.5455V13.9091H13.0909Z" fill="white"/>
<path fill-rule="evenodd" clip-rule="evenodd" d="M16.3636 16.3636C16.8155 16.3636 17.1818 16.73 17.1818 17.1818V22.0909C17.1818 22.5428 16.8155 22.9091 16.3636 22.9091C15.9118 22.9091 15.5455 22.5428 15.5455 22.0909V17.1818C15.5455 16.73 15.9118 16.3636 16.3636 16.3636Z" fill="white"/>
<path fill-rule="evenodd" clip-rule="evenodd" d="M19.6364 16.3636C20.0882 16.3636 20.4545 16.73 20.4545 17.1818V22.0909C20.4545 22.5428 20.0882 22.9091 19.6364 22.9091C19.1845 22.9091 18.8182 22.5428 18.8182 22.0909V17.1818C18.8182 16.73 19.1845 16.3636 19.6364 16.3636Z" fill="white"/>
</svg>
