<svg width="24" height="23" viewBox="0 0 24 23" fill="none" xmlns="http://www.w3.org/2000/svg">
<path d="M0.0136719 18.4225C0.0220831 20.8123 1.86694 22.6135 4.30339 22.6135C6.08937 22.63 7.57255 21.6868 8.27629 20.1055L8.49218 19.616H7.28096L7.18563 19.8168C6.66975 20.903 5.59872 21.5493 4.32021 21.5493C3.08377 21.5575 1.36788 20.7078 1.1632 18.8048C1.85012 18.8048 8.56788 18.8048 8.56788 18.8048C8.56788 18.8048 8.61835 18.5188 8.60152 18.2328C8.49778 15.8513 6.66134 14.2178 4.32021 14.2178C1.86694 14.2233 0.0220831 16.0245 0.0136719 18.4225ZM4.32021 15.282H4.33704C5.77816 15.2243 7.1604 16.3683 7.42676 17.7488C6.75666 17.7488 1.87535 17.7488 1.19685 17.7488C1.47162 16.3188 2.75012 15.282 4.32021 15.282ZM0.0136719 18.4308V18.4143V18.4308Z" fill="white"/>
<path d="M15.4319 14.2812H14.8571C14.8571 14.2812 12.6085 19.4732 12.0842 20.686C11.5627 19.4732 9.32254 14.2812 9.32254 14.2812H8.19824L11.7422 22.4377H12.4291L15.9814 14.2812H15.4319Z" fill="white"/>
<path d="M15.3896 18.354C15.3896 20.7107 17.2766 22.5615 19.6878 22.5615C22.099 22.5615 23.9859 20.7107 23.9859 18.354C23.9859 15.989 22.099 14.1465 19.6878 14.1465C17.2766 14.1465 15.3896 15.9972 15.3896 18.354ZM16.4102 18.354C16.4102 16.5115 17.8177 15.1145 19.6878 15.1145C21.5579 15.1145 22.9653 16.5032 22.9653 18.354C22.9653 20.1965 21.5579 21.5852 19.6878 21.5852C17.8177 21.5962 16.4102 20.1992 16.4102 18.354Z" fill="white"/>
<path d="M13.8028 3.86977L15.0365 2.72577H13.1327L12.0673 0.61377L11.0047 2.72577H9.10938L10.343 3.86977H13.8028Z" fill="white"/>
<path d="M23.2486 10.2939H0.759766V11.2207H23.2486V10.2939Z" fill="white"/>
<path d="M10.918 4.95605C10.9096 6.74905 9.57223 8.1048 7.96569 8.16255H0.810547V9.14705L7.96569 9.1388C10.119 9.0728 11.9302 7.2633 11.947 4.95605H10.918Z" fill="white"/>
<path d="M16.5055 8.16255C14.7111 8.09655 13.3821 6.7408 13.3653 4.95605H12.3447C12.3531 7.2633 14.1728 9.0728 16.5055 9.1388L23.1644 9.14705V8.16255H16.5055Z" fill="white"/>
</svg>
