<svg width="31" height="31" viewBox="0 0 31 31" fill="none" xmlns="http://www.w3.org/2000/svg">
<path d="M5.32682 20.2354L10.8495 25.7581L3.27186 27.6846L5.32682 20.2354Z" fill="black"/>
<rect x="17.2714" y="15.7402" width="13.4409" height="2.54288" transform="rotate(135 17.2714 15.7402)" fill="black"/>
<path d="M10.8514 5.50653L5.32867 11.0292L3.40215 3.45158L10.8514 5.50653Z" fill="black"/>
<rect x="15.3451" y="17.4509" width="13.4409" height="2.54288" transform="rotate(-135 15.3451 17.4509)" fill="black"/>
<path d="M25.5777 11.3925L20.055 5.86981L27.6326 3.94329L25.5777 11.3925Z" fill="black"/>
<rect x="13.633" y="15.8877" width="13.4409" height="2.54288" transform="rotate(-45 13.633 15.8877)" fill="black"/>
<path d="M20.0562 26.1216L25.5789 20.5989L27.5055 28.1765L20.0562 26.1216Z" fill="black"/>
<rect x="15.5625" y="14.1771" width="13.4409" height="2.54288" transform="rotate(45 15.5625 14.1771)" fill="black"/>
</svg>
