<svg width="18" height="19" viewBox="0 0 18 19" fill="none" xmlns="http://www.w3.org/2000/svg">
<path d="M17.6491 9.5C17.6491 14.2768 13.7768 18.1491 9 18.1491C4.22321 18.1491 0.350864 14.2768 0.350864 9.5C0.350864 4.72321 4.22321 0.850864 9 0.850864C13.7768 0.850864 17.6491 4.72321 17.6491 9.5Z" stroke="white" stroke-width="0.701728"/>
<path d="M9.67738 4.32336L9.51538 11.687H8.39611L8.23411 4.32336H9.67738ZM9.01465 14.6766C8.75938 14.6766 8.54338 14.5883 8.36665 14.4115C8.18993 14.2348 8.10156 14.0188 8.10156 13.7635C8.10156 13.5083 8.18993 13.2923 8.36665 13.1155C8.54338 12.9388 8.75938 12.8505 9.01465 12.8505C9.26011 12.8505 9.46629 12.9388 9.6332 13.1155C9.80993 13.2923 9.89829 13.5083 9.89829 13.7635C9.89829 14.0188 9.80993 14.2348 9.6332 14.4115C9.46629 14.5883 9.26011 14.6766 9.01465 14.6766Z" fill="white"/>
</svg>
