<svg width="19" height="20" viewBox="0 0 19 20" fill="none" xmlns="http://www.w3.org/2000/svg">
<g clip-path="url(#clip0)">
<path d="M14.1364 0.468775L11.7226 0.464844C9.01084 0.464844 7.25834 2.2898 7.25834 5.1144L7.25834 7.25816L4.83139 7.25816C4.62167 7.25816 4.45184 7.43073 4.45184 7.64359L4.45184 10.7496C4.45184 10.9625 4.62186 11.1349 4.83139 11.1349L7.25834 11.1349L7.25834 18.9725C7.25834 19.1853 7.42817 19.3577 7.63789 19.3577L10.8044 19.3577C11.0141 19.3577 11.1839 19.1851 11.1839 18.9725L11.1839 11.1349L14.0216 11.1349C14.2313 11.1349 14.4011 10.9625 14.4011 10.7496L14.4023 7.64359C14.4023 7.54138 14.3622 7.4435 14.2912 7.37117C14.2201 7.29884 14.1233 7.25816 14.0226 7.25816L11.1839 7.25816L11.1839 5.44087C11.1839 4.56741 11.389 4.12399 12.51 4.12399L14.136 4.1234C14.3456 4.1234 14.5154 3.95083 14.5154 3.73817L14.5154 0.85401C14.5154 0.641541 14.3458 0.469168 14.1364 0.468775Z" fill="#2741CC"/>
</g>
<defs>
<clipPath id="clip0">
<rect width="18.614" height="18.8929" fill="white" transform="translate(0.176758 0.464844)"/>
</clipPath>
</defs>
</svg>
