<svg width="101" height="100" viewBox="0 0 101 100" fill="none" xmlns="http://www.w3.org/2000/svg">
<g filter="url(#filter0_d)">
<path d="M51 19H50C32.8792 19 19 32.8792 19 50C19 67.1208 32.8792 81 50 81H51C68.1208 81 82 67.1208 82 50C82 32.8792 68.1208 19 51 19Z" fill="#47D5D5"/>
</g>
<path d="M41.25 61.25L35.75 61.25L35.75 55.75L41.25 55.75L41.25 61.25Z" stroke="white" stroke-width="1.5"/>
<path d="M48.25 61.25L41.75 61.25L41.75 49.75L48.25 49.75L48.25 61.25Z" stroke="white" stroke-width="1.5"/>
<path d="M55.25 61.25L48.75 61.25L48.75 41.75L55.25 41.75L55.25 61.25Z" stroke="white" stroke-width="1.5"/>
<path d="M62.25 61.25L55.75 61.25L55.75 36.75L62.25 36.75L62.25 61.25Z" stroke="white" stroke-width="1.5"/>
<defs>
<filter id="filter0_d" x="0" y="0" width="101" height="100" filterUnits="userSpaceOnUse" color-interpolation-filters="sRGB">
<feFlood flood-opacity="0" result="BackgroundImageFix"/>
<feColorMatrix in="SourceAlpha" type="matrix" values="0 0 0 0 0 0 0 0 0 0 0 0 0 0 0 0 0 0 127 0"/>
<feOffset/>
<feGaussianBlur stdDeviation="9.5"/>
<feColorMatrix type="matrix" values="0 0 0 0 0 0 0 0 0 0 0 0 0 0 0 0 0 0 0.12 0"/>
<feBlend mode="normal" in2="BackgroundImageFix" result="effect1_dropShadow"/>
<feBlend mode="normal" in="SourceGraphic" in2="effect1_dropShadow" result="shape"/>
</filter>
</defs>
</svg>
