<svg width="1920" height="978" viewBox="0 0 1920 978" fill="none" xmlns="http://www.w3.org/2000/svg">
<g clip-path="url(#clip0_1704:11685)">
<g opacity="0.3">
<rect x="60.0117" y="0.998047" width="0.5" height="977" fill="white"/>
<rect x="120.512" y="0.998047" width="0.5" height="977" fill="white"/>
<rect x="181.012" y="0.998047" width="0.5" height="977" fill="white"/>
<rect x="241.512" y="0.998047" width="0.5" height="977" fill="white"/>
<rect x="302.012" y="0.998047" width="0.5" height="977" fill="white"/>
<rect x="362.512" y="0.998047" width="0.5" height="977" fill="white"/>
<rect x="423.012" y="0.998047" width="0.5" height="977" fill="white"/>
<rect x="483.512" y="0.998047" width="0.5" height="977" fill="white"/>
<rect x="544.012" y="0.998047" width="0.5" height="977" fill="white"/>
<rect x="604.512" y="0.998047" width="0.5" height="977" fill="white"/>
<rect x="665.012" y="0.998047" width="0.5" height="977" fill="white"/>
<rect x="725.512" y="0.998047" width="0.5" height="977" fill="white"/>
<rect x="786.012" y="0.998047" width="0.5" height="977" fill="white"/>
<rect x="846.512" y="0.998047" width="0.5" height="977" fill="white"/>
<rect x="907.012" y="0.998047" width="0.5" height="977" fill="white"/>
<rect x="967.512" y="0.998047" width="0.5" height="977" fill="white"/>
<rect x="1028.01" y="0.998047" width="0.5" height="977" fill="white"/>
<rect x="1088.51" y="0.998047" width="0.5" height="977" fill="white"/>
<rect x="1149.01" y="0.998047" width="0.5" height="977" fill="white"/>
<rect x="1209.51" y="0.998047" width="0.5" height="977" fill="white"/>
<rect x="1270.01" y="0.998047" width="0.5" height="977" fill="white"/>
<rect x="1330.51" y="0.998047" width="0.5" height="977" fill="white"/>
<rect x="1391.01" y="0.998047" width="0.5" height="977" fill="white"/>
<rect x="1451.51" y="0.998047" width="0.5" height="977" fill="white"/>
<rect x="1512.01" y="0.998047" width="0.5" height="977" fill="white"/>
<rect x="1572.51" y="0.998047" width="0.5" height="977" fill="white"/>
<rect x="1633.01" y="0.998047" width="0.5" height="977" fill="white"/>
<rect x="1693.51" y="0.998047" width="0.5" height="977" fill="white"/>
<rect x="1754.01" y="0.998047" width="0.5" height="977" fill="white"/>
<rect x="1814.51" y="0.998047" width="0.5" height="977" fill="white"/>
<rect x="1875.01" y="0.998047" width="0.5" height="977" fill="white"/>
<rect y="1.85687" width="0.5" height="1970.55" transform="rotate(-90 0 1.85687)" fill="white"/>
<rect y="62.5298" width="0.672725" height="2037.05" transform="rotate(-90 0 62.5298)" fill="white"/>
<rect y="123.03" width="0.5" height="1970.55" transform="rotate(-90 0 123.03)" fill="white"/>
<rect y="183.53" width="0.5" height="1970.55" transform="rotate(-90 0 183.53)" fill="white"/>
<rect y="244.03" width="0.5" height="1970.55" transform="rotate(-90 0 244.03)" fill="white"/>
<rect y="304.53" width="0.5" height="1970.55" transform="rotate(-90 0 304.53)" fill="white"/>
<rect y="365.031" width="0.5" height="1970.55" transform="rotate(-90 0 365.031)" fill="white"/>
<rect y="425.531" width="0.5" height="1970.55" transform="rotate(-90 0 425.531)" fill="white"/>
<rect y="486.031" width="0.5" height="1970.55" transform="rotate(-90 0 486.031)" fill="white"/>
<rect y="546.531" width="0.5" height="1970.55" transform="rotate(-90 0 546.531)" fill="white"/>
<rect y="607.031" width="0.5" height="1970.55" transform="rotate(-90 0 607.031)" fill="white"/>
<rect y="667.532" width="0.5" height="1970.55" transform="rotate(-90 0 667.532)" fill="white"/>
<rect y="728.032" width="0.5" height="1970.55" transform="rotate(-90 0 728.032)" fill="white"/>
<rect y="788.532" width="0.5" height="1970.55" transform="rotate(-90 0 788.532)" fill="white"/>
<rect y="849.032" width="0.5" height="1970.55" transform="rotate(-90 0 849.032)" fill="white"/>
<rect y="909.532" width="0.5" height="1970.55" transform="rotate(-90 0 909.532)" fill="white"/>
<rect y="970.032" width="0.5" height="1970.55" transform="rotate(-90 0 970.032)" fill="white"/>
</g>
</g>
<defs>
<clipPath id="clip0_1704:11685">
<rect width="1920" height="977" fill="white" transform="translate(0 0.998047)"/>
</clipPath>
</defs>
</svg>
