<svg width="19" height="20" viewBox="0 0 19 20" fill="none" xmlns="http://www.w3.org/2000/svg">
<g clip-path="url(#clip0)">
<path d="M18.5962 6.01939C18.5526 5.01554 18.3927 4.32541 18.1636 3.72739C17.9272 3.09261 17.5636 2.5243 17.0872 2.05186C16.6217 1.57206 16.0581 1.19924 15.4399 0.963092C14.8473 0.730547 14.1709 0.568213 13.1819 0.523953C12.1855 0.475945 11.8692 0.464844 9.34196 0.464844C6.81477 0.464844 6.49845 0.475945 5.50572 0.520205C4.51669 0.564465 3.83674 0.726943 3.2477 0.959344C2.62215 1.19924 2.06223 1.56831 1.59676 2.05186C1.12405 2.5243 0.756871 3.09636 0.524066 3.72379C0.294954 4.32541 0.135016 5.01179 0.0914093 6.01564C0.0441097 7.02699 0.0331726 7.34806 0.0331725 9.91311C0.0331725 12.4782 0.0441097 12.7992 0.0877162 13.8068C0.131323 14.8107 0.291403 15.5008 0.520515 16.0988C0.756871 16.7336 1.12405 17.3019 1.59676 17.7744C2.06223 18.2542 2.62584 18.627 3.24401 18.8631C3.83674 19.0957 4.513 19.258 5.50217 19.3023C6.49476 19.3467 6.81122 19.3576 9.33841 19.3576C11.8656 19.3576 12.1819 19.3467 13.1747 19.3023C14.1637 19.258 14.8436 19.0957 15.4327 18.8631C16.6836 18.3722 17.6727 17.3684 18.1563 16.0988C18.3853 15.4972 18.5454 14.8107 18.589 13.8068C18.6326 12.7992 18.6435 12.4782 18.6435 9.91311C18.6435 7.34806 18.6398 7.02699 18.5962 6.01939ZM16.92 13.733C16.8799 14.6557 16.7272 15.154 16.6 15.4861C16.2872 16.3092 15.6436 16.9624 14.8327 17.2799C14.5054 17.409 14.011 17.564 13.1055 17.6045C12.1237 17.6489 11.8292 17.6599 9.34566 17.6599C6.86207 17.6599 6.56393 17.6489 5.58569 17.6045C4.67663 17.564 4.18574 17.409 3.85848 17.2799C3.45494 17.1285 3.08762 16.8886 2.78948 16.5749C2.48039 16.2685 2.24404 15.8994 2.0949 15.4899C1.96763 15.1577 1.81493 14.6557 1.77502 13.7368C1.73127 12.7403 1.72048 12.4413 1.72048 9.92047C1.72048 7.39967 1.73127 7.09706 1.77502 6.10431C1.81493 5.18163 1.96763 4.68338 2.0949 4.35121C2.24404 3.94148 2.4804 3.56881 2.79317 3.26605C3.09486 2.95234 3.45849 2.71244 3.86217 2.56121C4.18943 2.43203 4.68402 2.27705 5.58939 2.23639C6.57117 2.19213 6.86577 2.18103 9.34921 2.18103C11.8365 2.18103 12.1309 2.19213 13.1092 2.23639C14.0182 2.27705 14.5091 2.43203 14.8364 2.56121C15.2399 2.71244 15.6072 2.95234 15.9054 3.26605C16.2145 3.57241 16.4508 3.94148 16.6 4.35121C16.7272 4.68338 16.8799 5.18523 16.92 6.10431C16.9636 7.10081 16.9745 7.39967 16.9745 9.92047C16.9745 12.4413 16.9636 12.7365 16.92 13.733Z" fill="white"/>
<path d="M9.34151 5.05957C6.70168 5.05957 4.55984 7.23335 4.55984 9.91288C4.55984 12.5924 6.70168 14.7662 9.34151 14.7662C11.9815 14.7662 14.1232 12.5924 14.1232 9.91288C14.1232 7.23335 11.9815 5.05957 9.34151 5.05957ZM9.34151 13.0611C7.62892 13.0611 6.23976 11.6513 6.23976 9.91288C6.23976 8.17449 7.62892 6.76466 9.34151 6.76466C11.0542 6.76466 12.4433 8.17449 12.4433 9.91288C12.4433 11.6513 11.0542 13.0611 9.34151 13.0611Z" fill="white"/>
<path d="M15.4287 4.86789C15.4287 5.49358 14.9289 6.00092 14.3123 6.00092C13.6958 6.00092 13.196 5.49358 13.196 4.86789C13.196 4.24205 13.6958 3.73486 14.3123 3.73486C14.9289 3.73486 15.4287 4.24205 15.4287 4.86789Z" fill="white"/>
</g>
<defs>
<clipPath id="clip0">
<rect width="18.614" height="18.8929" fill="white" transform="translate(0 0.464844)"/>
</clipPath>
</defs>
</svg>
