<svg width="19" height="20" viewBox="0 0 19 20" fill="none" xmlns="http://www.w3.org/2000/svg">
<g clip-path="url(#clip0)">
<path d="M18.5962 6.01939C18.5526 5.01554 18.3927 4.32541 18.1635 3.72739C17.9272 3.09261 17.5636 2.5243 17.0872 2.05186C16.6217 1.57206 16.0581 1.19924 15.4399 0.963092C14.8473 0.730547 14.1709 0.568213 13.1819 0.523953C12.1855 0.475945 11.8691 0.464844 9.34195 0.464844C6.81476 0.464844 6.49843 0.475945 5.50571 0.520205C4.51668 0.564465 3.83673 0.726943 3.24768 0.959344C2.62214 1.19924 2.06221 1.56831 1.59674 2.05186C1.12403 2.5243 0.756856 3.09636 0.524051 3.72379C0.294939 4.32541 0.135001 5.01179 0.0913941 6.01564C0.0440944 7.02699 0.0331573 7.34806 0.0331573 9.91311C0.0331573 12.4782 0.0440944 12.7992 0.087701 13.8068C0.131308 14.8107 0.291388 15.5008 0.5205 16.0988C0.756856 16.7336 1.12403 17.3019 1.59674 17.7744C2.06221 18.2542 2.62583 18.627 3.24399 18.8631C3.83673 19.0957 4.51299 19.258 5.50216 19.3023C6.49474 19.3467 6.81121 19.3576 9.3384 19.3576C11.8656 19.3576 12.1819 19.3467 13.1746 19.3023C14.1637 19.258 14.8436 19.0957 15.4327 18.8631C16.6836 18.3722 17.6726 17.3684 18.1563 16.0988C18.3853 15.4972 18.5453 14.8107 18.589 13.8068C18.6326 12.7992 18.6435 12.4782 18.6435 9.91311C18.6435 7.34806 18.6398 7.02699 18.5962 6.01939ZM16.92 13.733C16.8799 14.6557 16.7272 15.154 16.6 15.4861C16.2872 16.3092 15.6436 16.9624 14.8327 17.2799C14.5054 17.409 14.011 17.564 13.1055 17.6045C12.1237 17.6489 11.8292 17.6599 9.34564 17.6599C6.86206 17.6599 6.56391 17.6489 5.58568 17.6045C4.67662 17.564 4.18572 17.409 3.85846 17.2799C3.45492 17.1285 3.0876 16.8886 2.78946 16.5749C2.48038 16.2685 2.24402 15.8994 2.09488 15.4899C1.96761 15.1577 1.81492 14.6557 1.775 13.7368C1.73126 12.7403 1.72046 12.4413 1.72046 9.92047C1.72046 7.39967 1.73126 7.09706 1.775 6.10431C1.81492 5.18163 1.96761 4.68338 2.09488 4.35121C2.24402 3.94148 2.48038 3.56881 2.79315 3.26605C3.09485 2.95234 3.45847 2.71244 3.86215 2.56121C4.18942 2.43203 4.684 2.27705 5.58937 2.23639C6.57116 2.19213 6.86575 2.18103 9.34919 2.18103C11.8365 2.18103 12.1309 2.19213 13.1092 2.23639C14.0182 2.27705 14.5091 2.43203 14.8364 2.56121C15.2399 2.71244 15.6072 2.95234 15.9054 3.26605C16.2145 3.57241 16.4508 3.94148 16.6 4.35121C16.7272 4.68338 16.8799 5.18523 16.92 6.10431C16.9636 7.10081 16.9745 7.39967 16.9745 9.92047C16.9745 12.4413 16.9636 12.7365 16.92 13.733Z" fill="#2741CC"/>
<path d="M9.34153 5.05957C6.7017 5.05957 4.55986 7.23335 4.55986 9.91288C4.55986 12.5924 6.7017 14.7662 9.34153 14.7662C11.9815 14.7662 14.1232 12.5924 14.1232 9.91288C14.1232 7.23335 11.9815 5.05957 9.34153 5.05957ZM9.34153 13.0611C7.62894 13.0611 6.23978 11.6513 6.23978 9.91288C6.23978 8.17449 7.62894 6.76466 9.34153 6.76466C11.0543 6.76466 12.4433 8.17449 12.4433 9.91288C12.4433 11.6513 11.0543 13.0611 9.34153 13.0611Z" fill="#2741CC"/>
<path d="M15.4287 4.86789C15.4287 5.49358 14.9289 6.00092 14.3123 6.00092C13.6958 6.00092 13.196 5.49358 13.196 4.86789C13.196 4.24205 13.6958 3.73486 14.3123 3.73486C14.9289 3.73486 15.4287 4.24205 15.4287 4.86789Z" fill="#2741CC"/>
</g>
<defs>
<clipPath id="clip0">
<rect width="18.614" height="18.8929" fill="white" transform="translate(0 0.464844)"/>
</clipPath>
</defs>
</svg>
