<svg width="1920" height="1080" viewBox="0 0 1920 1080" fill="none" xmlns="http://www.w3.org/2000/svg">
<rect width="1920" height="1080" fill="black"/>
<g opacity="0.14">
<path d="M16 0V1080" stroke="white" stroke-dasharray="3 3"/>
<path d="M1905 0V1080" stroke="white" stroke-dasharray="3 3"/>
<path d="M156 0V1080" stroke="white" stroke-dasharray="3 3"/>
<path d="M175 0V1080" stroke="white" stroke-dasharray="3 3"/>
<path d="M315 0V1080" stroke="white" stroke-dasharray="3 3"/>
<path d="M334 0V1080" stroke="white" stroke-dasharray="3 3"/>
<path d="M474 0V1080" stroke="white" stroke-dasharray="3 3"/>
<path d="M493 0V1080" stroke="white" stroke-dasharray="3 3"/>
<path d="M633 0V1080" stroke="white" stroke-dasharray="3 3"/>
<path d="M652 0V1080" stroke="white" stroke-dasharray="3 3"/>
<path d="M792 0V1080" stroke="white" stroke-dasharray="3 3"/>
<path d="M811 0V1080" stroke="white" stroke-dasharray="3 3"/>
<path d="M951 0V1080" stroke="white" stroke-dasharray="3 3"/>
<path d="M970 0V1080" stroke="white" stroke-dasharray="3 3"/>
<path d="M1110 0V1080" stroke="white" stroke-dasharray="3 3"/>
<path d="M1129 0V1080" stroke="white" stroke-dasharray="3 3"/>
<path d="M1269 0V1080" stroke="white" stroke-dasharray="3 3"/>
<path d="M1288 0V1080" stroke="white" stroke-dasharray="3 3"/>
<path d="M1428 0V1080" stroke="white" stroke-dasharray="3 3"/>
<path d="M1447 0V1080" stroke="white" stroke-dasharray="3 3"/>
<path d="M1587 0V1080" stroke="white" stroke-dasharray="3 3"/>
<path d="M1606 0V1080" stroke="white" stroke-dasharray="3 3"/>
<path d="M1746 0V1080" stroke="white" stroke-dasharray="3 3"/>
<path d="M1765 0V1080" stroke="white" stroke-dasharray="3 3"/>
</g>
</svg>
