<svg width="20" height="21" viewBox="0 0 20 21" fill="none" xmlns="http://www.w3.org/2000/svg">
<path d="M3.38254 1.82178C2.0473 1.82178 1.17429 2.7117 1.17429 3.88139C1.17429 5.02524 2.02129 5.94055 3.33131 5.94055L3.35665 5.94055C4.71801 5.94055 5.56523 5.02524 5.56523 3.88139C5.53978 2.7117 4.71801 1.82178 3.38254 1.82178Z" fill="white"/>
<path d="M1.405 7.56787L5.30849 7.56787L5.30849 19.4876L1.405 19.4876L1.405 7.56787Z" fill="white"/>
<path d="M14.8897 7.28809C12.7839 7.28809 11.3718 9.29649 11.3718 9.29649L11.3718 7.56785L7.46823 7.56785L7.46823 19.4876L11.3716 19.4876L11.3716 12.8312C11.3716 12.4748 11.3971 12.119 11.5002 11.8642C11.7824 11.1526 12.4246 10.4154 13.503 10.4154C14.9154 10.4154 15.4804 11.5085 15.4804 13.1109L15.4804 19.4876L19.3835 19.4876L19.3835 12.653C19.3835 8.9918 17.4577 7.28809 14.8897 7.28809Z" fill="white"/>
</svg>
