<svg width="21" height="21" viewBox="0 0 21 21" fill="none" xmlns="http://www.w3.org/2000/svg">
<path fill-rule="evenodd" clip-rule="evenodd" d="M13.5435 4.42407C13.9341 4.03354 14.5672 4.03354 14.9578 4.42407L19.9578 9.42407C20.3483 9.81459 20.3483 10.4478 19.9578 10.8383L14.9578 15.8383C14.5672 16.2288 13.9341 16.2288 13.5435 15.8383C13.153 15.4478 13.153 14.8146 13.5435 14.4241L17.8364 10.1312L13.5435 5.83828C13.153 5.44775 13.153 4.81459 13.5435 4.42407Z" fill="black"/>
<path fill-rule="evenodd" clip-rule="evenodd" d="M3.25066 2.13117C2.98544 2.13117 2.73109 2.23653 2.54355 2.42407C2.35601 2.6116 2.25066 2.86596 2.25066 3.13117V17.1312C2.25066 17.3964 2.35601 17.6507 2.54355 17.8383C2.73109 18.0258 2.98544 18.1312 3.25066 18.1312H7.25066C7.80294 18.1312 8.25066 18.5789 8.25066 19.1312C8.25066 19.6835 7.80294 20.1312 7.25066 20.1312H3.25066C2.45501 20.1312 1.69194 19.8151 1.12934 19.2525C0.566727 18.6899 0.250656 17.9268 0.250656 17.1312V3.13117C0.250656 2.33552 0.566726 1.57246 1.12934 1.00985C1.69194 0.447242 2.45501 0.131172 3.25066 0.131172H7.25066C7.80294 0.131172 8.25066 0.578887 8.25066 1.13117C8.25066 1.68346 7.80294 2.13117 7.25066 2.13117H3.25066Z" fill="black"/>
<path fill-rule="evenodd" clip-rule="evenodd" d="M6.25066 10.1312C6.25066 9.57889 6.69837 9.13117 7.25066 9.13117H19.2507C19.8029 9.13117 20.2507 9.57889 20.2507 10.1312C20.2507 10.6835 19.8029 11.1312 19.2507 11.1312H7.25066C6.69837 11.1312 6.25066 10.6835 6.25066 10.1312Z" fill="black"/>
</svg>
