<svg width="130" height="82" viewBox="0 0 130 82" fill="none" xmlns="http://www.w3.org/2000/svg">
<path fill-rule="evenodd" clip-rule="evenodd" d="M49.9678 0.287914C49.5735 0.448095 48.9913 0.877529 48.6731 1.24217C48.1914 1.79466 39.479 15.4761 18.8493 48.0736C17.1187 50.808 12.1695 58.6256 7.85129 65.446C3.28124 72.6643 0 78.2022 0 78.6981C0 79.7028 0.605759 80.9279 1.40176 81.5338C1.8176 81.8502 4.71247 81.9681 12.1787 81.973L22.3869 81.9795L24.8047 78.114C26.1347 75.988 27.2225 74.1521 27.2225 74.0346C27.2225 73.9171 23.9183 73.821 19.8797 73.821C15.8411 73.821 12.5366 73.7435 12.5366 73.6488C12.5366 73.4964 27.6295 49.5875 35.6312 37.0641C37.2534 34.5249 41.2055 28.2922 44.4141 23.214C47.6223 18.1354 50.4452 13.6952 50.6868 13.3472C51.0738 12.7892 51.5709 13.4149 54.8456 18.5837C56.8908 21.8121 58.6445 24.4485 58.7431 24.4427C58.9526 24.4296 62.9205 18.08 63.248 17.2345C63.393 16.8598 61.7031 13.8906 58.3799 8.68243C54.195 2.12251 53.0961 0.637255 52.2019 0.328288C50.9563 -0.102117 50.9304 -0.102771 49.9678 0.287914ZM77.9063 0.280426C77.5124 0.444513 76.9247 0.877529 76.6002 1.24217C75.9463 1.97698 66.6235 16.6241 66.6235 16.9161C66.6235 17.1678 70.5786 23.4591 71.0901 24.0214C71.411 24.374 72.186 23.396 74.6077 19.5822C76.3163 16.8917 78.0216 14.2337 78.3982 13.6757L79.0819 12.6603L80.5717 15.0962C81.3913 16.4356 82.682 18.4906 83.4404 19.6626C84.1984 20.8344 92.236 33.4997 101.302 47.8073L117.785 73.821H110.293C106.172 73.821 102.8 73.8936 102.8 73.9828C102.8 74.0717 103.898 75.8698 105.24 77.9782L107.681 81.8115L117.967 81.9056L128.253 82L129.138 81.1229C131.194 79.0848 132.014 80.5248 101.914 33.3353C100.107 30.5032 94.9505 22.3525 90.4541 15.2231C85.9577 8.0938 81.8595 1.83112 81.3464 1.30532C80.2973 0.230939 78.9731 -0.163653 77.9063 0.280426ZM63.9241 20.9887C63.3721 21.8156 59.8308 27.3689 56.0551 33.3294C52.2795 39.2903 46.807 47.9225 43.8938 52.5127C40.9806 57.1029 38.5196 61.0583 38.424 61.3025C38.2858 61.6548 42.7956 61.7462 60.249 61.7462H82.2485L86.0153 67.6947L89.7828 73.6433L60.0473 73.821L30.3119 73.9985L27.8715 77.8317C26.5296 79.9404 25.4314 81.7382 25.4314 81.8271C25.4314 81.9163 43.3119 81.9889 65.1651 81.9889H104.899L97.6489 70.536C93.661 64.2365 89.6027 57.8459 88.6299 56.334L86.8614 53.5848L69.9925 53.493L53.1246 53.4006L58.9153 44.2592C62.1003 39.2317 64.7948 35.0296 64.9038 34.9218C65.0132 34.8137 66.5885 37.0497 68.4048 39.89L71.7073 45.0549H76.538C79.1951 45.0549 81.3153 44.9233 81.2495 44.7628C80.9204 43.958 65.3387 19.5064 65.1487 19.4963C65.0269 19.4898 64.4762 20.1614 63.9241 20.9887Z" fill="white"/>
</svg>
