<svg width="53" height="52" viewBox="0 0 53 52" fill="none" xmlns="http://www.w3.org/2000/svg">
<path fill-rule="evenodd" clip-rule="evenodd" d="M45.5295 26.1084C45.5295 36.6819 36.958 45.2534 26.3845 45.2534C15.8111 45.2534 7.23957 36.6819 7.23957 26.1084C7.23957 15.5349 15.8111 6.96344 26.3845 6.96344C36.958 6.96344 45.5295 15.5349 45.5295 26.1084ZM52.0179 26.1084C52.0179 40.2653 40.5415 51.7418 26.3845 51.7418C12.2276 51.7418 0.751137 40.2653 0.751137 26.1084C0.751137 11.9515 12.2276 0.475006 26.3845 0.475006C40.5415 0.475006 52.0179 11.9515 52.0179 26.1084ZM17.2084 22.5037V28.9922H35.5607V22.5037H17.2084Z" fill="black"/>
</svg>
