<svg width="607" height="392" viewBox="0 0 607 392" fill="none" xmlns="http://www.w3.org/2000/svg">
<g opacity="0.39">
<path d="M442.59 57.4095C405.572 20.384 356.35 0 304 0C251.65 0 202.428 20.384 165.41 57.4095C128.384 94.4276 108 143.65 108 196C108 248.35 128.384 297.572 165.41 334.59C202.428 371.616 251.65 392 304 392C356.35 392 405.572 371.616 442.59 334.59C479.616 297.572 500 248.35 500 196C500 143.65 479.616 94.4276 442.59 57.4095ZM426.903 318.903C394.071 351.735 350.426 369.811 304 369.811C257.574 369.811 213.929 351.735 181.097 318.903C148.265 286.071 130.189 242.426 130.189 196C130.189 149.574 148.265 105.929 181.097 73.0969C213.929 40.2651 257.574 22.1887 304 22.1887C350.426 22.1887 394.071 40.2651 426.903 73.0969C459.735 105.929 477.811 149.574 477.811 196C477.811 242.426 459.735 286.071 426.903 318.903Z" fill="#242128"/>
<path d="M310.627 142.725H244.704L261.908 99.4127C262.773 97.2308 260.37 95.1969 258.365 96.4173L167.525 151.711C165.949 152.666 165.964 154.951 167.54 155.898L255.244 208.44C257.211 209.624 259.578 207.679 258.802 205.519L244.268 164.914H310.62C323.482 164.914 333.94 175.372 333.94 188.234V334.48H356.129V188.234C356.136 163.139 335.722 142.725 310.627 142.725Z" fill="#242128"/>
<path d="M19.3217 185.667C19.3217 184.238 19.6439 182.957 20.2882 181.822C20.9326 180.674 21.808 179.777 22.9146 179.133C24.0352 178.488 25.2749 178.166 26.6336 178.166C28.2304 178.166 29.6241 178.551 30.8148 179.322C32.0054 180.092 32.8738 181.185 33.4201 182.6H31.1299C30.7237 181.717 30.1354 181.038 29.365 180.561C28.6086 180.085 27.6981 179.847 26.6336 179.847C25.611 179.847 24.6935 180.085 23.8811 180.561C23.0687 181.038 22.4314 181.717 21.9691 182.6C21.5069 183.468 21.2758 184.491 21.2758 185.667C21.2758 186.83 21.5069 187.852 21.9691 188.735C22.4314 189.603 23.0687 190.276 23.8811 190.752C24.6935 191.228 25.611 191.466 26.6336 191.466C27.6981 191.466 28.6086 191.235 29.365 190.773C30.1354 190.297 30.7237 189.617 31.1299 188.735H33.4201C32.8738 190.136 32.0054 191.221 30.8148 191.991C29.6241 192.748 28.2304 193.126 26.6336 193.126C25.2749 193.126 24.0352 192.811 22.9146 192.181C21.808 191.536 20.9326 190.647 20.2882 189.512C19.6439 188.378 19.3217 187.096 19.3217 185.667ZM60.3659 178.355V193H58.4539V186.361H50.995V193H49.083V178.355H50.995V184.785H58.4539V178.355H60.3659ZM83.0868 193.147C81.7281 193.147 80.4885 192.832 79.3679 192.202C78.2473 191.557 77.3578 190.668 76.6995 189.533C76.0551 188.385 75.733 187.096 75.733 185.667C75.733 184.238 76.0551 182.957 76.6995 181.822C77.3578 180.674 78.2473 179.784 79.3679 179.154C80.4885 178.509 81.7281 178.187 83.0868 178.187C84.4595 178.187 85.7062 178.509 86.8268 179.154C87.9474 179.784 88.8298 180.667 89.4742 181.801C90.1185 182.936 90.4407 184.224 90.4407 185.667C90.4407 187.11 90.1185 188.399 89.4742 189.533C88.8298 190.668 87.9474 191.557 86.8268 192.202C85.7062 192.832 84.4595 193.147 83.0868 193.147ZM83.0868 191.487C84.1093 191.487 85.0268 191.249 85.8393 190.773C86.6657 190.297 87.31 189.617 87.7723 188.735C88.2485 187.852 88.4866 186.83 88.4866 185.667C88.4866 184.491 88.2485 183.468 87.7723 182.6C87.31 181.717 86.6727 181.038 85.8603 180.561C85.0478 180.085 84.1234 179.847 83.0868 179.847C82.0503 179.847 81.1258 180.085 80.3134 180.561C79.5009 181.038 78.8566 181.717 78.3803 182.6C77.9181 183.468 77.687 184.491 77.687 185.667C77.687 186.83 77.9181 187.852 78.3803 188.735C78.8566 189.617 79.5009 190.297 80.3134 190.773C81.1398 191.249 82.0643 191.487 83.0868 191.487ZM112.421 193.147C111.062 193.147 109.823 192.832 108.702 192.202C107.581 191.557 106.692 190.668 106.034 189.533C105.389 188.385 105.067 187.096 105.067 185.667C105.067 184.238 105.389 182.957 106.034 181.822C106.692 180.674 107.581 179.784 108.702 179.154C109.823 178.509 111.062 178.187 112.421 178.187C113.794 178.187 115.04 178.509 116.161 179.154C117.281 179.784 118.164 180.667 118.808 181.801C119.453 182.936 119.775 184.224 119.775 185.667C119.775 187.11 119.453 188.399 118.808 189.533C118.164 190.668 117.281 191.557 116.161 192.202C115.04 192.832 113.794 193.147 112.421 193.147ZM112.421 191.487C113.443 191.487 114.361 191.249 115.173 190.773C116 190.297 116.644 189.617 117.106 188.735C117.583 187.852 117.821 186.83 117.821 185.667C117.821 184.491 117.583 183.468 117.106 182.6C116.644 181.717 116.007 181.038 115.194 180.561C114.382 180.085 113.457 179.847 112.421 179.847C111.384 179.847 110.46 180.085 109.647 180.561C108.835 181.038 108.191 181.717 107.714 182.6C107.252 183.468 107.021 184.491 107.021 185.667C107.021 186.83 107.252 187.852 107.714 188.735C108.191 189.617 108.835 190.297 109.647 190.773C110.474 191.249 111.398 191.487 112.421 191.487ZM139.759 193.147C138.793 193.147 137.924 192.979 137.154 192.643C136.397 192.293 135.802 191.816 135.368 191.214C134.934 190.598 134.709 189.89 134.695 189.092H136.733C136.803 189.778 137.084 190.36 137.574 190.836C138.078 191.298 138.807 191.529 139.759 191.529C140.67 191.529 141.384 191.305 141.902 190.857C142.434 190.395 142.701 189.806 142.701 189.092C142.701 188.532 142.546 188.076 142.238 187.726C141.93 187.376 141.545 187.11 141.083 186.928C140.62 186.746 139.997 186.55 139.213 186.34C138.246 186.087 137.469 185.835 136.881 185.583C136.306 185.331 135.809 184.939 135.389 184.407C134.983 183.86 134.779 183.132 134.779 182.221C134.779 181.423 134.983 180.716 135.389 180.099C135.795 179.483 136.362 179.007 137.091 178.671C137.833 178.334 138.68 178.166 139.633 178.166C141.006 178.166 142.126 178.509 142.995 179.196C143.877 179.882 144.374 180.793 144.487 181.927H142.385C142.315 181.367 142.021 180.877 141.503 180.456C140.985 180.022 140.298 179.805 139.444 179.805C138.645 179.805 137.994 180.015 137.49 180.435C136.986 180.842 136.733 181.416 136.733 182.158C136.733 182.691 136.881 183.125 137.175 183.461C137.483 183.797 137.854 184.056 138.288 184.238C138.736 184.407 139.36 184.603 140.158 184.827C141.125 185.093 141.902 185.359 142.49 185.625C143.079 185.877 143.583 186.276 144.003 186.823C144.423 187.355 144.634 188.083 144.634 189.008C144.634 189.722 144.444 190.395 144.066 191.025C143.688 191.655 143.128 192.167 142.385 192.559C141.643 192.951 140.768 193.147 139.759 193.147ZM162.176 179.91V184.806H167.513V186.382H162.176V191.424H168.143V193H160.264V178.334H168.143V179.91H162.176ZM210.928 189.743H204.54L203.364 193H201.347L206.641 178.439H208.848L214.121 193H212.104L210.928 189.743ZM210.381 188.188L207.734 180.793L205.087 188.188H210.381ZM238.259 178.355V179.91H234.267V193H232.355V179.91H228.342V178.355H238.259ZM273.76 191.445H278.887V193H271.848V178.355H273.76V191.445ZM295.646 179.91V184.806H300.983V186.382H295.646V191.424H301.613V193H293.734V178.334H301.613V179.91H295.646ZM325.979 189.743H319.592L318.415 193H316.398L321.693 178.439H323.899L329.173 193H327.156L325.979 189.743ZM325.433 188.188L322.786 180.793L320.138 188.188H325.433ZM348.941 193.147C347.974 193.147 347.106 192.979 346.335 192.643C345.579 192.293 344.984 191.816 344.549 191.214C344.115 190.598 343.891 189.89 343.877 189.092H345.915C345.985 189.778 346.265 190.36 346.756 190.836C347.26 191.298 347.988 191.529 348.941 191.529C349.851 191.529 350.566 191.305 351.084 190.857C351.616 190.395 351.882 189.806 351.882 189.092C351.882 188.532 351.728 188.076 351.42 187.726C351.112 187.376 350.727 187.11 350.264 186.928C349.802 186.746 349.179 186.55 348.394 186.34C347.428 186.087 346.65 185.835 346.062 185.583C345.488 185.331 344.991 184.939 344.57 184.407C344.164 183.86 343.961 183.132 343.961 182.221C343.961 181.423 344.164 180.716 344.57 180.099C344.977 179.483 345.544 179.007 346.272 178.671C347.015 178.334 347.862 178.166 348.815 178.166C350.187 178.166 351.308 178.509 352.176 179.196C353.059 179.882 353.556 180.793 353.668 181.927H351.567C351.497 181.367 351.203 180.877 350.685 180.456C350.166 180.022 349.48 179.805 348.626 179.805C347.827 179.805 347.176 180.015 346.672 180.435C346.167 180.842 345.915 181.416 345.915 182.158C345.915 182.691 346.062 183.125 346.356 183.461C346.664 183.797 347.036 184.056 347.47 184.238C347.918 184.407 348.541 184.603 349.34 184.827C350.306 185.093 351.084 185.359 351.672 185.625C352.26 185.877 352.765 186.276 353.185 186.823C353.605 187.355 353.815 188.083 353.815 189.008C353.815 189.722 353.626 190.395 353.248 191.025C352.87 191.655 352.309 192.167 351.567 192.559C350.825 192.951 349.949 193.147 348.941 193.147ZM378.459 178.355V179.91H374.467V193H372.555V179.91H368.542V178.355H378.459ZM411.502 191.466C413.28 190.037 414.674 188.868 415.683 187.957C416.691 187.033 417.539 186.073 418.225 185.079C418.925 184.07 419.276 183.083 419.276 182.116C419.276 181.206 419.052 180.491 418.603 179.973C418.169 179.441 417.462 179.175 416.481 179.175C415.529 179.175 414.786 179.476 414.254 180.078C413.736 180.667 413.456 181.458 413.414 182.452H411.565C411.621 180.884 412.097 179.672 412.993 178.818C413.89 177.963 415.045 177.536 416.46 177.536C417.903 177.536 419.044 177.935 419.885 178.734C420.739 179.532 421.167 180.632 421.167 182.032C421.167 183.195 420.816 184.329 420.116 185.436C419.43 186.529 418.645 187.495 417.763 188.336C416.88 189.162 415.753 190.128 414.38 191.235H421.608V192.832H411.502V191.466ZM462.701 185.457C463.233 185.541 463.717 185.758 464.151 186.108C464.599 186.459 464.949 186.893 465.201 187.411C465.468 187.929 465.601 188.483 465.601 189.071C465.601 189.813 465.411 190.486 465.033 191.088C464.655 191.676 464.102 192.146 463.373 192.496C462.659 192.832 461.812 193 460.831 193H455.368V178.355H460.621C461.616 178.355 462.463 178.523 463.163 178.86C463.864 179.182 464.389 179.623 464.739 180.183C465.089 180.744 465.264 181.374 465.264 182.074C465.264 182.943 465.026 183.664 464.55 184.238C464.088 184.799 463.471 185.205 462.701 185.457ZM457.28 184.68H460.495C461.391 184.68 462.085 184.47 462.575 184.049C463.065 183.629 463.31 183.048 463.31 182.305C463.31 181.563 463.065 180.982 462.575 180.561C462.085 180.141 461.377 179.931 460.453 179.931H457.28V184.68ZM460.663 191.424C461.616 191.424 462.358 191.2 462.89 190.752C463.422 190.304 463.689 189.68 463.689 188.882C463.689 188.069 463.408 187.432 462.848 186.97C462.288 186.494 461.538 186.255 460.6 186.255H457.28V191.424H460.663ZM487.71 193.147C486.351 193.147 485.112 192.832 483.991 192.202C482.871 191.557 481.981 190.668 481.323 189.533C480.678 188.385 480.356 187.096 480.356 185.667C480.356 184.238 480.678 182.957 481.323 181.822C481.981 180.674 482.871 179.784 483.991 179.154C485.112 178.509 486.351 178.187 487.71 178.187C489.083 178.187 490.329 178.509 491.45 179.154C492.571 179.784 493.453 180.667 494.097 181.801C494.742 182.936 495.064 184.224 495.064 185.667C495.064 187.11 494.742 188.399 494.097 189.533C493.453 190.668 492.571 191.557 491.45 192.202C490.329 192.832 489.083 193.147 487.71 193.147ZM487.71 191.487C488.733 191.487 489.65 191.249 490.462 190.773C491.289 190.297 491.933 189.617 492.395 188.735C492.872 187.852 493.11 186.83 493.11 185.667C493.11 184.491 492.872 183.468 492.395 182.6C491.933 181.717 491.296 181.038 490.483 180.561C489.671 180.085 488.747 179.847 487.71 179.847C486.674 179.847 485.749 180.085 484.937 180.561C484.124 181.038 483.48 181.717 483.004 182.6C482.541 183.468 482.31 184.491 482.31 185.667C482.31 186.83 482.541 187.852 483.004 188.735C483.48 189.617 484.124 190.297 484.937 190.773C485.763 191.249 486.688 191.487 487.71 191.487ZM519.061 189.743H512.674L511.497 193H509.48L514.775 178.439H516.981L522.255 193H520.238L519.061 189.743ZM518.515 188.188L515.868 180.793L513.22 188.188H518.515ZM545.09 193L541.602 187.012H539.291V193H537.379V178.355H542.107C543.213 178.355 544.145 178.544 544.901 178.923C545.672 179.301 546.246 179.812 546.624 180.456C547.002 181.101 547.191 181.836 547.191 182.663C547.191 183.671 546.897 184.561 546.309 185.331C545.735 186.101 544.866 186.613 543.704 186.865L547.38 193H545.09ZM539.291 185.478H542.107C543.143 185.478 543.921 185.226 544.439 184.722C544.957 184.203 545.216 183.517 545.216 182.663C545.216 181.794 544.957 181.122 544.439 180.646C543.935 180.169 543.157 179.931 542.107 179.931H539.291V185.478ZM567.538 178.355C569.135 178.355 570.515 178.656 571.678 179.259C572.854 179.847 573.751 180.695 574.367 181.801C574.997 182.908 575.312 184.21 575.312 185.709C575.312 187.208 574.997 188.511 574.367 189.617C573.751 190.71 572.854 191.55 571.678 192.139C570.515 192.713 569.135 193 567.538 193H562.979V178.355H567.538ZM567.538 191.424C569.429 191.424 570.872 190.927 571.867 189.932C572.861 188.924 573.358 187.516 573.358 185.709C573.358 183.888 572.854 182.466 571.846 181.444C570.851 180.421 569.415 179.91 567.538 179.91H564.891V191.424H567.538ZM595.295 193.147C594.328 193.147 593.46 192.979 592.689 192.643C591.933 192.293 591.337 191.816 590.903 191.214C590.469 190.598 590.245 189.89 590.231 189.092H592.269C592.339 189.778 592.619 190.36 593.109 190.836C593.614 191.298 594.342 191.529 595.295 191.529C596.205 191.529 596.919 191.305 597.438 190.857C597.97 190.395 598.236 189.806 598.236 189.092C598.236 188.532 598.082 188.076 597.774 187.726C597.466 187.376 597.08 187.11 596.618 186.928C596.156 186.746 595.533 186.55 594.748 186.34C593.782 186.087 593.004 185.835 592.416 185.583C591.842 185.331 591.344 184.939 590.924 184.407C590.518 183.86 590.315 183.132 590.315 182.221C590.315 181.423 590.518 180.716 590.924 180.099C591.33 179.483 591.898 179.007 592.626 178.671C593.369 178.334 594.216 178.166 595.168 178.166C596.541 178.166 597.662 178.509 598.53 179.196C599.413 179.882 599.91 180.793 600.022 181.927H597.921C597.851 181.367 597.557 180.877 597.038 180.456C596.52 180.022 595.834 179.805 594.979 179.805C594.181 179.805 593.53 180.015 593.025 180.435C592.521 180.842 592.269 181.416 592.269 182.158C592.269 182.691 592.416 183.125 592.71 183.461C593.018 183.797 593.39 184.056 593.824 184.238C594.272 184.407 594.895 184.603 595.694 184.827C596.66 185.093 597.438 185.359 598.026 185.625C598.614 185.877 599.119 186.276 599.539 186.823C599.959 187.355 600.169 188.083 600.169 189.008C600.169 189.722 599.98 190.395 599.602 191.025C599.224 191.655 598.663 192.167 597.921 192.559C597.179 192.951 596.303 193.147 595.295 193.147Z" fill="white"/>
</g>
</svg>
