<svg width="320" height="16" viewBox="0 0 320 16" fill="none" xmlns="http://www.w3.org/2000/svg">
<path d="M0.444255 5.37576C18.6037 14.8875 39.9681 14.3435 59.8835 11.6349C70.9475 10.1288 81.9213 8.07296 92.9974 6.61842C104.194 5.15243 115.45 4.10448 126.73 3.46884C149.039 2.20328 171.45 2.54114 193.704 4.49389C216.042 6.45235 238.093 10.4438 260.347 13.0607C270.136 14.2118 280.051 15.317 289.931 14.9162C298.47 14.5668 307.201 13.0264 314.627 8.80022C316.425 7.77517 318.114 6.59551 319.702 5.29559C320.586 4.57406 319.306 3.36576 318.427 4.08157C304.236 15.6434 283.498 13.7994 266.258 11.9957C244.262 9.69929 222.507 5.66782 200.505 3.4173C178.695 1.18396 156.712 0.496777 134.794 1.36148C112.931 2.22046 91.3919 4.96919 69.8351 8.41082C49.5229 11.6521 27.8639 14.3263 8.14699 6.94484C5.81393 6.0744 3.55302 5.04363 1.35824 3.8926C0.336021 3.36004 -0.571951 4.8432 0.444255 5.37576Z" fill="#A0DBF9"/>
</svg>
