<svg width="334" height="13" viewBox="0 0 334 13" fill="none" xmlns="http://www.w3.org/2000/svg">
<path d="M334 1.44313C334 1.70669 333.874 1.98223 333.533 2.16793C314.43 12.6026 292.105 13.0878 274.788 12.351C267.636 12.0395 260.424 11.4765 253.446 10.9374L252.559 10.8655C249.354 10.6199 246.048 10.3623 242.795 10.1407C230.893 9.31405 218.919 8.69708 207.214 8.30772C194.048 7.86446 180.649 7.67278 167.399 7.75664C154.143 7.67278 140.749 7.86446 127.583 8.30772C115.878 8.69708 103.904 9.31405 92.0019 10.1407C88.342 10.3923 84.5743 10.6858 81.3336 10.9433L80.8425 10.9793C74.0198 11.5064 66.9575 12.0515 60.0091 12.351C42.6918 13.0878 20.3669 12.6026 1.26467 2.16793C0.695617 1.85644 0.731558 1.31135 0.935219 0.939966C1.08497 0.664423 1.39046 0.370911 1.7918 0.370911C1.94754 0.370911 2.10927 0.418831 2.271 0.508681C4.73291 1.84446 7.01512 2.94663 9.2554 3.8691C28.4834 11.8119 49.9877 11.165 68.6288 9.93103C73.0255 9.6435 77.494 9.30806 81.8128 8.97861L83.1546 8.87678C88.6175 8.46347 94.8172 7.99025 100.873 7.61887C112.476 6.93001 124.216 6.42685 135.771 6.13334C146.296 5.85779 156.94 5.74398 167.399 5.7979C177.863 5.74398 188.502 5.85779 199.026 6.13334C210.581 6.42685 222.321 6.93001 233.924 7.61887C239.98 7.99025 246.18 8.46347 251.643 8.87678L252.984 8.97861C257.303 9.30806 261.772 9.6435 266.169 9.93103C284.822 11.159 306.338 11.7999 325.542 3.8691C327.782 2.94663 330.064 1.84446 332.526 0.508681C332.772 0.3769 333.012 0.34096 333.239 0.406851C333.491 0.478731 333.718 0.676404 333.862 0.939966C333.946 1.08972 334 1.26343 334 1.44313Z" fill="#01B6CB"/>
</svg>
