<svg width="334" height="16" viewBox="0 0 334 16" fill="none" xmlns="http://www.w3.org/2000/svg">
<g clip-path="url(#clip0)">
<path d="M0.376844 1.80201C15.6275 13.5006 35.4725 15.3216 54.0597 14.9921C64.7639 14.8004 75.4501 13.9978 86.1424 13.4886C98.0626 12.9195 109.983 12.4703 121.909 12.1408C145.875 11.4819 169.853 11.3022 193.825 11.6137C217.798 11.9252 241.764 12.7159 265.7 13.9918C286.474 15.0999 310.643 18.8736 328.805 6.03698C330.704 4.69521 332.465 3.1977 334.094 1.53845C334.909 0.711826 333.639 -0.558064 332.825 0.268562C317.017 16.3279 292.452 13.7042 271.99 12.5362C248.497 11.2004 224.974 10.3318 201.445 9.92452C177.916 9.52319 154.381 9.58309 130.852 10.1162C108.006 10.6313 85.2199 11.8952 62.3978 12.9195C43.8526 13.7522 23.6721 13.7462 7.10966 4.16808C5.08502 2.99403 3.14425 1.67622 1.28134 0.250592C0.364864 -0.456233 -0.527653 1.10717 0.376844 1.80201Z" fill="#313A89"/>
</g>
<defs>
<clipPath id="clip0">
<rect width="334" height="16" fill="white"/>
</clipPath>
</defs>
</svg>
