<svg width="229" height="58" viewBox="0 0 229 58" fill="none" xmlns="http://www.w3.org/2000/svg">
<rect x="0.970703" y="0.477539" width="227.925" height="56.747" rx="28.3735" fill="#40AE32"/>
<path d="M47 23L36 34L31 29" stroke="white" stroke-width="2" stroke-linecap="round" stroke-linejoin="round"/>
<path d="M73.2017 26.4701C73.2017 27.4561 72.8617 28.2777 72.1817 28.9351C71.513 29.5811 70.4874 29.9041 69.1047 29.9041H66.8267V34.8511H65.2797V23.0021H69.1047C70.442 23.0021 71.4564 23.3251 72.1477 23.9711C72.8504 24.6171 73.2017 25.4501 73.2017 26.4701ZM69.1047 28.6291C69.966 28.6291 70.6007 28.4421 71.0087 28.0681C71.4167 27.6941 71.6207 27.1614 71.6207 26.4701C71.6207 25.0081 70.782 24.2771 69.1047 24.2771H66.8267V28.6291H69.1047ZM76.6714 27.0481C76.9434 26.5154 77.3288 26.1017 77.8274 25.8071C78.3374 25.5124 78.9551 25.3651 79.6804 25.3651V26.9631H79.2724C77.5384 26.9631 76.6714 27.9037 76.6714 29.7851V34.8511H75.1244V25.5351H76.6714V27.0481ZM85.5292 35.0041C84.6566 35.0041 83.8632 34.8057 83.1492 34.4091C82.4466 34.0124 81.8912 33.4514 81.4832 32.7261C81.0866 31.9894 80.8882 31.1394 80.8882 30.1761C80.8882 29.2241 81.0922 28.3854 81.5002 27.6601C81.9196 26.9234 82.4862 26.3624 83.2002 25.9771C83.9142 25.5804 84.7132 25.3821 85.5972 25.3821C86.4812 25.3821 87.2802 25.5804 87.9942 25.9771C88.7082 26.3624 89.2692 26.9177 89.6772 27.6431C90.0966 28.3684 90.3062 29.2127 90.3062 30.1761C90.3062 31.1394 90.0909 31.9894 89.6602 32.7261C89.2409 33.4514 88.6686 34.0124 87.9432 34.4091C87.2179 34.8057 86.4132 35.0041 85.5292 35.0041ZM85.5292 33.6441C86.0846 33.6441 86.6059 33.5137 87.0932 33.2531C87.5806 32.9924 87.9716 32.6014 88.2662 32.0801C88.5722 31.5587 88.7252 30.9241 88.7252 30.1761C88.7252 29.4281 88.5779 28.7934 88.2832 28.2721C87.9886 27.7507 87.6032 27.3654 87.1272 27.1161C86.6512 26.8554 86.1356 26.7251 85.5802 26.7251C85.0136 26.7251 84.4922 26.8554 84.0162 27.1161C83.5516 27.3654 83.1776 27.7507 82.8942 28.2721C82.6109 28.7934 82.4692 29.4281 82.4692 30.1761C82.4692 30.9354 82.6052 31.5757 82.8772 32.0971C83.1606 32.6184 83.5346 33.0094 83.9992 33.2701C84.4639 33.5194 84.9739 33.6441 85.5292 33.6441ZM91.7623 30.1591C91.7623 29.2071 91.9549 28.3741 92.3403 27.6601C92.7256 26.9347 93.2526 26.3737 93.9213 25.9771C94.6013 25.5804 95.3606 25.3821 96.1993 25.3821C96.9246 25.3821 97.5989 25.5521 98.2223 25.8921C98.8456 26.2207 99.3216 26.6571 99.6503 27.2011V22.2711H101.214V34.8511H99.6503V33.1001C99.3443 33.6554 98.8909 34.1144 98.2903 34.4771C97.6896 34.8284 96.9869 35.0041 96.1823 35.0041C95.3549 35.0041 94.6013 34.8001 93.9213 34.3921C93.2526 33.9841 92.7256 33.4117 92.3403 32.6751C91.9549 31.9384 91.7623 31.0997 91.7623 30.1591ZM99.6503 30.1761C99.6503 29.4734 99.5086 28.8614 99.2253 28.3401C98.9419 27.8187 98.5566 27.4221 98.0693 27.1501C97.5933 26.8667 97.0663 26.7251 96.4883 26.7251C95.9103 26.7251 95.3833 26.8611 94.9073 27.1331C94.4313 27.4051 94.0516 27.8017 93.7683 28.3231C93.4849 28.8444 93.3433 29.4564 93.3433 30.1591C93.3433 30.8731 93.4849 31.4964 93.7683 32.0291C94.0516 32.5504 94.4313 32.9527 94.9073 33.2361C95.3833 33.5081 95.9103 33.6441 96.4883 33.6441C97.0663 33.6441 97.5933 33.5081 98.0693 33.2361C98.5566 32.9527 98.9419 32.5504 99.2253 32.0291C99.5086 31.4964 99.6503 30.8787 99.6503 30.1761ZM112.091 25.5351V34.8511H110.544V33.4741C110.249 33.9501 109.835 34.3241 109.303 34.5961C108.781 34.8567 108.203 34.9871 107.569 34.9871C106.843 34.9871 106.192 34.8397 105.614 34.5451C105.036 34.2391 104.577 33.7857 104.237 33.1851C103.908 32.5844 103.744 31.8534 103.744 30.9921V25.5351H105.274V30.7881C105.274 31.7061 105.506 32.4144 105.971 32.9131C106.435 33.4004 107.07 33.6441 107.875 33.6441C108.702 33.6441 109.354 33.3891 109.83 32.8791C110.306 32.3691 110.544 31.6267 110.544 30.6521V25.5351H112.091ZM114.125 30.1761C114.125 29.2127 114.317 28.3741 114.703 27.6601C115.088 26.9347 115.621 26.3737 116.301 25.9771C116.992 25.5804 117.78 25.3821 118.664 25.3821C119.808 25.3821 120.749 25.6597 121.486 26.2151C122.234 26.7704 122.727 27.5411 122.965 28.5271H121.299C121.14 27.9604 120.828 27.5127 120.364 27.1841C119.91 26.8554 119.344 26.6911 118.664 26.6911C117.78 26.6911 117.066 26.9971 116.522 27.6091C115.978 28.2097 115.706 29.0654 115.706 30.1761C115.706 31.2981 115.978 32.1651 116.522 32.7771C117.066 33.3891 117.78 33.6951 118.664 33.6951C119.344 33.6951 119.91 33.5364 120.364 33.2191C120.817 32.9017 121.129 32.4484 121.299 31.8591H122.965C122.715 32.8111 122.217 33.5761 121.469 34.1541C120.721 34.7207 119.786 35.0041 118.664 35.0041C117.78 35.0041 116.992 34.8057 116.301 34.4091C115.621 34.0124 115.088 33.4514 114.703 32.7261C114.317 32.0007 114.125 31.1507 114.125 30.1761ZM126.916 26.8101V32.3011C126.916 32.7544 127.012 33.0774 127.205 33.2701C127.397 33.4514 127.732 33.5421 128.208 33.5421H129.347V34.8511H127.953C127.091 34.8511 126.445 34.6527 126.015 34.2561C125.584 33.8594 125.369 33.2077 125.369 32.3011V26.8101H124.162V25.5351H125.369V23.1891H126.916V25.5351H129.347V26.8101H126.916ZM135.175 30.1591C135.175 29.2071 135.368 28.3741 135.753 27.6601C136.139 26.9347 136.666 26.3737 137.334 25.9771C138.014 25.5804 138.768 25.3821 139.595 25.3821C140.411 25.3821 141.12 25.5577 141.72 25.9091C142.321 26.2604 142.769 26.7024 143.063 27.2351V25.5351H144.627V34.8511H143.063V33.1171C142.757 33.6611 142.298 34.1144 141.686 34.4771C141.086 34.8284 140.383 35.0041 139.578 35.0041C138.751 35.0041 138.003 34.8001 137.334 34.3921C136.666 33.9841 136.139 33.4117 135.753 32.6751C135.368 31.9384 135.175 31.0997 135.175 30.1591ZM143.063 30.1761C143.063 29.4734 142.922 28.8614 142.638 28.3401C142.355 27.8187 141.97 27.4221 141.482 27.1501C141.006 26.8667 140.479 26.7251 139.901 26.7251C139.323 26.7251 138.796 26.8611 138.32 27.1331C137.844 27.4051 137.465 27.8017 137.181 28.3231C136.898 28.8444 136.756 29.4564 136.756 30.1591C136.756 30.8731 136.898 31.4964 137.181 32.0291C137.465 32.5504 137.844 32.9527 138.32 33.2361C138.796 33.5081 139.323 33.6441 139.901 33.6441C140.479 33.6441 141.006 33.5081 141.482 33.2361C141.97 32.9527 142.355 32.5504 142.638 32.0291C142.922 31.4964 143.063 30.8787 143.063 30.1761ZM146.664 30.1591C146.664 29.2071 146.856 28.3741 147.242 27.6601C147.627 26.9347 148.154 26.3737 148.823 25.9771C149.503 25.5804 150.262 25.3821 151.101 25.3821C151.826 25.3821 152.5 25.5521 153.124 25.8921C153.747 26.2207 154.223 26.6571 154.552 27.2011V22.2711H156.116V34.8511H154.552V33.1001C154.246 33.6554 153.792 34.1144 153.192 34.4771C152.591 34.8284 151.888 35.0041 151.084 35.0041C150.256 35.0041 149.503 34.8001 148.823 34.3921C148.154 33.9841 147.627 33.4117 147.242 32.6751C146.856 31.9384 146.664 31.0997 146.664 30.1591ZM154.552 30.1761C154.552 29.4734 154.41 28.8614 154.127 28.3401C153.843 27.8187 153.458 27.4221 152.971 27.1501C152.495 26.8667 151.968 26.7251 151.39 26.7251C150.812 26.7251 150.285 26.8611 149.809 27.1331C149.333 27.4051 148.953 27.8017 148.67 28.3231C148.386 28.8444 148.245 29.4564 148.245 30.1591C148.245 30.8731 148.386 31.4964 148.67 32.0291C148.953 32.5504 149.333 32.9527 149.809 33.2361C150.285 33.5081 150.812 33.6441 151.39 33.6441C151.968 33.6441 152.495 33.5081 152.971 33.2361C153.458 32.9527 153.843 32.5504 154.127 32.0291C154.41 31.4964 154.552 30.8787 154.552 30.1761ZM158.152 30.1591C158.152 29.2071 158.345 28.3741 158.73 27.6601C159.115 26.9347 159.642 26.3737 160.311 25.9771C160.991 25.5804 161.75 25.3821 162.589 25.3821C163.314 25.3821 163.989 25.5521 164.612 25.8921C165.235 26.2207 165.711 26.6571 166.04 27.2011V22.2711H167.604V34.8511H166.04V33.1001C165.734 33.6554 165.281 34.1144 164.68 34.4771C164.079 34.8284 163.377 35.0041 162.572 35.0041C161.745 35.0041 160.991 34.8001 160.311 34.3921C159.642 33.9841 159.115 33.4117 158.73 32.6751C158.345 31.9384 158.152 31.0997 158.152 30.1591ZM166.04 30.1761C166.04 29.4734 165.898 28.8614 165.615 28.3401C165.332 27.8187 164.946 27.4221 164.459 27.1501C163.983 26.8667 163.456 26.7251 162.878 26.7251C162.3 26.7251 161.773 26.8611 161.297 27.1331C160.821 27.4051 160.441 27.8017 160.158 28.3231C159.875 28.8444 159.733 29.4564 159.733 30.1591C159.733 30.8731 159.875 31.4964 160.158 32.0291C160.441 32.5504 160.821 32.9527 161.297 33.2361C161.773 33.5081 162.3 33.6441 162.878 33.6441C163.456 33.6441 163.983 33.5081 164.459 33.2361C164.946 32.9527 165.332 32.5504 165.615 32.0291C165.898 31.4964 166.04 30.8787 166.04 30.1761ZM178.718 29.8361C178.718 30.1307 178.701 30.4424 178.667 30.7711H171.221C171.278 31.6891 171.59 32.4087 172.156 32.9301C172.734 33.4401 173.431 33.6951 174.247 33.6951C174.916 33.6951 175.471 33.5421 175.913 33.2361C176.367 32.9187 176.684 32.4994 176.865 31.9781H178.531C178.282 32.8734 177.783 33.6044 177.035 34.1711C176.287 34.7264 175.358 35.0041 174.247 35.0041C173.363 35.0041 172.57 34.8057 171.867 34.4091C171.176 34.0124 170.632 33.4514 170.235 32.7261C169.839 31.9894 169.64 31.1394 169.64 30.1761C169.64 29.2127 169.833 28.3684 170.218 27.6431C170.604 26.9177 171.142 26.3624 171.833 25.9771C172.536 25.5804 173.341 25.3821 174.247 25.3821C175.131 25.3821 175.913 25.5747 176.593 25.9601C177.273 26.3454 177.795 26.8781 178.157 27.5581C178.531 28.2267 178.718 28.9861 178.718 29.8361ZM177.12 29.5131C177.12 28.9237 176.99 28.4194 176.729 28.0001C176.469 27.5694 176.112 27.2464 175.658 27.0311C175.216 26.8044 174.723 26.6911 174.179 26.6911C173.397 26.6911 172.729 26.9404 172.173 27.4391C171.629 27.9377 171.318 28.6291 171.238 29.5131H177.12ZM180.182 30.1591C180.182 29.2071 180.375 28.3741 180.76 27.6601C181.146 26.9347 181.673 26.3737 182.341 25.9771C183.021 25.5804 183.781 25.3821 184.619 25.3821C185.345 25.3821 186.019 25.5521 186.642 25.8921C187.266 26.2207 187.742 26.6571 188.07 27.2011V22.2711H189.634V34.8511H188.07V33.1001C187.764 33.6554 187.311 34.1144 186.71 34.4771C186.11 34.8284 185.407 35.0041 184.602 35.0041C183.775 35.0041 183.021 34.8001 182.341 34.3921C181.673 33.9841 181.146 33.4117 180.76 32.6751C180.375 31.9384 180.182 31.0997 180.182 30.1591ZM188.07 30.1761C188.07 29.4734 187.929 28.8614 187.645 28.3401C187.362 27.8187 186.977 27.4221 186.489 27.1501C186.013 26.8667 185.486 26.7251 184.908 26.7251C184.33 26.7251 183.803 26.8611 183.327 27.1331C182.851 27.4051 182.472 27.8017 182.188 28.3231C181.905 28.8444 181.763 29.4564 181.763 30.1591C181.763 30.8731 181.905 31.4964 182.188 32.0291C182.472 32.5504 182.851 32.9527 183.327 33.2361C183.803 33.5081 184.33 33.6441 184.908 33.6441C185.486 33.6441 186.013 33.5081 186.489 33.2361C186.977 32.9527 187.362 32.5504 187.645 32.0291C187.929 31.4964 188.07 30.8787 188.07 30.1761Z" fill="white"/>
</svg>
