<svg width="36" height="36" viewBox="0 0 36 36" fill="none" xmlns="http://www.w3.org/2000/svg">
<path d="M18 36C27.9411 36 36 27.9411 36 18C36 8.05887 27.9411 0 18 0C8.05887 0 0 8.05887 0 18C0 27.9411 8.05887 36 18 36Z" fill="#7479EC"/>
<path fill-rule="evenodd" clip-rule="evenodd" d="M26.7071 11.2929C27.0976 11.6834 27.0976 12.3166 26.7071 12.7071L15.7071 23.7071C15.3166 24.0976 14.6834 24.0976 14.2929 23.7071L9.29289 18.7071C8.90237 18.3166 8.90237 17.6834 9.29289 17.2929C9.68342 16.9024 10.3166 16.9024 10.7071 17.2929L15 21.5858L25.2929 11.2929C25.6834 10.9024 26.3166 10.9024 26.7071 11.2929Z" fill="#F8F6F3"/>
</svg>
