<svg width="400" height="25" viewBox="0 0 400 25" fill="none" xmlns="http://www.w3.org/2000/svg">
<g clip-path="url(#clip0)">
<path d="M0.156749 0.926777C12.7649 13.1256 38.265 18.006 62.0323 19.9399C76.149 21.0887 90.4452 21.6797 104.667 22.2789C119.426 22.9029 134.2 23.374 148.989 23.6963C178.568 24.3409 208.183 24.3864 237.769 23.8327C252.558 23.5558 267.34 23.126 282.107 22.5516C296.582 21.9855 311.11 21.378 325.504 20.3449C350.264 18.5638 376.175 14.7455 394.086 4.49718C396.065 3.36489 397.888 2.16236 399.606 0.910248C400.472 0.273859 398.53 -0.345999 397.671 0.286259C382.277 11.547 356.934 16.3902 332.636 18.5391C318.647 19.7746 304.455 20.3739 290.345 20.9772C275.982 21.5929 261.596 22.0681 247.203 22.3987C218.543 23.0599 189.846 23.1591 161.172 22.6921C132.475 22.2251 103.778 21.2334 75.2228 19.5928C50.6639 18.1837 23.5655 15.3695 6.97619 4.23683C5.14622 3.00537 3.53286 1.68714 2.09876 0.302785C1.37424 -0.391458 -0.560301 0.232535 0.156749 0.926777Z" fill="#4052C7"/>
</g>
<defs>
<clipPath id="clip0">
<rect width="400" height="24.5425" fill="white"/>
</clipPath>
</defs>
</svg>
