<svg width="113" height="517" viewBox="0 0 113 517" fill="none" xmlns="http://www.w3.org/2000/svg">
<path d="M56.3494 2.4799C52.1922 2.32073 6.44029 6.93689 3.0663 51.3947C1.88865 70.2603 4.24396 125.678 4.24396 125.678C4.24396 125.678 7.77693 172.252 9.54341 249.483C9.54341 301.363 7.77693 327.893 7.77693 327.893L4.24396 406.303L2.47747 457.594C2.47747 457.594 1.32926 496.121 31.3595 508.43C32.1191 508.743 32.8787 509.061 33.6324 509.397C44.3078 514.184 51.1029 514.68 54.365 514.503C55.7782 514.426 57.1973 514.42 58.6105 514.503C61.8608 514.686 68.6618 514.202 79.3725 509.397C80.1204 509.061 80.8799 508.743 81.6395 508.43C111.67 496.115 110.522 457.594 110.522 457.594L108.755 406.303L105.222 327.893C105.222 327.893 103.456 301.363 103.456 249.483C105.222 172.252 108.755 125.678 108.755 125.678C108.755 125.678 111.01 72.6539 110.003 52.6859C109.968 52.002 109.939 51.3299 109.909 50.646C109.65 44.6149 106.052 4.37236 56.3494 2.4799Z" stroke="#35528E" stroke-width="3.15633" stroke-miterlimit="10"/>
<path d="M49.7254 129.805C51.0262 129.805 52.0807 128.749 52.0807 127.447C52.0807 126.144 51.0262 125.088 49.7254 125.088C48.4246 125.088 47.3701 126.144 47.3701 127.447C47.3701 128.749 48.4246 129.805 49.7254 129.805Z" fill="#35528E"/>
<path d="M49.7245 139.827C51.0253 139.827 52.0798 138.771 52.0798 137.469C52.0798 136.167 51.0253 135.111 49.7245 135.111C48.4237 135.111 47.3691 136.167 47.3691 137.469C47.3691 138.771 48.4237 139.827 49.7245 139.827Z" fill="#35528E"/>
<path d="M49.7245 149.849C51.0253 149.849 52.0798 148.793 52.0798 147.491C52.0798 146.189 51.0253 145.133 49.7245 145.133C48.4237 145.133 47.3691 146.189 47.3691 147.491C47.3691 148.793 48.4237 149.849 49.7245 149.849Z" fill="#35528E"/>
<path d="M49.7245 159.872C51.0253 159.872 52.0798 158.816 52.0798 157.513C52.0798 156.211 51.0253 155.155 49.7245 155.155C48.4237 155.155 47.3691 156.211 47.3691 157.513C47.3691 158.816 48.4237 159.872 49.7245 159.872Z" fill="#35528E"/>
<path d="M63.2674 129.805C64.5682 129.805 65.6227 128.749 65.6227 127.447C65.6227 126.144 64.5682 125.088 63.2674 125.088C61.9666 125.088 60.9121 126.144 60.9121 127.447C60.9121 128.749 61.9666 129.805 63.2674 129.805Z" fill="#35528E"/>
<path d="M63.2674 139.827C64.5682 139.827 65.6227 138.771 65.6227 137.469C65.6227 136.167 64.5682 135.111 63.2674 135.111C61.9666 135.111 60.9121 136.167 60.9121 137.469C60.9121 138.771 61.9666 139.827 63.2674 139.827Z" fill="#35528E"/>
<path d="M63.2674 149.849C64.5682 149.849 65.6227 148.793 65.6227 147.491C65.6227 146.189 64.5682 145.133 63.2674 145.133C61.9666 145.133 60.9121 146.189 60.9121 147.491C60.9121 148.793 61.9666 149.849 63.2674 149.849Z" fill="#35528E"/>
<path d="M63.2674 159.872C64.5682 159.872 65.6227 158.816 65.6227 157.513C65.6227 156.211 64.5682 155.155 63.2674 155.155C61.9666 155.155 60.9121 156.211 60.9121 157.513C60.9121 158.816 61.9666 159.872 63.2674 159.872Z" fill="#35528E"/>
<path d="M49.7245 337.326C51.0253 337.326 52.0798 336.27 52.0798 334.968C52.0798 333.665 51.0253 332.609 49.7245 332.609C48.4237 332.609 47.3691 333.665 47.3691 334.968C47.3691 336.27 48.4237 337.326 49.7245 337.326Z" fill="#35528E"/>
<path d="M49.7235 347.348C51.0243 347.348 52.0788 346.292 52.0788 344.99C52.0788 343.688 51.0243 342.632 49.7235 342.632C48.4227 342.632 47.3682 343.688 47.3682 344.99C47.3682 346.292 48.4227 347.348 49.7235 347.348Z" fill="#35528E"/>
<path d="M49.7235 357.37C51.0243 357.37 52.0788 356.314 52.0788 355.012C52.0788 353.71 51.0243 352.654 49.7235 352.654C48.4227 352.654 47.3682 353.71 47.3682 355.012C47.3682 356.314 48.4227 357.37 49.7235 357.37Z" fill="#35528E"/>
<path d="M49.7235 367.393C51.0243 367.393 52.0788 366.337 52.0788 365.034C52.0788 363.732 51.0243 362.676 49.7235 362.676C48.4227 362.676 47.3682 363.732 47.3682 365.034C47.3682 366.337 48.4227 367.393 49.7235 367.393Z" fill="#35528E"/>
<path d="M63.2664 337.326C64.5672 337.326 65.6218 336.27 65.6218 334.968C65.6218 333.665 64.5672 332.609 63.2664 332.609C61.9656 332.609 60.9111 333.665 60.9111 334.968C60.9111 336.27 61.9656 337.326 63.2664 337.326Z" fill="#35528E"/>
<path d="M63.2664 347.348C64.5672 347.348 65.6218 346.292 65.6218 344.99C65.6218 343.688 64.5672 342.632 63.2664 342.632C61.9656 342.632 60.9111 343.688 60.9111 344.99C60.9111 346.292 61.9656 347.348 63.2664 347.348Z" fill="#35528E"/>
<path d="M63.2664 357.37C64.5672 357.37 65.6218 356.314 65.6218 355.012C65.6218 353.71 64.5672 352.654 63.2664 352.654C61.9656 352.654 60.9111 353.71 60.9111 355.012C60.9111 356.314 61.9656 357.37 63.2664 357.37Z" fill="#35528E"/>
<path d="M63.2664 367.393C64.5672 367.393 65.6218 366.337 65.6218 365.034C65.6218 363.732 64.5672 362.676 63.2664 362.676C61.9656 362.676 60.9111 363.732 60.9111 365.034C60.9111 366.337 61.9656 367.393 63.2664 367.393Z" fill="#35528E"/>
</svg>
