<svg width="120" height="633" viewBox="0 0 120 633" fill="none" xmlns="http://www.w3.org/2000/svg">
<path d="M51.7741 173.847C53.3537 173.847 54.6342 172.554 54.6342 170.958C54.6342 169.362 53.3537 168.069 51.7741 168.069C50.1946 168.069 48.9141 169.362 48.9141 170.958C48.9141 172.554 50.1946 173.847 51.7741 173.847Z" fill="#7681A1"/>
<path d="M51.7741 186.126C53.3537 186.126 54.6342 184.832 54.6342 183.237C54.6342 181.641 53.3537 180.348 51.7741 180.348C50.1946 180.348 48.9141 181.641 48.9141 183.237C48.9141 184.832 50.1946 186.126 51.7741 186.126Z" fill="#7681A1"/>
<path d="M51.7741 198.404C53.3537 198.404 54.6342 197.111 54.6342 195.515C54.6342 193.919 53.3537 192.626 51.7741 192.626C50.1946 192.626 48.9141 193.919 48.9141 195.515C48.9141 197.111 50.1946 198.404 51.7741 198.404Z" fill="#7681A1"/>
<path d="M51.7741 210.683C53.3537 210.683 54.6342 209.39 54.6342 207.794C54.6342 206.198 53.3537 204.905 51.7741 204.905C50.1946 204.905 48.9141 206.198 48.9141 207.794C48.9141 209.39 50.1946 210.683 51.7741 210.683Z" fill="#7681A1"/>
<path d="M68.2195 173.847C69.799 173.847 71.0796 172.554 71.0796 170.958C71.0796 169.362 69.799 168.069 68.2195 168.069C66.6399 168.069 65.3594 169.362 65.3594 170.958C65.3594 172.554 66.6399 173.847 68.2195 173.847Z" fill="#7681A1"/>
<path d="M68.2195 186.126C69.799 186.126 71.0796 184.832 71.0796 183.237C71.0796 181.641 69.799 180.348 68.2195 180.348C66.6399 180.348 65.3594 181.641 65.3594 183.237C65.3594 184.832 66.6399 186.126 68.2195 186.126Z" fill="#7681A1"/>
<path d="M68.2195 198.404C69.799 198.404 71.0796 197.111 71.0796 195.515C71.0796 193.919 69.799 192.626 68.2195 192.626C66.6399 192.626 65.3594 193.919 65.3594 195.515C65.3594 197.111 66.6399 198.404 68.2195 198.404Z" fill="#7681A1"/>
<path d="M68.2195 210.683C69.799 210.683 71.0796 209.39 71.0796 207.794C71.0796 206.198 69.799 204.905 68.2195 204.905C66.6399 204.905 65.3594 206.198 65.3594 207.794C65.3594 209.39 66.6399 210.683 68.2195 210.683Z" fill="#7681A1"/>
<path d="M51.7741 428.087C53.3537 428.087 54.6342 426.794 54.6342 425.198C54.6342 423.603 53.3537 422.309 51.7741 422.309C50.1946 422.309 48.9141 423.603 48.9141 425.198C48.9141 426.794 50.1946 428.087 51.7741 428.087Z" fill="#7681A1"/>
<path d="M51.7741 440.366C53.3537 440.366 54.6342 439.073 54.6342 437.477C54.6342 435.881 53.3537 434.588 51.7741 434.588C50.1946 434.588 48.9141 435.881 48.9141 437.477C48.9141 439.073 50.1946 440.366 51.7741 440.366Z" fill="#7681A1"/>
<path d="M51.7741 452.644C53.3537 452.644 54.6342 451.351 54.6342 449.755C54.6342 448.16 53.3537 446.866 51.7741 446.866C50.1946 446.866 48.9141 448.16 48.9141 449.755C48.9141 451.351 50.1946 452.644 51.7741 452.644Z" fill="#7681A1"/>
<path d="M51.7741 464.923C53.3537 464.923 54.6342 463.629 54.6342 462.034C54.6342 460.438 53.3537 459.145 51.7741 459.145C50.1946 459.145 48.9141 460.438 48.9141 462.034C48.9141 463.629 50.1946 464.923 51.7741 464.923Z" fill="#7681A1"/>
<path d="M68.2195 428.087C69.799 428.087 71.0796 426.794 71.0796 425.198C71.0796 423.603 69.799 422.309 68.2195 422.309C66.6399 422.309 65.3594 423.603 65.3594 425.198C65.3594 426.794 66.6399 428.087 68.2195 428.087Z" fill="#7681A1"/>
<path d="M68.2195 440.366C69.799 440.366 71.0796 439.073 71.0796 437.477C71.0796 435.881 69.799 434.588 68.2195 434.588C66.6399 434.588 65.3594 435.881 65.3594 437.477C65.3594 439.073 66.6399 440.366 68.2195 440.366Z" fill="#7681A1"/>
<path d="M68.2195 452.644C69.799 452.644 71.0796 451.351 71.0796 449.755C71.0796 448.16 69.799 446.866 68.2195 446.866C66.6399 446.866 65.3594 448.16 65.3594 449.755C65.3594 451.351 66.6399 452.644 68.2195 452.644Z" fill="#7681A1"/>
<path d="M68.2195 464.923C69.799 464.923 71.0796 463.629 71.0796 462.034C71.0796 460.438 69.799 459.145 68.2195 459.145C66.6399 459.145 65.3594 460.438 65.3594 462.034C65.3594 463.629 66.6399 464.923 68.2195 464.923Z" fill="#7681A1"/>
<path d="M54.2972 2.66102C58.2084 2.36489 62.141 2.37211 66.0521 2.67546L70.4781 3.02215C76.5129 3.49163 82.2903 5.70901 87.0881 9.42872C87.3812 9.65263 87.6744 9.88375 87.9747 10.1221C104.148 22.9569 114.402 41.9455 116.676 62.5953L117.09 66.3872C117.519 70.2875 117.662 74.2239 117.505 78.1458L114.874 145.924L111.299 223.93L109.869 298.324L110.584 416.054L115.589 515.728L117.326 556.038C117.734 565.565 116.633 575.113 113.944 584.257C110.827 594.853 105.278 607.767 95.5682 616.846C92.1075 620.024 88.7898 622.783 86.1514 624.871C82.6764 627.63 78.4649 629.269 74.0604 629.58L60.1747 630.548L59.9959 630.555L59.8172 630.548L45.9314 629.58C41.5269 629.269 37.3154 627.63 33.8404 624.871C31.202 622.783 27.8843 620.024 24.4236 616.846C14.7136 607.767 9.16503 594.853 6.04754 584.257C3.35906 575.113 2.25792 565.565 2.66548 556.038L4.40299 515.728L9.40814 416.054L10.1232 298.324L8.69312 223.93L5.11801 145.924L2.48673 78.1458C2.33657 74.2239 2.47243 70.2875 2.90144 66.3872L3.31615 62.5953C5.59707 41.9455 15.8433 22.9569 32.0243 10.1221C32.3246 9.88375 32.6177 9.65263 32.9109 9.42872C37.7087 5.70901 43.4861 3.49163 49.5208 3.02215L54.2972 2.66102Z" stroke="#7681A1" stroke-width="4" stroke-miterlimit="10"/>
</svg>
