<svg width="320" height="16" viewBox="0 0 320 16" fill="none" xmlns="http://www.w3.org/2000/svg">
<path d="M1.39226 5.15636C19.4822 15.1058 40.7648 14.5368 60.6039 11.7035C71.6256 10.1281 82.5574 7.97768 93.5911 6.4562C104.745 4.92275 115.958 3.82657 127.195 3.16168C149.418 1.83788 171.743 2.19129 193.912 4.2339C216.165 6.28249 238.131 10.4576 260.3 13.195C270.052 14.399 279.929 15.5551 289.771 15.1358C298.277 14.7704 306.975 13.1591 314.372 8.73841C316.163 7.66619 317.846 6.43224 319.428 5.0725C320.308 4.31776 319.033 3.05386 318.158 3.80261C304.021 15.8965 283.362 13.9677 266.188 12.0809C244.277 9.67885 222.605 5.46186 200.687 3.10777C178.961 0.771648 157.062 0.0528424 135.228 0.95734C113.448 1.85585 91.9917 4.73107 70.5174 8.33109C50.283 11.7215 28.7069 14.5188 9.06551 6.79764C6.74138 5.88715 4.48912 4.80894 2.30275 3.60494C1.28444 3.04787 0.379945 4.59929 1.39226 5.15636Z" fill="#A0DBF9"/>
</svg>
