<svg width="119" height="552" viewBox="0 0 119 552" fill="none" xmlns="http://www.w3.org/2000/svg">
<path d="M59.3389 1.58467C54.8821 1.41423 5.83276 6.35704 2.2156 53.9608C0.953071 74.1614 3.47814 133.5 3.47814 133.5C3.47814 133.5 7.26573 183.37 9.15953 266.066C9.15953 321.618 7.26573 350.025 7.26573 350.025L3.47814 433.983L1.58434 488.903C1.58434 488.903 0.353368 530.157 32.5479 543.337C33.3623 543.672 34.1766 544.013 34.9846 544.373C46.4295 549.499 53.7143 550.029 57.2115 549.839C58.7266 549.757 60.2479 549.751 61.763 549.839C65.2475 550.035 72.5387 549.517 84.0214 544.373C84.8231 544.013 85.6374 543.672 86.4518 543.337C118.646 530.15 117.415 488.903 117.415 488.903L115.522 433.983L111.734 350.025C111.734 350.025 109.84 321.618 109.84 266.066C111.734 183.37 115.522 133.5 115.522 133.5C115.522 133.5 117.939 76.7243 116.86 55.3433C116.822 54.611 116.79 53.8914 116.759 53.1591C116.481 46.7013 112.624 3.61103 59.3389 1.58467Z" stroke="#C4CADA" stroke-width="3.15633" stroke-miterlimit="10"/>
<path d="M52.238 137.919C53.6325 137.919 54.763 136.789 54.763 135.394C54.763 134 53.6325 132.869 52.238 132.869C50.8434 132.869 49.7129 134 49.7129 135.394C49.7129 136.789 50.8434 137.919 52.238 137.919Z" fill="#C4CADA"/>
<path d="M52.237 148.651C53.6315 148.651 54.762 147.52 54.762 146.126C54.762 144.731 53.6315 143.601 52.237 143.601C50.8424 143.601 49.7119 144.731 49.7119 146.126C49.7119 147.52 50.8424 148.651 52.237 148.651Z" fill="#C4CADA"/>
<path d="M52.237 159.382C53.6315 159.382 54.762 158.252 54.762 156.857C54.762 155.463 53.6315 154.332 52.237 154.332C50.8424 154.332 49.7119 155.463 49.7119 156.857C49.7119 158.252 50.8424 159.382 52.237 159.382Z" fill="#C4CADA"/>
<path d="M52.237 170.114C53.6315 170.114 54.762 168.983 54.762 167.589C54.762 166.194 53.6315 165.063 52.237 165.063C50.8424 165.063 49.7119 166.194 49.7119 167.589C49.7119 168.983 50.8424 170.114 52.237 170.114Z" fill="#C4CADA"/>
<path d="M66.7565 137.919C68.1511 137.919 69.2816 136.789 69.2816 135.394C69.2816 134 68.1511 132.869 66.7565 132.869C65.362 132.869 64.2314 134 64.2314 135.394C64.2314 136.789 65.362 137.919 66.7565 137.919Z" fill="#C4CADA"/>
<path d="M66.7565 148.651C68.1511 148.651 69.2816 147.52 69.2816 146.126C69.2816 144.731 68.1511 143.601 66.7565 143.601C65.362 143.601 64.2314 144.731 64.2314 146.126C64.2314 147.52 65.362 148.651 66.7565 148.651Z" fill="#C4CADA"/>
<path d="M66.7565 159.382C68.1511 159.382 69.2816 158.252 69.2816 156.857C69.2816 155.463 68.1511 154.332 66.7565 154.332C65.362 154.332 64.2314 155.463 64.2314 156.857C64.2314 158.252 65.362 159.382 66.7565 159.382Z" fill="#C4CADA"/>
<path d="M66.7565 170.114C68.1511 170.114 69.2816 168.983 69.2816 167.589C69.2816 166.194 68.1511 165.063 66.7565 165.063C65.362 165.063 64.2314 166.194 64.2314 167.589C64.2314 168.983 65.362 170.114 66.7565 170.114Z" fill="#C4CADA"/>
<path d="M52.237 360.125C53.6315 360.125 54.762 358.994 54.762 357.6C54.762 356.205 53.6315 355.075 52.237 355.075C50.8424 355.075 49.7119 356.205 49.7119 357.6C49.7119 358.994 50.8424 360.125 52.237 360.125Z" fill="#C4CADA"/>
<path d="M52.236 370.856C53.6306 370.856 54.7611 369.726 54.7611 368.331C54.7611 366.937 53.6306 365.806 52.236 365.806C50.8414 365.806 49.7109 366.937 49.7109 368.331C49.7109 369.726 50.8414 370.856 52.236 370.856Z" fill="#C4CADA"/>
<path d="M52.236 381.588C53.6306 381.588 54.7611 380.457 54.7611 379.063C54.7611 377.668 53.6306 376.538 52.236 376.538C50.8414 376.538 49.7109 377.668 49.7109 379.063C49.7109 380.457 50.8414 381.588 52.236 381.588Z" fill="#C4CADA"/>
<path d="M52.236 392.32C53.6306 392.32 54.7611 391.189 54.7611 389.795C54.7611 388.4 53.6306 387.27 52.236 387.27C50.8414 387.27 49.7109 388.4 49.7109 389.795C49.7109 391.189 50.8414 392.32 52.236 392.32Z" fill="#C4CADA"/>
<path d="M66.7555 360.125C68.1501 360.125 69.2806 358.994 69.2806 357.6C69.2806 356.205 68.1501 355.075 66.7555 355.075C65.361 355.075 64.2305 356.205 64.2305 357.6C64.2305 358.994 65.361 360.125 66.7555 360.125Z" fill="#C4CADA"/>
<path d="M66.7555 370.856C68.1501 370.856 69.2806 369.726 69.2806 368.331C69.2806 366.937 68.1501 365.806 66.7555 365.806C65.361 365.806 64.2305 366.937 64.2305 368.331C64.2305 369.726 65.361 370.856 66.7555 370.856Z" fill="#C4CADA"/>
<path d="M66.7555 381.588C68.1501 381.588 69.2806 380.457 69.2806 379.063C69.2806 377.668 68.1501 376.538 66.7555 376.538C65.361 376.538 64.2305 377.668 64.2305 379.063C64.2305 380.457 65.361 381.588 66.7555 381.588Z" fill="#C4CADA"/>
<path d="M66.7555 392.32C68.1501 392.32 69.2806 391.189 69.2806 389.795C69.2806 388.4 68.1501 387.27 66.7555 387.27C65.361 387.27 64.2305 388.4 64.2305 389.795C64.2305 391.189 65.361 392.32 66.7555 392.32Z" fill="#C4CADA"/>
</svg>
