<svg width="122" height="562" viewBox="0 0 122 562" fill="none" xmlns="http://www.w3.org/2000/svg">
<path d="M60.7315 2.00417C56.1999 1.83078 6.32614 6.85926 2.64819 55.2881C1.36444 75.8387 3.93194 136.206 3.93194 136.206C3.93194 136.206 7.7832 186.941 9.70883 271.07C9.70883 327.584 7.7832 356.483 7.7832 356.483L3.93194 441.897L2.00632 497.769C2.00632 497.769 0.754659 539.737 33.4903 553.146C34.3183 553.487 35.1464 553.833 35.968 554.2C47.6052 559.414 55.0124 559.954 58.5684 559.761C60.1089 559.678 61.6558 559.671 63.1963 559.761C66.7395 559.96 74.1532 559.434 85.8289 554.2C86.6441 553.833 87.4721 553.487 88.3001 553.146C121.036 539.731 119.784 497.769 119.784 497.769L117.858 441.897L114.007 356.483C114.007 356.483 112.082 327.584 112.082 271.07C114.007 186.941 117.858 136.206 117.858 136.206C117.858 136.206 120.317 78.4461 119.219 56.6945C119.181 55.9496 119.149 55.2175 119.117 54.4725C118.834 47.9027 114.912 4.06566 60.7315 2.00417Z" stroke="#74A1DC" stroke-width="3.15633" stroke-miterlimit="10"/>
<path d="M53.5109 140.702C54.9289 140.702 56.0784 139.552 56.0784 138.133C56.0784 136.714 54.9289 135.564 53.5109 135.564C52.0929 135.564 50.9434 136.714 50.9434 138.133C50.9434 139.552 52.0929 140.702 53.5109 140.702Z" fill="#74A1DC"/>
<path d="M53.5099 151.619C54.9279 151.619 56.0774 150.469 56.0774 149.05C56.0774 147.632 54.9279 146.481 53.5099 146.481C52.0919 146.481 50.9424 147.632 50.9424 149.05C50.9424 150.469 52.0919 151.619 53.5099 151.619Z" fill="#74A1DC"/>
<path d="M53.5099 162.537C54.9279 162.537 56.0774 161.386 56.0774 159.968C56.0774 158.549 54.9279 157.399 53.5099 157.399C52.0919 157.399 50.9424 158.549 50.9424 159.968C50.9424 161.386 52.0919 162.537 53.5099 162.537Z" fill="#74A1DC"/>
<path d="M53.5099 173.454C54.9279 173.454 56.0774 172.304 56.0774 170.885C56.0774 169.467 54.9279 168.316 53.5099 168.316C52.0919 168.316 50.9424 169.467 50.9424 170.885C50.9424 172.304 52.0919 173.454 53.5099 173.454Z" fill="#74A1DC"/>
<path d="M68.2726 140.702C69.6906 140.702 70.8401 139.552 70.8401 138.133C70.8401 136.714 69.6906 135.564 68.2726 135.564C66.8546 135.564 65.7051 136.714 65.7051 138.133C65.7051 139.552 66.8546 140.702 68.2726 140.702Z" fill="#74A1DC"/>
<path d="M68.2726 151.619C69.6906 151.619 70.8401 150.469 70.8401 149.05C70.8401 147.632 69.6906 146.481 68.2726 146.481C66.8546 146.481 65.7051 147.632 65.7051 149.05C65.7051 150.469 66.8546 151.619 68.2726 151.619Z" fill="#74A1DC"/>
<path d="M68.2726 162.537C69.6906 162.537 70.8401 161.386 70.8401 159.968C70.8401 158.549 69.6906 157.399 68.2726 157.399C66.8546 157.399 65.7051 158.549 65.7051 159.968C65.7051 161.386 66.8546 162.537 68.2726 162.537Z" fill="#74A1DC"/>
<path d="M68.2726 173.454C69.6906 173.454 70.8401 172.304 70.8401 170.885C70.8401 169.467 69.6906 168.316 68.2726 168.316C66.8546 168.316 65.7051 169.467 65.7051 170.885C65.7051 172.304 66.8546 173.454 68.2726 173.454Z" fill="#74A1DC"/>
<path d="M53.5099 366.758C54.9279 366.758 56.0774 365.608 56.0774 364.189C56.0774 362.771 54.9279 361.621 53.5099 361.621C52.0919 361.621 50.9424 362.771 50.9424 364.189C50.9424 365.608 52.0919 366.758 53.5099 366.758Z" fill="#74A1DC"/>
<path d="M53.5089 377.676C54.9269 377.676 56.0764 376.526 56.0764 375.107C56.0764 373.688 54.9269 372.538 53.5089 372.538C52.0909 372.538 50.9414 373.688 50.9414 375.107C50.9414 376.526 52.0909 377.676 53.5089 377.676Z" fill="#74A1DC"/>
<path d="M53.5089 388.593C54.9269 388.593 56.0764 387.443 56.0764 386.024C56.0764 384.606 54.9269 383.456 53.5089 383.456C52.0909 383.456 50.9414 384.606 50.9414 386.024C50.9414 387.443 52.0909 388.593 53.5089 388.593Z" fill="#74A1DC"/>
<path d="M53.5089 399.511C54.9269 399.511 56.0764 398.361 56.0764 396.942C56.0764 395.523 54.9269 394.373 53.5089 394.373C52.0909 394.373 50.9414 395.523 50.9414 396.942C50.9414 398.361 52.0909 399.511 53.5089 399.511Z" fill="#74A1DC"/>
<path d="M68.2716 366.758C69.6896 366.758 70.8391 365.608 70.8391 364.189C70.8391 362.771 69.6896 361.621 68.2716 361.621C66.8536 361.621 65.7041 362.771 65.7041 364.189C65.7041 365.608 66.8536 366.758 68.2716 366.758Z" fill="#74A1DC"/>
<path d="M68.2716 377.676C69.6896 377.676 70.8391 376.526 70.8391 375.107C70.8391 373.688 69.6896 372.538 68.2716 372.538C66.8536 372.538 65.7041 373.688 65.7041 375.107C65.7041 376.526 66.8536 377.676 68.2716 377.676Z" fill="#74A1DC"/>
<path d="M68.2716 388.593C69.6896 388.593 70.8391 387.443 70.8391 386.024C70.8391 384.606 69.6896 383.456 68.2716 383.456C66.8536 383.456 65.7041 384.606 65.7041 386.024C65.7041 387.443 66.8536 388.593 68.2716 388.593Z" fill="#74A1DC"/>
<path d="M68.2716 399.511C69.6896 399.511 70.8391 398.361 70.8391 396.942C70.8391 395.523 69.6896 394.373 68.2716 394.373C66.8536 394.373 65.7041 395.523 65.7041 396.942C65.7041 398.361 66.8536 399.511 68.2716 399.511Z" fill="#74A1DC"/>
</svg>
