<svg width="32" height="32" viewBox="0 0 32 32" fill="none" xmlns="http://www.w3.org/2000/svg">
<path d="M15.9645 7.61905C17.5872 7.61905 18.8837 8.0585 19.8542 8.9374C20.8405 9.8163 21.3337 11.0169 21.3337 12.5393C21.3337 14.1245 20.8246 15.3173 19.8064 16.1177C18.7883 16.9181 17.4361 17.3184 15.7498 17.3184L15.6543 19.1782H13.2919L13.1726 15.4821H13.9601C15.5032 15.4821 16.6804 15.278 17.4918 14.87C18.319 14.4619 18.7326 13.685 18.7326 12.5393C18.7326 11.7075 18.486 11.0562 17.9929 10.5853C17.5156 10.1145 16.8475 9.87908 15.9884 9.87908C15.1293 9.87908 14.4532 10.1067 13.9601 10.5618C13.4669 11.0169 13.2203 11.6526 13.2203 12.4687H10.667C10.667 11.527 10.8818 10.6874 11.3113 9.94971C11.7408 9.21206 12.3533 8.6392 13.1487 8.23114C13.9601 7.82308 14.8987 7.61905 15.9645 7.61905ZM14.4373 24.381C13.9441 24.381 13.5305 24.2162 13.1964 23.8866C12.8624 23.557 12.6953 23.1489 12.6953 22.6624C12.6953 22.1759 12.8624 21.7678 13.1964 21.4382C13.5305 21.1086 13.9441 20.9438 14.4373 20.9438C14.9146 20.9438 15.3202 21.1086 15.6543 21.4382C15.9884 21.7678 16.1554 22.1759 16.1554 22.6624C16.1554 23.1489 15.9884 23.557 15.6543 23.8866C15.3202 24.2162 14.9146 24.381 14.4373 24.381Z" fill="#2741CC"/>
<circle cx="16" cy="16" r="14.5" stroke="#2741CC" stroke-width="3"/>
</svg>
