<svg width="101" height="102" viewBox="0 0 101 102" fill="none" xmlns="http://www.w3.org/2000/svg">
<g clip-path="url(#clip0_0:3)">
<g filter="url(#filter0_d_0:3)">
<path d="M81.5 51.5L81.5 50.5C81.5 33.3792 67.6208 19.5 50.5 19.5C33.3792 19.5 19.5 33.3792 19.5 50.5L19.5 51.5C19.5 68.6208 33.3792 82.5 50.5 82.5C67.6208 82.5 81.5 68.6208 81.5 51.5Z" fill="#47D5D5"/>
</g>
<path d="M50.9316 46.5806L50.9316 56.2314L42.6274 51.2938L50.9316 46.5806Z" fill="white"/>
<path d="M48.687 52.8643L63.5 52.8643L63.5 49.7222L48.687 49.7222L48.687 52.8643Z" fill="white"/>
<path d="M42.4028 64.5349L42.4028 38.5L39.7095 38.5L39.7095 64.5349L42.4028 64.5349Z" fill="white"/>
</g>
<defs>
<filter id="filter0_d_0:3" x="0.5" y="0.5" width="100" height="101" filterUnits="userSpaceOnUse" color-interpolation-filters="sRGB">
<feFlood flood-opacity="0" result="BackgroundImageFix"/>
<feColorMatrix in="SourceAlpha" type="matrix" values="0 0 0 0 0 0 0 0 0 0 0 0 0 0 0 0 0 0 127 0" result="hardAlpha"/>
<feOffset/>
<feGaussianBlur stdDeviation="9.5"/>
<feColorMatrix type="matrix" values="0 0 0 0 0 0 0 0 0 0 0 0 0 0 0 0 0 0 0.12 0"/>
<feBlend mode="normal" in2="BackgroundImageFix" result="effect1_dropShadow_0:3"/>
<feBlend mode="normal" in="SourceGraphic" in2="effect1_dropShadow_0:3" result="shape"/>
</filter>
<clipPath id="clip0_0:3">
<rect width="101" height="100" fill="white" transform="translate(100.5 0.5) rotate(90)"/>
</clipPath>
</defs>
</svg>
