<?xml version="1.0" encoding="utf-8"?>
<!-- Generator: Adobe Illustrator 24.2.0, SVG Export Plug-In . SVG Version: 6.00 Build 0)  -->
<svg version="1.1" id="Layer_1" xmlns="http://www.w3.org/2000/svg" xmlns:xlink="http://www.w3.org/1999/xlink" x="0px" y="0px"
	 viewBox="0 0 326 333" style="enable-background:new 0 0 326 333;" xml:space="preserve">
<style type="text/css">
	.st0{fill:#294E61;}
	.st1{fill:#17465E;}
	.st2{fill:#769AD6;}
	.st3{fill:#759BD8;}
	.st4{fill:#094D70;}
	.st5{fill:#0B4C73;}
	.st6{fill:#FFFFFF;}
	.st7{font-family:'WorkSans-SemiBold';}
	.st8{font-size:21.9167px;}
	.st9{font-size:7.265px;}
</style>
<path class="st0" d="M-219.5,1181.6c-0.1-0.1-0.4-0.4-1.1-0.8c-0.6-0.4-1.3-0.8-2.3-1.2c-0.9-0.4-1.9-0.8-2.9-1
	c-1.1-0.3-2.1-0.5-3.2-0.5c-2.9,0-4.4,1-4.4,3c0,1.2,0.6,2,1.9,2.5c1.3,0.5,3.1,1.1,5.6,1.8c2.3,0.6,4.2,1.4,5.8,2.2
	c1.7,0.8,3,1.9,3.9,3.3c0.9,1.3,1.4,3.1,1.4,5.3c0,2-0.4,3.7-1.1,5.1c-0.7,1.4-1.7,2.5-3,3.3c-1.3,0.8-2.7,1.5-4.3,1.9
	c-1.6,0.4-3.2,0.5-4.9,0.5c-2.6,0-5.3-0.4-8-1.2c-2.7-0.8-5.1-1.9-7.2-3.3l3.6-7.1c0.1,0.2,0.6,0.5,1.3,0.9c0.7,0.4,1.6,0.9,2.8,1.4
	c1.1,0.5,2.3,0.9,3.6,1.3c1.3,0.3,2.7,0.5,4.1,0.5c2.9,0,4.4-0.9,4.4-2.6c0-0.9-0.4-1.6-1.2-2.1c-0.7-0.5-1.8-1-3-1.3
	c-1.3-0.4-2.8-0.8-4.4-1.3c-3.3-1-5.7-2.2-7.3-3.7c-1.5-1.4-2.3-3.5-2.3-6.2c0-2.5,0.6-4.6,1.8-6.3c1.2-1.7,2.8-3,4.8-3.9
	c2-0.9,4.2-1.3,6.6-1.3c2.5,0,4.9,0.4,7.1,1.3c2.2,0.8,4.1,1.7,5.7,2.6L-219.5,1181.6z M-186.7,1206.7h-6.4v-14.1
	c0-1.9-0.4-3.4-1.1-4.4c-0.7-1-1.8-1.4-3.1-1.4c-0.8,0-1.6,0.2-2.5,0.7c-0.8,0.4-1.6,1.1-2.3,1.9c-0.7,0.8-1.2,1.7-1.5,2.7v14.7
	h-6.4v-35h6.4v14.5c0.9-1.6,2.2-2.8,3.8-3.7c1.6-0.9,3.3-1.3,5.2-1.3c2.1,0,3.8,0.5,4.9,1.4c1.1,1,1.9,2.2,2.3,3.7
	c0.4,1.5,0.6,3.1,0.6,4.7V1206.7z M-182.4,1199.2c0-1.6,0.4-3,1.3-4.3c0.9-1.2,2.2-2.2,3.8-2.9c1.6-0.7,3.5-1,5.6-1
	c1.1,0,2.1,0.1,3.2,0.3c1.1,0.2,2,0.4,2.8,0.7v-1.3c0-1.6-0.5-2.8-1.4-3.7c-0.9-0.9-2.3-1.3-4.2-1.3c-1.4,0-2.7,0.2-3.9,0.7
	c-1.2,0.5-2.6,1.2-3.9,2.1l-2.1-4.2c1.7-1.1,3.4-1.9,5.1-2.4c1.8-0.5,3.6-0.8,5.5-0.8c3.6,0,6.4,0.9,8.3,2.7c2,1.8,3,4.3,3,7.7v8
	c0,0.7,0.1,1.2,0.3,1.5c0.2,0.3,0.6,0.4,1.2,0.5v5.2c-0.6,0.1-1.1,0.2-1.6,0.2c-0.4,0.1-0.8,0.1-1.1,0.1c-1.3,0-2.3-0.3-2.9-0.9
	c-0.7-0.6-1.1-1.3-1.2-2.1l-0.1-1.3c-1.1,1.4-2.5,2.5-4.1,3.3c-1.6,0.7-3.2,1.1-4.9,1.1c-1.7,0-3.2-0.3-4.5-1
	c-1.3-0.7-2.3-1.6-3.1-2.8C-182,1202.1-182.4,1200.7-182.4,1199.2z M-166.8,1200.5c0.8-0.8,1.2-1.5,1.2-2.2v-2.5c-1.7-0.7-3.3-1-5-1
	c-1.7,0-3.1,0.4-4.1,1.1c-1.1,0.7-1.6,1.6-1.6,2.8c0,1,0.4,1.8,1.1,2.6c0.8,0.8,1.9,1.1,3.3,1.1c1,0,1.9-0.2,2.8-0.5
	C-168.1,1201.6-167.4,1201.1-166.8,1200.5z M-137.7,1187.1c-1.9,0-3.7,0.4-5.2,1.1c-1.5,0.7-2.6,1.8-3.3,3.2v15.2h-6.4v-25.1h5.9
	v5.4c0.9-1.7,2-3.1,3.4-4.1c1.4-1,2.9-1.5,4.4-1.6c0.7,0,1.1,0,1.3,0V1187.1z M-94.7,1206.7h-6.4v-14.1c0-2-0.4-3.4-1.1-4.4
	c-0.7-1-1.6-1.4-2.8-1.4c-1.3,0-2.5,0.5-3.6,1.5c-1.1,1-1.9,2.2-2.4,3.8v14.6h-6.4v-14.1c0-2-0.4-3.5-1.1-4.4
	c-0.7-0.9-1.6-1.4-2.8-1.4c-1.2,0-2.4,0.5-3.6,1.4c-1.1,1-1.9,2.2-2.4,3.8v14.7h-6.4v-25.1h5.8v4.6c0.9-1.6,2.2-2.9,3.8-3.7
	c1.6-0.9,3.5-1.3,5.6-1.3s3.7,0.5,4.8,1.5c1.2,1,1.9,2.3,2.3,3.8c1-1.7,2.3-3,3.9-3.9c1.6-0.9,3.4-1.4,5.4-1.4
	c1.6,0,2.8,0.3,3.8,0.9c1,0.5,1.8,1.3,2.3,2.3c0.5,0.9,0.9,2,1.1,3.2c0.2,1.2,0.3,2.4,0.3,3.6V1206.7z M-90.3,1199.2
	c0-1.6,0.4-3,1.3-4.3c0.9-1.2,2.2-2.2,3.8-2.9c1.6-0.7,3.5-1,5.6-1c1.1,0,2.1,0.1,3.2,0.3c1.1,0.2,2,0.4,2.8,0.7v-1.3
	c0-1.6-0.5-2.8-1.4-3.7c-0.9-0.9-2.3-1.3-4.2-1.3c-1.4,0-2.7,0.2-3.9,0.7c-1.2,0.5-2.6,1.2-3.9,2.1l-2.1-4.2
	c1.7-1.1,3.4-1.9,5.1-2.4c1.8-0.5,3.6-0.8,5.5-0.8c3.6,0,6.4,0.9,8.3,2.7c2,1.8,3,4.3,3,7.7v8c0,0.7,0.1,1.2,0.3,1.5
	c0.2,0.3,0.6,0.4,1.2,0.5v5.2c-0.6,0.1-1.1,0.2-1.6,0.2c-0.4,0.1-0.8,0.1-1.1,0.1c-1.3,0-2.3-0.3-2.9-0.9c-0.7-0.6-1.1-1.3-1.2-2.1
	l-0.1-1.3c-1.1,1.4-2.5,2.5-4.1,3.3c-1.6,0.7-3.2,1.1-4.9,1.1c-1.7,0-3.2-0.3-4.5-1c-1.3-0.7-2.3-1.6-3.1-2.8
	C-90,1202.1-90.3,1200.7-90.3,1199.2z M-74.7,1200.5c0.8-0.8,1.2-1.5,1.2-2.2v-2.5c-1.7-0.7-3.3-1-5-1s-3.1,0.4-4.1,1.1
	c-1.1,0.7-1.6,1.6-1.6,2.8c0,1,0.4,1.8,1.1,2.6c0.8,0.8,1.9,1.1,3.3,1.1c1,0,1.9-0.2,2.8-0.5C-76.1,1201.6-75.3,1201.1-74.7,1200.5z
	"/>
<path class="st1" d="M-58.3,1206.7v-47.3h9.2v47.3H-58.3z"/>
<path class="st1" d="M-58.3,1206.7h-1v1h1V1206.7z M-58.3,1159.4v-1h-1v1H-58.3z M-49.1,1159.4h1v-1h-1V1159.4z M-49.1,1206.7v1h1
	v-1H-49.1z M-57.3,1206.7v-47.3h-2v47.3H-57.3z M-58.3,1160.4h9.2v-2h-9.2V1160.4z M-50.1,1159.4v47.3h2v-47.3H-50.1z M-49.1,1205.7
	h-9.2v2h9.2V1205.7z"/>
<path class="st2" d="M-0.9,1167.5H-16v39.2h-9.1v-39.2h-15.1v-8.1h39.3V1167.5z"/>
<path class="st2" d="M-0.9,1167.5v0.9H0v-0.9H-0.9z M-16,1167.5v-0.9H-17v0.9H-16z M-16,1206.7v0.9h0.9v-0.9H-16z M-25.2,1206.7
	h-0.9v0.9h0.9V1206.7z M-25.2,1167.5h0.9v-0.9h-0.9V1167.5z M-40.3,1167.5h-0.9v0.9h0.9V1167.5z M-40.3,1159.4v-0.9h-0.9v0.9H-40.3z
	 M-0.9,1159.4H0v-0.9h-0.9V1159.4z M-0.9,1166.6H-16v1.8h15.1V1166.6z M-17,1167.5v39.2h1.8v-39.2H-17z M-16,1205.8h-9.1v1.8h9.1
	V1205.8z M-24.2,1206.7v-39.2h-1.8v39.2H-24.2z M-25.2,1166.6h-15.1v1.8h15.1V1166.6z M-39.3,1167.5v-8.1h-1.8v8.1H-39.3z
	 M-40.3,1160.4h39.3v-1.8h-39.3V1160.4z M-1.8,1159.4v8.1H0v-8.1H-1.8z"/>
<path class="st2" d="M-0.1,1150.5h-39.4c-6.5-58.6-46.5-103.7-94.9-103.7c-38.2,0-71.1,28.1-86.5,68.7h-4.2
	c17.1-54.9,59.5-93.8,109-93.8C-56.7,1021.7-7.5,1077.8-0.1,1150.5z"/>
<path class="st2" d="M-13.9,1241.6c-20,45.4-58.3,76.1-102.3,76.1c-42,0-78.8-28-99.5-69.9h9.9c17.5,24.6,43,40.1,71.4,40.1
	c30.6,0,57.9-18.1,75.5-46.2H-13.9z"/>
<path class="st1" d="M-47.2,1150.5h-11.9c-5.9-51.9-40-91.6-81.3-91.6c-15.4,0-29.8,5.6-42.2,15.3c13.8-11.3,30.4-17.9,48.1-17.9
	C-90.2,1056.3-53.6,1097.2-47.2,1150.5z"/>
<path class="st1" d="M-68.8,1241.6c-16.2,22.6-39.6,36.7-65.6,36.7c-23.6,0-45-11.6-60.9-30.6h0.9c14.4,16.6,33.4,26.6,54,26.6
	c23.1,0,44.1-12.5,59-32.7H-68.8z"/>
<g>
	<path class="st3" d="M1461.7,642.9c0,0,17.2,143.1,138.7,203.8c121.5,60.7,230.7-38.5,264.8-110.8c20.9-50.8,19.2-40.1,30.4-93
		h95.2c0,0-14.3,134-108.2,215.4c-93.9,81.4-178.8,68.2-236.5,51.5c-57.7-16.7-116.9-75.8-158.6-153c-10.4-16.7-31-80.9-34.4-113.8
		C1453,642.7,1461.7,642.9,1461.7,642.9z"/>
	<path class="st4" d="M1877.7,642.8c0,0-19.5,104.2-75.6,147.3c-48.7,43.1-133.1,85.9-232.9,12.5c26.1,13.9,79.4,49.9,165.2,10.1
		c0,0,89-41.1,115.5-169.9C1850.6,642,1877.7,642.8,1877.7,642.8z"/>
</g>
<g>
	<g>
		
			<image style="overflow:visible;" width="796" height="278" xlink:href="384DF82D.jpg"  transform="matrix(0.3299 0 0 0.3299 22.0089 136.4757)">
		</image>
		<g>
			<path class="st3" d="M65.5,136.4c0,0,7-58.2,56.4-82.9s93.8,15.6,107.7,45.1c8.5,20.6,7.8,16.3,12.3,37.8h38.7
				c0,0-5.8-54.5-44-87.6s-72.7-27.7-96.2-20.9S92.9,58.7,76,90.1c-4.2,6.8-12.6,32.9-14,46.3C62,136.4,65.5,136.4,65.5,136.4z"/>
			<path class="st4" d="M234.6,136.4c0,0-7.9-42.4-30.7-59.9c-19.8-17.5-54.1-34.9-94.7-5.1c10.6-5.7,32.3-20.3,67.2-4.1
				c0,0,36.2,16.7,46.9,69.1C223.6,136.7,234.6,136.4,234.6,136.4z"/>
		</g>
		<path class="st3" d="M223.5,230.9h44.9c0,0-26.5,61.1-79.1,69.1s-77.6-17.4-98-40.3c-8.6-9-16.5-28.8-16.5-28.8h8.9
			c0,0,20.8,31.8,46.9,38.6c26.2,6.8,54.5,5.9,81.4-23.3C223.1,232.2,223.5,230.9,223.5,230.9z"/>
		<path class="st5" d="M214.5,230.9h-14.7c0,0-27.4,33.3-64.4,25.6c-19.4-5.7-24.3-8.3-41.9-24.7c10.9,15.6,31.7,30.5,56.2,32.2
			S200.7,250.9,214.5,230.9z"/>
	</g>
	<text transform="matrix(0.5323 0 0 1 241.1436 134.2589)" class="st6 st7 st8">Digital</text>
	<text transform="matrix(0.7916 0 0 1 222.6602 237.048)" class="st6 st7 st9">Private Limited</text>
</g>
</svg>
