<svg width="27" height="27" viewBox="0 0 27 27" fill="none" xmlns="http://www.w3.org/2000/svg">
<path d="M5.09746 16.8938L9.88672 21.683L3.31541 23.3537L5.09746 16.8938Z" fill="white"/>
<rect x="15.4561" y="12.9956" width="11.6559" height="2.20517" transform="rotate(135 15.4561 12.9956)" fill="white"/>
<path d="M9.88789 4.12099L5.09863 8.91024L3.42796 2.33894L9.88789 4.12099Z" fill="white"/>
<rect x="13.7842" y="14.4791" width="11.6559" height="2.20517" transform="rotate(-135 13.7842 14.4791)" fill="white"/>
<path d="M22.6584 9.22524L17.8691 4.43598L24.4404 2.76531L22.6584 9.22524Z" fill="white"/>
<rect x="12.2998" y="13.1234" width="11.6559" height="2.20517" transform="rotate(-45 12.2998 13.1234)" fill="white"/>
<path d="M17.8689 21.9982L22.6582 17.209L24.3289 23.7803L17.8689 21.9982Z" fill="white"/>
<rect x="13.9727" y="11.64" width="11.6559" height="2.20517" transform="rotate(45 13.9727 11.64)" fill="white"/>
</svg>
