<svg width="52" height="169" viewBox="0 0 52 169" fill="none" xmlns="http://www.w3.org/2000/svg">
<rect width="52" height="169" rx="12" fill="white"/>
<path d="M22.9048 19.7273L30 26.5L22.9048 33.2727" stroke="#1B1B1B" stroke-width="1.93506" stroke-linecap="round"/>
<path d="M30.636 67.8576L18 67.8576L18 64.7796L25.578 64.7796L18 61.9536L18 59.4696L25.596 56.6256L18 56.6256L18 53.5476L30.636 53.5476L30.636 57.1836L21.888 60.7296L30.636 64.2396L30.636 67.8576ZM17.856 74.6431C17.856 73.6591 18.066 72.7711 18.486 71.9791C18.906 71.1991 19.506 70.5811 20.286 70.1251C21.066 69.6811 21.978 69.4591 23.022 69.4591C24.054 69.4591 24.96 69.6871 25.74 70.1431C26.532 70.5991 27.138 71.2231 27.558 72.0151C27.978 72.8071 28.188 73.6951 28.188 74.6791C28.188 75.6631 27.978 76.5511 27.558 77.3431C27.138 78.1351 26.532 78.7591 25.74 79.2151C24.96 79.6711 24.054 79.8991 23.022 79.8991C21.99 79.8991 21.078 79.6651 20.286 79.1971C19.506 78.7411 18.906 78.1111 18.486 77.3071C18.066 76.5151 17.856 75.6271 17.856 74.6431ZM20.52 74.6431C20.52 75.2311 20.736 75.7291 21.168 76.1371C21.6 76.5571 22.218 76.7671 23.022 76.7671C23.826 76.7671 24.444 76.5631 24.876 76.1551C25.308 75.7591 25.524 75.2671 25.524 74.6791C25.524 74.0791 25.308 73.5811 24.876 73.1851C24.456 72.7891 23.838 72.5911 23.022 72.5911C22.218 72.5911 21.6 72.7831 21.168 73.1671C20.736 73.5631 20.52 74.0551 20.52 74.6431ZM26.37 84.61C26.922 84.97 27.354 85.42 27.666 85.96C27.99 86.5 28.152 87.1 28.152 87.76L24.894 87.76L24.894 86.914C24.894 86.146 24.726 85.57 24.39 85.186C24.066 84.802 23.49 84.61 22.662 84.61L18 84.61L18 81.532L28.044 81.532L28.044 84.61L26.37 84.61ZM23.184 98.6992C22.896 98.6992 22.596 98.6812 22.284 98.6452L22.284 91.6792C21.66 91.7272 21.18 91.9252 20.844 92.2732C20.52 92.6332 20.358 93.0712 20.358 93.5872C20.358 94.3552 20.682 94.8892 21.33 95.1892L21.33 98.4652C20.67 98.2972 20.076 97.9912 19.548 97.5472C19.02 97.1152 18.606 96.5692 18.306 95.9092C18.006 95.2492 17.856 94.5112 17.856 93.6952C17.856 92.7112 18.066 91.8352 18.486 91.0672C18.906 90.2992 19.506 89.6992 20.286 89.2672C21.066 88.8352 21.978 88.6192 23.022 88.6192C24.066 88.6192 24.978 88.8292 25.758 89.2492C26.538 89.6812 27.138 90.2812 27.558 91.0492C27.978 91.8172 28.188 92.6992 28.188 93.6952C28.188 94.6672 27.984 95.5312 27.576 96.2872C27.168 97.0432 26.586 97.6312 25.83 98.0512C25.074 98.4832 24.192 98.6992 23.184 98.6992ZM23.994 95.5492C24.522 95.5492 24.942 95.3692 25.254 95.0092C25.566 94.6492 25.722 94.1992 25.722 93.6592C25.722 93.1432 25.572 92.7052 25.272 92.3452C24.972 91.9972 24.546 91.7812 23.994 91.6972L23.994 95.5492ZM17.874 108.709C17.874 107.785 18.024 106.957 18.324 106.225C18.624 105.493 19.068 104.905 19.656 104.461C20.244 104.029 20.952 103.801 21.78 103.777L21.78 107.053C21.312 107.101 20.952 107.263 20.7 107.539C20.46 107.815 20.34 108.175 20.34 108.619C20.34 109.075 20.442 109.435 20.646 109.699C20.862 109.963 21.156 110.095 21.528 110.095C21.84 110.095 22.098 109.987 22.302 109.771C22.506 109.567 22.674 109.309 22.806 108.997C22.938 108.697 23.088 108.265 23.256 107.701C23.508 106.885 23.76 106.219 24.012 105.703C24.264 105.187 24.636 104.743 25.128 104.371C25.62 103.999 26.262 103.813 27.054 103.813C28.23 103.813 29.148 104.239 29.808 105.091C30.48 105.943 30.816 107.053 30.816 108.421C30.816 109.813 30.48 110.935 29.808 111.787C29.148 112.639 28.224 113.095 27.036 113.155L27.036 109.825C27.444 109.801 27.762 109.651 27.99 109.375C28.23 109.099 28.35 108.745 28.35 108.313C28.35 107.941 28.248 107.641 28.044 107.413C27.852 107.185 27.57 107.071 27.198 107.071C26.79 107.071 26.472 107.263 26.244 107.647C26.016 108.031 25.77 108.631 25.506 109.447C25.23 110.263 24.966 110.923 24.714 111.427C24.462 111.943 24.096 112.387 23.616 112.759C23.136 113.131 22.518 113.317 21.762 113.317C21.042 113.317 20.388 113.131 19.8 112.759C19.212 112.399 18.744 111.871 18.396 111.175C18.048 110.479 17.874 109.657 17.874 108.709ZM18 121.35L22.212 118.29L18 118.29L18 115.212L31.32 115.212L31.32 118.29L23.958 118.29L28.044 121.332L28.044 125.13L23.004 120.954L18 125.166L18 121.35ZM29.088 127.887C29.088 127.347 29.244 126.903 29.556 126.555C29.88 126.219 30.276 126.051 30.744 126.051C31.224 126.051 31.62 126.219 31.932 126.555C32.256 126.903 32.418 127.347 32.418 127.887C32.418 128.415 32.256 128.847 31.932 129.183C31.62 129.531 31.224 129.705 30.744 129.705C30.276 129.705 29.88 129.531 29.556 129.183C29.244 128.847 29.088 128.415 29.088 127.887ZM28.044 129.417L18 129.417L18 126.339L28.044 126.339L28.044 129.417ZM17.856 135.733C17.856 134.857 18.006 134.077 18.306 133.393C18.606 132.709 19.014 132.169 19.53 131.773C20.058 131.377 20.646 131.155 21.294 131.107L21.294 134.149C20.946 134.185 20.664 134.347 20.448 134.635C20.232 134.923 20.124 135.277 20.124 135.697C20.124 136.081 20.196 136.375 20.34 136.579C20.496 136.795 20.694 136.903 20.934 136.903C21.222 136.903 21.432 136.753 21.564 136.453C21.708 136.153 21.864 135.667 22.032 134.995C22.2 134.275 22.374 133.675 22.554 133.195C22.746 132.715 23.04 132.301 23.436 131.953C23.844 131.605 24.39 131.431 25.074 131.431C25.65 131.431 26.172 131.587 26.64 131.899C27.12 132.223 27.498 132.691 27.774 133.303C28.05 133.927 28.188 134.665 28.188 135.517C28.188 136.777 27.876 137.767 27.252 138.487C26.628 139.219 25.8 139.639 24.768 139.747L24.768 136.903C25.116 136.855 25.392 136.699 25.596 136.435C25.8 136.183 25.902 135.847 25.902 135.427C25.902 135.067 25.83 134.791 25.686 134.599C25.554 134.407 25.368 134.311 25.128 134.311C24.84 134.311 24.624 134.461 24.48 134.761C24.336 135.073 24.192 135.553 24.048 136.201C23.856 136.945 23.664 137.551 23.472 138.019C23.292 138.487 22.992 138.895 22.572 139.243C22.164 139.603 21.612 139.789 20.916 139.801C20.328 139.801 19.8 139.633 19.332 139.297C18.876 138.973 18.516 138.499 18.252 137.875C17.988 137.263 17.856 136.549 17.856 135.733Z" fill="#1B1B1B"/>
</svg>
