<svg width="52" height="233" viewBox="0 0 52 233" fill="none" xmlns="http://www.w3.org/2000/svg">
<rect width="52" height="233" rx="12" fill="white"/>
<path d="M22.9048 19.7273L30 26.5L22.9048 33.2727" stroke="#1B1B1B" stroke-width="1.93506" stroke-linecap="round"/>
<path d="M31.636 58.426L19 58.426L19 55.348L26.578 55.348L19 52.522L19 50.038L26.596 47.194L19 47.194L19 44.116L31.636 44.116L31.636 47.752L22.888 51.298L31.636 54.808L31.636 58.426ZM18.856 65.2114C18.856 64.2274 19.066 63.3394 19.486 62.5474C19.906 61.7674 20.506 61.1494 21.286 60.6934C22.066 60.2494 22.978 60.0274 24.022 60.0274C25.054 60.0274 25.96 60.2554 26.74 60.7114C27.532 61.1674 28.138 61.7914 28.558 62.5834C28.978 63.3754 29.188 64.2634 29.188 65.2474C29.188 66.2314 28.978 67.1194 28.558 67.9114C28.138 68.7034 27.532 69.3274 26.74 69.7834C25.96 70.2394 25.054 70.4674 24.022 70.4674C22.99 70.4674 22.078 70.2334 21.286 69.7654C20.506 69.3094 19.906 68.6794 19.486 67.8754C19.066 67.0834 18.856 66.1954 18.856 65.2114ZM21.52 65.2114C21.52 65.7994 21.736 66.2974 22.168 66.7054C22.6 67.1254 23.218 67.3354 24.022 67.3354C24.826 67.3354 25.444 67.1314 25.876 66.7234C26.308 66.3274 26.524 65.8354 26.524 65.2474C26.524 64.6474 26.308 64.1494 25.876 63.7534C25.456 63.3574 24.838 63.1594 24.022 63.1594C23.218 63.1594 22.6 63.3514 22.168 63.7354C21.736 64.1314 21.52 64.6234 21.52 65.2114ZM27.37 75.1784C27.922 75.5384 28.354 75.9884 28.666 76.5284C28.99 77.0684 29.152 77.6684 29.152 78.3284L25.894 78.3284L25.894 77.4824C25.894 76.7144 25.726 76.1384 25.39 75.7544C25.066 75.3704 24.49 75.1784 23.662 75.1784L19 75.1784L19 72.1004L29.044 72.1004L29.044 75.1784L27.37 75.1784ZM24.184 89.2676C23.896 89.2676 23.596 89.2496 23.284 89.2136L23.284 82.2476C22.66 82.2956 22.18 82.4936 21.844 82.8416C21.52 83.2016 21.358 83.6396 21.358 84.1556C21.358 84.9236 21.682 85.4576 22.33 85.7576L22.33 89.0336C21.67 88.8656 21.076 88.5596 20.548 88.1156C20.02 87.6836 19.606 87.1376 19.306 86.4776C19.006 85.8176 18.856 85.0796 18.856 84.2636C18.856 83.2796 19.066 82.4036 19.486 81.6356C19.906 80.8676 20.506 80.2676 21.286 79.8356C22.066 79.4036 22.978 79.1876 24.022 79.1876C25.066 79.1876 25.978 79.3976 26.758 79.8176C27.538 80.2496 28.138 80.8496 28.558 81.6176C28.978 82.3856 29.188 83.2676 29.188 84.2636C29.188 85.2356 28.984 86.0996 28.576 86.8556C28.168 87.6116 27.586 88.1996 26.83 88.6196C26.074 89.0516 25.192 89.2676 24.184 89.2676ZM24.994 86.1176C25.522 86.1176 25.942 85.9376 26.254 85.5776C26.566 85.2176 26.722 84.7676 26.722 84.2276C26.722 83.7116 26.572 83.2736 26.272 82.9136C25.972 82.5656 25.546 82.3496 24.994 82.2656L24.994 86.1176ZM18.874 99.2778C18.874 98.3538 19.024 97.5258 19.324 96.7938C19.624 96.0618 20.068 95.4738 20.656 95.0298C21.244 94.5978 21.952 94.3698 22.78 94.3458L22.78 97.6218C22.312 97.6698 21.952 97.8318 21.7 98.1078C21.46 98.3838 21.34 98.7438 21.34 99.1878C21.34 99.6438 21.442 100.004 21.646 100.268C21.862 100.532 22.156 100.664 22.528 100.664C22.84 100.664 23.098 100.556 23.302 100.34C23.506 100.136 23.674 99.8778 23.806 99.5658C23.938 99.2658 24.088 98.8338 24.256 98.2698C24.508 97.4538 24.76 96.7878 25.012 96.2718C25.264 95.7558 25.636 95.3118 26.128 94.9398C26.62 94.5678 27.262 94.3818 28.054 94.3818C29.23 94.3818 30.148 94.8078 30.808 95.6598C31.48 96.5118 31.816 97.6218 31.816 98.9898C31.816 100.382 31.48 101.504 30.808 102.356C30.148 103.208 29.224 103.664 28.036 103.724L28.036 100.394C28.444 100.37 28.762 100.22 28.99 99.9438C29.23 99.6678 29.35 99.3138 29.35 98.8818C29.35 98.5098 29.248 98.2098 29.044 97.9818C28.852 97.7538 28.57 97.6398 28.198 97.6398C27.79 97.6398 27.472 97.8318 27.244 98.2158C27.016 98.5998 26.77 99.1998 26.506 100.016C26.23 100.832 25.966 101.492 25.714 101.996C25.462 102.512 25.096 102.956 24.616 103.328C24.136 103.7 23.518 103.886 22.762 103.886C22.042 103.886 21.388 103.7 20.8 103.328C20.212 102.968 19.744 102.44 19.396 101.744C19.048 101.048 18.874 100.226 18.874 99.2778ZM29.152 111.9C29.152 113.076 28.768 114.012 28 114.708C27.244 115.416 26.2 115.77 24.868 115.77L19 115.77L19 112.71L24.454 112.71C25.126 112.71 25.648 112.536 26.02 112.188C26.392 111.84 26.578 111.372 26.578 110.784C26.578 110.196 26.392 109.728 26.02 109.38C25.648 109.032 25.126 108.858 24.454 108.858L19 108.858L19 105.78L29.044 105.78L29.044 108.858L27.712 108.858C28.156 109.17 28.504 109.59 28.756 110.118C29.02 110.646 29.152 111.24 29.152 111.9ZM18.856 122.481C18.856 121.497 19.066 120.609 19.486 119.817C19.906 119.037 20.506 118.419 21.286 117.963C22.066 117.519 22.978 117.297 24.022 117.297C25.054 117.297 25.96 117.525 26.74 117.981C27.532 118.437 28.138 119.061 28.558 119.853C28.978 120.645 29.188 121.533 29.188 122.517C29.188 123.501 28.978 124.389 28.558 125.181C28.138 125.973 27.532 126.597 26.74 127.053C25.96 127.509 25.054 127.737 24.022 127.737C22.99 127.737 22.078 127.503 21.286 127.035C20.506 126.579 19.906 125.949 19.486 125.145C19.066 124.353 18.856 123.465 18.856 122.481ZM21.52 122.481C21.52 123.069 21.736 123.567 22.168 123.975C22.6 124.395 23.218 124.605 24.022 124.605C24.826 124.605 25.444 124.401 25.876 123.993C26.308 123.597 26.524 123.105 26.524 122.517C26.524 121.917 26.308 121.419 25.876 121.023C25.456 120.627 24.838 120.429 24.022 120.429C23.218 120.429 22.6 120.621 22.168 121.005C21.736 121.401 21.52 121.893 21.52 122.481ZM29.044 143.788L19 141.07L19 137.668L25.516 136.084L19 134.446L19 131.062L29.044 128.326L29.044 131.404L21.862 132.826L29.044 134.518L29.044 137.776L21.898 139.486L29.044 140.89L29.044 143.788ZM27.622 148.04C28.09 148.328 28.468 148.742 28.756 149.282C29.044 149.822 29.188 150.44 29.188 151.136C29.188 151.964 28.978 152.714 28.558 153.386C28.138 154.058 27.538 154.586 26.758 154.97C25.978 155.366 25.072 155.564 24.04 155.564C23.008 155.564 22.096 155.366 21.304 154.97C20.524 154.586 19.918 154.058 19.486 153.386C19.066 152.714 18.856 151.964 18.856 151.136C18.856 150.428 18.994 149.81 19.27 149.282C19.558 148.754 19.936 148.34 20.404 148.04L19 148.04L19 144.962L32.32 144.962L32.32 148.04L27.622 148.04ZM24.04 152.432C24.808 152.432 25.408 152.216 25.84 151.784C26.284 151.364 26.506 150.842 26.506 150.218C26.506 149.606 26.284 149.084 25.84 148.652C25.396 148.232 24.79 148.022 24.022 148.022C23.254 148.022 22.648 148.232 22.204 148.652C21.76 149.084 21.538 149.606 21.538 150.218C21.538 150.83 21.76 151.352 22.204 151.784C22.66 152.216 23.272 152.432 24.04 152.432ZM18.856 161.751C18.856 160.767 19.066 159.879 19.486 159.087C19.906 158.307 20.506 157.689 21.286 157.233C22.066 156.789 22.978 156.567 24.022 156.567C25.054 156.567 25.96 156.795 26.74 157.251C27.532 157.707 28.138 158.331 28.558 159.123C28.978 159.915 29.188 160.803 29.188 161.787C29.188 162.771 28.978 163.659 28.558 164.451C28.138 165.243 27.532 165.867 26.74 166.323C25.96 166.779 25.054 167.007 24.022 167.007C22.99 167.007 22.078 166.773 21.286 166.305C20.506 165.849 19.906 165.219 19.486 164.415C19.066 163.623 18.856 162.735 18.856 161.751ZM21.52 161.751C21.52 162.339 21.736 162.837 22.168 163.245C22.6 163.665 23.218 163.875 24.022 163.875C24.826 163.875 25.444 163.671 25.876 163.263C26.308 162.867 26.524 162.375 26.524 161.787C26.524 161.187 26.308 160.689 25.876 160.293C25.456 159.897 24.838 159.699 24.022 159.699C23.218 159.699 22.6 159.891 22.168 160.275C21.736 160.671 21.52 161.163 21.52 161.751ZM24.04 168.027C25.072 168.027 25.978 168.219 26.758 168.603C27.538 168.999 28.138 169.533 28.558 170.205C28.978 170.877 29.188 171.627 29.188 172.455C29.188 173.163 29.044 173.781 28.756 174.309C28.468 174.849 28.09 175.263 27.622 175.551L29.044 175.551L29.044 178.629L19 178.629L19 175.551L20.422 175.551C19.954 175.251 19.576 174.831 19.288 174.291C19 173.763 18.856 173.145 18.856 172.437C18.856 171.621 19.066 170.877 19.486 170.205C19.918 169.533 20.524 168.999 21.304 168.603C22.096 168.219 23.008 168.027 24.04 168.027ZM24.022 175.551C24.79 175.551 25.396 175.335 25.84 174.903C26.284 174.483 26.506 173.967 26.506 173.355C26.506 172.743 26.284 172.221 25.84 171.789C25.408 171.369 24.808 171.159 24.04 171.159C23.272 171.159 22.66 171.369 22.204 171.789C21.76 172.221 21.538 172.743 21.538 173.355C21.538 173.967 21.76 174.483 22.204 174.903C22.648 175.335 23.254 175.551 24.022 175.551ZM27.37 183.934C27.922 184.294 28.354 184.744 28.666 185.284C28.99 185.824 29.152 186.424 29.152 187.084L25.894 187.084L25.894 186.238C25.894 185.47 25.726 184.894 25.39 184.51C25.066 184.126 24.49 183.934 23.662 183.934L19 183.934L19 180.856L29.044 180.856L29.044 183.934L27.37 183.934ZM24.04 187.943C25.072 187.943 25.978 188.135 26.758 188.519C27.538 188.915 28.138 189.449 28.558 190.121C28.978 190.793 29.188 191.543 29.188 192.371C29.188 193.031 29.05 193.631 28.774 194.171C28.498 194.723 28.126 195.155 27.658 195.467L32.32 195.467L32.32 198.545L19 198.545L19 195.467L20.44 195.467C19.96 195.179 19.576 194.765 19.288 194.225C19 193.697 18.856 193.079 18.856 192.371C18.856 191.543 19.066 190.793 19.486 190.121C19.918 189.449 20.524 188.915 21.304 188.519C22.096 188.135 23.008 187.943 24.04 187.943ZM24.022 195.467C24.79 195.467 25.396 195.251 25.84 194.819C26.284 194.399 26.506 193.883 26.506 193.271C26.506 192.659 26.284 192.137 25.84 191.705C25.408 191.285 24.808 191.075 24.04 191.075C23.272 191.075 22.66 191.285 22.204 191.705C21.76 192.137 21.538 192.659 21.538 193.271C21.538 193.883 21.76 194.399 22.204 194.819C22.648 195.251 23.254 195.467 24.022 195.467ZM18.856 204.858C18.856 203.982 19.006 203.202 19.306 202.518C19.606 201.834 20.014 201.294 20.53 200.898C21.058 200.502 21.646 200.28 22.294 200.232L22.294 203.274C21.946 203.31 21.664 203.472 21.448 203.76C21.232 204.048 21.124 204.402 21.124 204.822C21.124 205.206 21.196 205.5 21.34 205.704C21.496 205.92 21.694 206.028 21.934 206.028C22.222 206.028 22.432 205.878 22.564 205.578C22.708 205.278 22.864 204.792 23.032 204.12C23.2 203.4 23.374 202.8 23.554 202.32C23.746 201.84 24.04 201.426 24.436 201.078C24.844 200.73 25.39 200.556 26.074 200.556C26.65 200.556 27.172 200.712 27.64 201.024C28.12 201.348 28.498 201.816 28.774 202.428C29.05 203.052 29.188 203.79 29.188 204.642C29.188 205.902 28.876 206.892 28.252 207.612C27.628 208.344 26.8 208.764 25.768 208.872L25.768 206.028C26.116 205.98 26.392 205.824 26.596 205.56C26.8 205.308 26.902 204.972 26.902 204.552C26.902 204.192 26.83 203.916 26.686 203.724C26.554 203.532 26.368 203.436 26.128 203.436C25.84 203.436 25.624 203.586 25.48 203.886C25.336 204.198 25.192 204.678 25.048 205.326C24.856 206.07 24.664 206.676 24.472 207.144C24.292 207.612 23.992 208.02 23.572 208.368C23.164 208.728 22.612 208.914 21.916 208.926C21.328 208.926 20.8 208.758 20.332 208.422C19.876 208.098 19.516 207.624 19.252 207C18.988 206.388 18.856 205.674 18.856 204.858Z" fill="#1B1B1B"/>
</svg>
