<svg width="375" height="812" viewBox="0 0 375 812" fill="none" xmlns="http://www.w3.org/2000/svg">
<g filter="url(#filter0_d)">
<path d="M0 3.99998C0 1.79084 1.79086 0 4 0H371C373.209 0 375 1.79086 375 4V812H0V3.99998Z" fill="#353848"/>
</g>
<g opacity="0.39">
<path d="M187.422 415.285C145.59 415.285 103.758 415.285 61.9269 415.285C57.3439 415.285 53.8336 413.339 51.8834 409.06C50.3232 405.85 50.6158 401.959 52.6635 398.944C62.1219 383.965 71.5803 368.987 81.1362 354.105C92.8374 335.625 104.538 317.144 116.24 298.664C125.893 283.393 135.547 268.123 145.297 252.755C155.048 237.387 164.702 222.019 174.453 206.748C175.915 204.414 177.476 202.08 178.938 199.648C183.326 192.839 192.687 194.006 196.295 199.842C205.266 213.946 214.237 228.147 223.11 242.25L252.265 288.256L284.736 339.418C295.852 356.926 306.968 374.433 317.987 391.941C319.547 394.373 321.107 396.804 322.57 399.236C325.592 404.197 324.032 410.616 319.059 413.631C317.987 414.312 316.719 414.798 315.549 414.993C314.671 415.09 313.794 415.188 313.014 415.188L187.422 415.285ZM294.487 394.276C258.701 337.862 223.012 281.642 187.422 225.326C151.733 281.74 116.045 338.056 80.4537 394.276H294.487Z" fill="#242128"/>
<path d="M224.573 347.684C225.645 345.934 226.718 344.183 227.888 342.432C228.863 340.973 229.936 339.514 230.911 338.152C231.398 337.569 231.983 336.985 232.568 336.499C233.836 335.332 235.884 335.332 237.151 336.402C238.614 337.569 239.784 339.028 240.564 340.779C242.514 344.767 244.27 348.852 246.22 352.84C250.998 362.955 255.873 373.071 260.651 383.284C260.749 383.478 260.846 383.673 260.846 383.867H197.855C198.343 382.894 198.733 381.922 199.22 380.949C202.438 374.238 205.753 367.429 208.971 360.718C209.556 359.551 210.531 358.773 211.799 358.481C212.482 358.286 213.164 358.092 213.847 358.189C216.187 358.384 217.747 357.216 219.307 355.66C219.697 355.271 220.087 354.785 220.575 354.201L211.701 349.727C189.177 338.444 166.652 327.259 144.03 316.073C141.105 314.614 140.812 311.015 143.542 309.362C144.03 309.07 144.713 308.876 145.298 308.973C145.785 309.07 146.273 308.876 146.565 308.389C151.246 303.429 155.926 298.566 160.509 293.508C161.972 291.854 164.019 290.882 166.165 290.882C170.748 290.687 175.33 290.59 179.913 290.103C182.546 289.812 185.179 290.493 187.422 292.049C190.737 294.091 193.857 296.328 196.783 298.857C198.928 300.803 200.293 303.429 200.78 306.249C202.146 313.35 203.706 320.547 205.168 327.648C205.948 331.538 206.826 335.429 207.704 339.222C207.801 339.514 207.996 339.709 208.191 339.903C213.554 342.529 218.917 345.156 224.28 347.782C224.378 347.684 224.475 347.684 224.573 347.684ZM182.546 326.87L196.88 334.067C195.222 327.551 193.662 321.131 192.005 314.517L182.546 326.87ZM161.192 316.365L170.748 301.97C168.992 302.067 167.432 302.164 165.872 302.262C165.482 302.262 164.994 302.456 164.702 302.748C161.874 305.471 159.144 308.292 156.316 311.015C155.731 311.599 155.146 312.085 154.561 312.669L161.192 316.365Z" fill="#242128"/>
<path d="M165.775 342.724L163.728 348.073C159.827 358.189 155.829 368.402 151.929 378.517C151.637 379.49 151.246 380.463 150.759 381.435C148.906 384.742 145.688 384.451 143.153 382.408C141.105 380.755 140.813 378.323 141.398 375.989C142.276 372.292 143.446 368.596 144.518 364.998C147.931 353.228 151.441 341.459 154.854 329.593C155.049 329.009 155.147 328.523 155.439 327.94L164.215 332.219C170.358 335.234 176.404 338.25 182.547 341.265C183.035 341.557 183.425 341.946 183.815 342.335C185.667 345.35 187.422 348.365 189.08 351.478C189.763 352.645 190.055 354.007 190.25 355.368C190.64 360.037 190.738 364.706 191.03 369.374C191.128 372.292 191.323 375.113 191.323 378.031C191.323 378.809 191.323 379.685 191.128 380.463C190.64 383.381 188.495 384.256 185.667 383.867C183.23 383.575 182.157 381.727 181.669 379.587C181.182 377.447 181.084 375.113 180.792 372.876C180.402 369.374 179.914 365.873 179.524 362.371C179.232 359.842 178.842 357.216 178.549 354.687C178.549 354.396 178.452 354.104 178.159 353.812C174.259 350.213 170.358 346.517 166.263 342.918C165.97 342.821 165.873 342.821 165.775 342.724Z" fill="#242128"/>
<path d="M197.954 289.52C192.104 289.325 187.521 284.559 187.716 278.723C187.911 273.179 192.299 268.705 197.857 268.51C203.708 268.705 208.29 273.471 208.095 279.307C207.998 284.851 203.512 289.325 197.954 289.52Z" fill="#242128"/>
</g>
<defs>
<filter id="filter0_d" x="-27" y="-30" width="429" height="866" filterUnits="userSpaceOnUse" color-interpolation-filters="sRGB">
<feFlood flood-opacity="0" result="BackgroundImageFix"/>
<feColorMatrix in="SourceAlpha" type="matrix" values="0 0 0 0 0 0 0 0 0 0 0 0 0 0 0 0 0 0 127 0" result="hardAlpha"/>
<feOffset dy="-3"/>
<feGaussianBlur stdDeviation="13.5"/>
<feColorMatrix type="matrix" values="0 0 0 0 0 0 0 0 0 0 0 0 0 0 0 0 0 0 0.25 0"/>
<feBlend mode="normal" in2="BackgroundImageFix" result="effect1_dropShadow"/>
<feBlend mode="normal" in="SourceGraphic" in2="effect1_dropShadow" result="shape"/>
</filter>
</defs>
</svg>
