<svg width="30" height="29" viewBox="0 0 30 29" fill="none" xmlns="http://www.w3.org/2000/svg">
<path fill-rule="evenodd" clip-rule="evenodd" d="M13.8416 4.72425C9.27558 4.72425 5.57412 8.42571 5.57412 12.9917C5.57412 17.5577 9.27558 21.2592 13.8416 21.2592C18.4076 21.2592 22.109 17.5577 22.109 12.9917C22.109 8.42571 18.4076 4.72425 13.8416 4.72425ZM3.21199 12.9917C3.21199 7.12115 7.97101 2.36212 13.8416 2.36212C19.7121 2.36212 24.4711 7.12115 24.4711 12.9917C24.4711 18.8623 19.7121 23.6213 13.8416 23.6213C7.97101 23.6213 3.21199 18.8623 3.21199 12.9917Z" fill="black"/>
<path fill-rule="evenodd" clip-rule="evenodd" d="M19.6794 18.8296C20.1407 18.3683 20.8885 18.3683 21.3497 18.8296L26.4874 23.9672C26.9486 24.4284 26.9486 25.1763 26.4874 25.6375C26.0261 26.0987 25.2783 26.0987 24.8171 25.6375L19.6794 20.4999C19.2182 20.0386 19.2182 19.2908 19.6794 18.8296Z" fill="black"/>
<path fill-rule="evenodd" clip-rule="evenodd" d="M9.11731 12.9917C9.11731 12.3394 9.64609 11.8106 10.2984 11.8106H17.3848C18.037 11.8106 18.5658 12.3394 18.5658 12.9917C18.5658 13.644 18.037 14.1728 17.3848 14.1728H10.2984C9.64609 14.1728 9.11731 13.644 9.11731 12.9917Z" fill="black"/>
</svg>
