<svg width="29" height="28" viewBox="0 0 29 28" fill="none" xmlns="http://www.w3.org/2000/svg">
<path fill-rule="evenodd" clip-rule="evenodd" d="M13.7829 4.66665C9.27253 4.66665 5.61619 8.32299 5.61619 12.8333C5.61619 17.3436 9.27253 21 13.7829 21C18.2932 21 21.9495 17.3436 21.9495 12.8333C21.9495 8.32299 18.2932 4.66665 13.7829 4.66665ZM3.28285 12.8333C3.28285 7.03432 7.98386 2.33331 13.7829 2.33331C19.5818 2.33331 24.2829 7.03432 24.2829 12.8333C24.2829 18.6323 19.5818 23.3333 13.7829 23.3333C7.98386 23.3333 3.28285 18.6323 3.28285 12.8333Z" fill="black"/>
<path fill-rule="evenodd" clip-rule="evenodd" d="M19.5496 18.6C20.0052 18.1444 20.7439 18.1444 21.1995 18.6L26.2745 23.675C26.7301 24.1306 26.7301 24.8693 26.2745 25.3249C25.8189 25.7806 25.0802 25.7806 24.6246 25.3249L19.5496 20.2499C19.094 19.7943 19.094 19.0556 19.5496 18.6Z" fill="black"/>
<path fill-rule="evenodd" clip-rule="evenodd" d="M13.7829 8.16665C14.4272 8.16665 14.9495 8.68898 14.9495 9.33331V16.3333C14.9495 16.9776 14.4272 17.5 13.7829 17.5C13.1385 17.5 12.6162 16.9776 12.6162 16.3333V9.33331C12.6162 8.68898 13.1385 8.16665 13.7829 8.16665Z" fill="black"/>
<path fill-rule="evenodd" clip-rule="evenodd" d="M9.11619 12.8333C9.11619 12.189 9.63852 11.6666 10.2829 11.6666H17.2829C17.9272 11.6666 18.4495 12.189 18.4495 12.8333C18.4495 13.4776 17.9272 14 17.2829 14H10.2829C9.63852 14 9.11619 13.4776 9.11619 12.8333Z" fill="black"/>
</svg>
