<svg width="101" height="100" viewBox="0 0 101 100" fill="none" xmlns="http://www.w3.org/2000/svg">
<path d="M51 19H50C32.8792 19 19 32.8792 19 50C19 67.1208 32.8792 81 50 81H51C68.1208 81 82 67.1208 82 50C82 32.8792 68.1208 19 51 19Z" fill="#47D5D5"/>
<path fill-rule="evenodd" clip-rule="evenodd" d="M39 48.6667C39 43.3279 43.3279 39 48.6667 39C54.0054 39 58.3333 43.3279 58.3333 48.6667C58.3333 51.2808 57.2957 53.6526 55.6098 55.3926C55.5689 55.4225 55.5298 55.456 55.4929 55.4929C55.456 55.5298 55.4225 55.5689 55.3926 55.6098C53.6526 57.2957 51.2808 58.3333 48.6667 58.3333C43.3279 58.3333 39 54.0054 39 48.6667ZM56.179 57.5932C54.1493 59.303 51.5283 60.3333 48.6667 60.3333C42.2233 60.3333 37 55.11 37 48.6667C37 42.2233 42.2233 37 48.6667 37C55.11 37 60.3333 42.2233 60.3333 48.6667C60.3333 51.5283 59.303 54.1493 57.5932 56.179L62.7071 61.2929C63.0976 61.6834 63.0976 62.3166 62.7071 62.7071C62.3166 63.0976 61.6834 63.0976 61.2929 62.7071L56.179 57.5932ZM48.6667 43.6667C49.219 43.6667 49.6667 44.1144 49.6667 44.6667V47.6667H52.6667C53.219 47.6667 53.6667 48.1144 53.6667 48.6667C53.6667 49.2189 53.219 49.6667 52.6667 49.6667H49.6667V52.6667C49.6667 53.2189 49.219 53.6667 48.6667 53.6667C48.1144 53.6667 47.6667 53.2189 47.6667 52.6667V49.6667H44.6667C44.1144 49.6667 43.6667 49.2189 43.6667 48.6667C43.6667 48.1144 44.1144 47.6667 44.6667 47.6667H47.6667V44.6667C47.6667 44.1144 48.1144 43.6667 48.6667 43.6667Z" fill="white"/>
</svg>
