<svg width="101" height="100" viewBox="0 0 101 100" fill="none" xmlns="http://www.w3.org/2000/svg">
<g filter="url(#filter0_d)">
<path d="M51 19H50C32.8792 19 19 32.8792 19 50C19 67.1208 32.8792 81 50 81H51C68.1208 81 82 67.1208 82 50C82 32.8792 68.1208 19 51 19Z" fill="#F8F6F3"/>
</g>
<path d="M58.7565 60.2758C52.6343 65.2907 44.4481 63.8629 40.0441 58.3999C35.684 52.9919 36.0434 45.0108 40.8881 40.014C45.7144 35.0352 53.3723 34.6346 58.7493 39.1129C64.0825 43.5601 65.5305 52.0728 60.6054 58.3737C60.6803 58.4556 60.756 58.5416 60.8365 58.6244C63.1158 60.9672 65.3961 63.3102 67.6775 65.6535C68.0457 66.0312 68.2649 66.4571 68.1509 67.0011C68.0553 67.4573 67.809 67.8128 67.3539 67.9341C66.8272 68.075 66.3131 68.0209 65.9011 67.6064C65.2046 66.9044 64.52 66.1901 63.829 65.4807L59.0147 60.533C58.9358 60.4478 58.8505 60.3692 58.7565 60.2758ZM39.605 49.6743C39.6393 55.7721 44.3461 60.6567 50.3088 60.6755C56.2062 60.6927 60.9879 55.7606 60.9991 49.6989C61.0102 43.6371 56.1935 38.6779 50.3008 38.6927C47.4678 38.6981 44.7522 39.8564 42.7478 41.9143C40.7434 43.9723 39.6134 46.7623 39.605 49.6743V49.6743Z" fill="black"/>
<path d="M51.6025 48.3439C52.6385 48.3439 53.6227 48.3439 54.6078 48.3439C55.2629 48.3439 55.7458 48.66 55.949 49.2007C56.0255 49.4023 56.0529 49.6201 56.0288 49.835C56.0047 50.05 55.93 50.2557 55.811 50.4342C55.692 50.6127 55.5324 50.7586 55.346 50.8593C55.1596 50.96 54.9522 51.0123 54.7417 51.0118C53.8188 51.0299 52.8959 51.0168 51.9739 51.0168H51.6025C51.6025 51.4992 51.6025 51.944 51.6025 52.3888C51.5977 53.0638 51.616 53.7413 51.5738 54.4146C51.5316 55.088 50.9466 55.5852 50.2915 55.5778C49.6253 55.5688 49.0467 55.0421 49.0259 54.3597C48.9973 53.3907 49.0132 52.42 49.01 51.4501C49.01 51.3215 49.01 51.1921 49.01 51.0192H48.6474C47.7668 51.0192 46.8869 51.0192 46.0063 51.0192C45.1647 51.0192 44.5782 50.4745 44.5718 49.6979C44.5654 48.9214 45.1584 48.3512 46.0159 48.3463C46.8861 48.3463 47.7556 48.3463 48.6251 48.3463H49.0108C49.0108 48.2013 49.0108 48.085 49.0108 47.9687C49.0108 46.9857 49.002 46.0027 49.0252 45.0263C49.0377 44.7349 49.1469 44.4567 49.3345 44.2378C49.522 44.0189 49.7768 43.8725 50.0564 43.8229C50.6621 43.7181 51.2518 44.0064 51.4702 44.5675C51.5571 44.8121 51.6003 45.0707 51.5977 45.331C51.612 46.2026 51.6033 47.075 51.6033 47.9466L51.6025 48.3439Z" fill="black"/>
<defs>
<filter id="filter0_d" x="7.62939e-06" y="-1.52588e-05" width="101" height="100" filterUnits="userSpaceOnUse" color-interpolation-filters="sRGB">
<feFlood flood-opacity="0" result="BackgroundImageFix"/>
<feColorMatrix in="SourceAlpha" type="matrix" values="0 0 0 0 0 0 0 0 0 0 0 0 0 0 0 0 0 0 127 0" result="hardAlpha"/>
<feOffset/>
<feGaussianBlur stdDeviation="9.5"/>
<feColorMatrix type="matrix" values="0 0 0 0 0 0 0 0 0 0 0 0 0 0 0 0 0 0 0.12 0"/>
<feBlend mode="normal" in2="BackgroundImageFix" result="effect1_dropShadow"/>
<feBlend mode="normal" in="SourceGraphic" in2="effect1_dropShadow" result="shape"/>
</filter>
</defs>
</svg>
